%TF.GenerationSoftware,KiCad,Pcbnew,9.0.6*%
%TF.CreationDate,2025-12-13T22:30:01+01:00*%
%TF.ProjectId,piano,7069616e-6f2e-46b6-9963-61645f706362,rev?*%
%TF.SameCoordinates,Original*%
%TF.FileFunction,Copper,L2,Bot*%
%TF.FilePolarity,Positive*%
%FSLAX46Y46*%
G04 Gerber Fmt 4.6, Leading zero omitted, Abs format (unit mm)*
G04 Created by KiCad (PCBNEW 9.0.6) date 2025-12-13 22:30:01*
%MOMM*%
%LPD*%
G01*
G04 APERTURE LIST*
G04 Aperture macros list*
%AMRoundRect*
0 Rectangle with rounded corners*
0 $1 Rounding radius*
0 $2 $3 $4 $5 $6 $7 $8 $9 X,Y pos of 4 corners*
0 Add a 4 corners polygon primitive as box body*
4,1,4,$2,$3,$4,$5,$6,$7,$8,$9,$2,$3,0*
0 Add four circle primitives for the rounded corners*
1,1,$1+$1,$2,$3*
1,1,$1+$1,$4,$5*
1,1,$1+$1,$6,$7*
1,1,$1+$1,$8,$9*
0 Add four rect primitives between the rounded corners*
20,1,$1+$1,$2,$3,$4,$5,0*
20,1,$1+$1,$4,$5,$6,$7,0*
20,1,$1+$1,$6,$7,$8,$9,0*
20,1,$1+$1,$8,$9,$2,$3,0*%
G04 Aperture macros list end*
%TA.AperFunction,ComponentPad*%
%ADD10R,1.800000X1.800000*%
%TD*%
%TA.AperFunction,ComponentPad*%
%ADD11C,1.800000*%
%TD*%
%TA.AperFunction,ComponentPad*%
%ADD12R,2.000000X2.000000*%
%TD*%
%TA.AperFunction,ComponentPad*%
%ADD13C,2.000000*%
%TD*%
%TA.AperFunction,ComponentPad*%
%ADD14C,2.400000*%
%TD*%
%TA.AperFunction,ComponentPad*%
%ADD15RoundRect,0.250000X0.350000X0.350000X-0.350000X0.350000X-0.350000X-0.350000X0.350000X-0.350000X0*%
%TD*%
%TA.AperFunction,ComponentPad*%
%ADD16C,1.200000*%
%TD*%
%TA.AperFunction,ComponentPad*%
%ADD17O,6.520000X3.260000*%
%TD*%
%TA.AperFunction,ComponentPad*%
%ADD18R,2.170000X2.170000*%
%TD*%
%TA.AperFunction,ComponentPad*%
%ADD19C,2.500000*%
%TD*%
%TA.AperFunction,ComponentPad*%
%ADD20C,1.600000*%
%TD*%
%TA.AperFunction,ComponentPad*%
%ADD21RoundRect,0.249999X0.850001X-0.850001X0.850001X0.850001X-0.850001X0.850001X-0.850001X-0.850001X0*%
%TD*%
%TA.AperFunction,ComponentPad*%
%ADD22C,2.200000*%
%TD*%
%TA.AperFunction,ComponentPad*%
%ADD23RoundRect,0.250000X-0.550000X-0.550000X0.550000X-0.550000X0.550000X0.550000X-0.550000X0.550000X0*%
%TD*%
%TA.AperFunction,ViaPad*%
%ADD24C,0.500000*%
%TD*%
%TA.AperFunction,ViaPad*%
%ADD25C,0.600000*%
%TD*%
%TA.AperFunction,Conductor*%
%ADD26C,1.600000*%
%TD*%
%TA.AperFunction,Conductor*%
%ADD27C,1.000000*%
%TD*%
G04 APERTURE END LIST*
D10*
%TO.P,D1,1,K*%
%TO.N,Net-(D1-K)*%
X163830000Y-92710000D03*
D11*
%TO.P,D1,2,A*%
%TO.N,Net-(D1-A)*%
X163830000Y-90170000D03*
%TD*%
D12*
%TO.P,BZ1,1,+*%
%TO.N,Net-(BZ1-+)*%
X149870000Y-81280000D03*
D13*
%TO.P,BZ1,2,-*%
%TO.N,GND*%
X157470000Y-81280000D03*
%TD*%
D14*
%TO.P,R11,1*%
%TO.N,Net-(D3-A)*%
X135890000Y-69845000D03*
%TO.P,R11,2*%
%TO.N,Net-(C1-Pad2)*%
X135890000Y-100325000D03*
%TD*%
D15*
%TO.P,C1,1*%
%TO.N,Net-(U1-OUT)*%
X145010000Y-95250000D03*
D16*
%TO.P,C1,2*%
%TO.N,Net-(C1-Pad2)*%
X143510000Y-95250000D03*
%TD*%
D17*
%TO.P,S1,1*%
%TO.N,Net-(BAT1-PadPos)*%
X153670000Y-55230000D03*
%TO.P,S1,2*%
%TO.N,Net-(D2-A)*%
X153670000Y-62230000D03*
%TD*%
D18*
%TO.P,BAT2,Neg*%
%TO.N,GND*%
X181610000Y-90170000D03*
D19*
%TO.P,BAT2,Pos*%
%TO.N,Net-(BAT1-PadNeg)*%
X181610000Y-70170000D03*
%TD*%
D10*
%TO.P,D3,1,K*%
%TO.N,Net-(BZ1-+)*%
X144780000Y-81280000D03*
D11*
%TO.P,D3,2,A*%
%TO.N,Net-(D3-A)*%
X142240000Y-81280000D03*
%TD*%
D14*
%TO.P,R9,1*%
%TO.N,GND*%
X194315000Y-97790000D03*
%TO.P,R9,2*%
%TO.N,Net-(D1-K)*%
X163835000Y-97790000D03*
%TD*%
%TO.P,R7,1*%
%TO.N,Net-(R6-Pad2)*%
X186690000Y-134371000D03*
%TO.P,R7,2*%
%TO.N,Net-(R10-Pad1)*%
X186690000Y-103891000D03*
%TD*%
D20*
%TO.P,C2,1*%
%TO.N,Net-(U1-THRES)*%
X146050000Y-91440000D03*
%TO.P,C2,2*%
%TO.N,GND*%
X146050000Y-88940000D03*
%TD*%
D18*
%TO.P,BAT1,Neg*%
%TO.N,Net-(BAT1-PadNeg)*%
X118110000Y-90170000D03*
D19*
%TO.P,BAT1,Pos*%
%TO.N,Net-(BAT1-PadPos)*%
X118110000Y-70170000D03*
%TD*%
D14*
%TO.P,R10,1*%
%TO.N,Net-(R10-Pad1)*%
X199390000Y-134371000D03*
%TO.P,R10,2*%
%TO.N,Net-(U1-DISCH)*%
X199390000Y-103891000D03*
%TD*%
%TO.P,R2,1*%
%TO.N,Net-(R1-Pad2)*%
X123190000Y-134371000D03*
%TO.P,R2,2*%
%TO.N,Net-(R2-Pad2)*%
X123190000Y-103891000D03*
%TD*%
%TO.P,R8,1*%
%TO.N,Net-(U1-DISCH)*%
X199390000Y-100335000D03*
%TO.P,R8,2*%
%TO.N,Net-(D1-A)*%
X199390000Y-69855000D03*
%TD*%
D21*
%TO.P,D2,1,K*%
%TO.N,Net-(D1-A)*%
X163830000Y-87630000D03*
D22*
%TO.P,D2,2,A*%
%TO.N,Net-(D2-A)*%
X163830000Y-77470000D03*
%TD*%
D14*
%TO.P,R6,1*%
%TO.N,Net-(R5-Pad2)*%
X173990000Y-134371000D03*
%TO.P,R6,2*%
%TO.N,Net-(R6-Pad2)*%
X173990000Y-103891000D03*
%TD*%
%TO.P,R5,1*%
%TO.N,Net-(R4-Pad2)*%
X161290000Y-134371000D03*
%TO.P,R5,2*%
%TO.N,Net-(R5-Pad2)*%
X161290000Y-103891000D03*
%TD*%
%TO.P,R1,1*%
%TO.N,Net-(R1-Pad1)*%
X110490000Y-134371000D03*
%TO.P,R1,2*%
%TO.N,Net-(R1-Pad2)*%
X110490000Y-103891000D03*
%TD*%
%TO.P,R3,1*%
%TO.N,Net-(R2-Pad2)*%
X135890000Y-134371000D03*
%TO.P,R3,2*%
%TO.N,Net-(R3-Pad2)*%
X135890000Y-103891000D03*
%TD*%
%TO.P,R4,1*%
%TO.N,Net-(R3-Pad2)*%
X148590000Y-134371000D03*
%TO.P,R4,2*%
%TO.N,Net-(R4-Pad2)*%
X148590000Y-103891000D03*
%TD*%
D23*
%TO.P,U1,1,GND*%
%TO.N,GND*%
X149860000Y-90170000D03*
D20*
%TO.P,U1,2,TRIG*%
%TO.N,Net-(U1-THRES)*%
X149860000Y-92710000D03*
%TO.P,U1,3,OUT*%
%TO.N,Net-(U1-OUT)*%
X149860000Y-95250000D03*
%TO.P,U1,4,RESET*%
%TO.N,Net-(D1-A)*%
X149860000Y-97790000D03*
%TO.P,U1,5,CONT*%
%TO.N,unconnected-(U1-CONT-Pad5)*%
X157480000Y-97790000D03*
%TO.P,U1,6,THRES*%
%TO.N,Net-(U1-THRES)*%
X157480000Y-95250000D03*
%TO.P,U1,7,DISCH*%
%TO.N,Net-(U1-DISCH)*%
X157480000Y-92710000D03*
%TO.P,U1,8,VCC*%
%TO.N,Net-(D1-A)*%
X157480000Y-90170000D03*
%TD*%
D24*
%TO.N,GND*%
X194310000Y-93980000D03*
X181610000Y-93345000D03*
X160655000Y-81280000D03*
D25*
X149860000Y-86995000D03*
X146050000Y-85725000D03*
%TO.N,Net-(U1-THRES)*%
X155956000Y-101854000D03*
%TD*%
D26*
%TO.N,Net-(BAT1-PadNeg)*%
X144460000Y-70170000D02*
X124460000Y-90170000D01*
X181610000Y-70170000D02*
X144460000Y-70170000D01*
X124460000Y-90170000D02*
X118110000Y-90170000D01*
D27*
%TO.N,Net-(U1-THRES)*%
X153162000Y-95250000D02*
X152400000Y-95250000D01*
X153162000Y-99060000D02*
X153162000Y-95250000D01*
X155956000Y-101854000D02*
X153162000Y-99060000D01*
X152400000Y-95250000D02*
X149860000Y-92710000D01*
X157480000Y-95250000D02*
X153162000Y-95250000D01*
D26*
%TO.N,Net-(D1-A)*%
X193035000Y-69855000D02*
X199390000Y-69855000D01*
X163830000Y-87630000D02*
X175260000Y-87630000D01*
X175260000Y-87630000D02*
X193035000Y-69855000D01*
%TO.N,Net-(R1-Pad2)*%
X110490000Y-121671000D02*
X123190000Y-134371000D01*
X110490000Y-103891000D02*
X110490000Y-121671000D01*
%TO.N,Net-(R2-Pad2)*%
X123190000Y-121671000D02*
X135890000Y-134371000D01*
X123190000Y-103891000D02*
X123190000Y-121671000D01*
%TO.N,Net-(R3-Pad2)*%
X135890000Y-103891000D02*
X135890000Y-121671000D01*
X135890000Y-121671000D02*
X148590000Y-134371000D01*
%TO.N,Net-(R4-Pad2)*%
X148590000Y-103891000D02*
X148590000Y-121671000D01*
X148590000Y-121671000D02*
X161290000Y-134371000D01*
%TO.N,Net-(R5-Pad2)*%
X161290000Y-121671000D02*
X173990000Y-134371000D01*
X161290000Y-103891000D02*
X161290000Y-121671000D01*
%TO.N,Net-(R6-Pad2)*%
X173990000Y-121671000D02*
X186690000Y-134371000D01*
X173990000Y-103891000D02*
X173990000Y-121671000D01*
%TO.N,Net-(R10-Pad1)*%
X186690000Y-121671000D02*
X199390000Y-134371000D01*
X186690000Y-103891000D02*
X186690000Y-121671000D01*
%TO.N,Net-(U1-DISCH)*%
X158611370Y-92710000D02*
X160274000Y-94372630D01*
X160274000Y-99568000D02*
X161544000Y-100838000D01*
X161544000Y-100838000D02*
X198887000Y-100838000D01*
X198887000Y-100838000D02*
X199390000Y-100335000D01*
X160274000Y-94372630D02*
X160274000Y-99568000D01*
X157480000Y-92710000D02*
X158611370Y-92710000D01*
%TD*%
%TA.AperFunction,Conductor*%
%TO.N,Net-(R3-Pad2)*%
G36*
X147615453Y-132263212D02*
G01*
X148833474Y-133201601D01*
X148837936Y-133209363D01*
X148837776Y-133213309D01*
X148592289Y-134364287D01*
X148587211Y-134371663D01*
X148583287Y-134373289D01*
X147432309Y-134618776D01*
X147423503Y-134617150D01*
X147420602Y-134614476D01*
X146482212Y-133396453D01*
X146479878Y-133387808D01*
X146483207Y-133381041D01*
X147600041Y-132264207D01*
X147608313Y-132260781D01*
X147615453Y-132263212D01*
G37*
%TD.AperFunction*%
%TD*%
%TA.AperFunction,Conductor*%
%TO.N,Net-(R5-Pad2)*%
G36*
X173015453Y-132263212D02*
G01*
X174233474Y-133201601D01*
X174237936Y-133209363D01*
X174237776Y-133213309D01*
X173992289Y-134364287D01*
X173987211Y-134371663D01*
X173983287Y-134373289D01*
X172832309Y-134618776D01*
X172823503Y-134617150D01*
X172820602Y-134614476D01*
X171882212Y-133396453D01*
X171879878Y-133387808D01*
X171883207Y-133381041D01*
X173000041Y-132264207D01*
X173008313Y-132260781D01*
X173015453Y-132263212D01*
G37*
%TD.AperFunction*%
%TD*%
%TA.AperFunction,Conductor*%
%TO.N,Net-(R4-Pad2)*%
G36*
X160315453Y-132263212D02*
G01*
X161533474Y-133201601D01*
X161537936Y-133209363D01*
X161537776Y-133213309D01*
X161292289Y-134364287D01*
X161287211Y-134371663D01*
X161283287Y-134373289D01*
X160132309Y-134618776D01*
X160123503Y-134617150D01*
X160120602Y-134614476D01*
X159182212Y-133396453D01*
X159179878Y-133387808D01*
X159183207Y-133381041D01*
X160300041Y-132264207D01*
X160308313Y-132260781D01*
X160315453Y-132263212D01*
G37*
%TD.AperFunction*%
%TD*%
%TA.AperFunction,Conductor*%
%TO.N,Net-(R10-Pad1)*%
G36*
X186696365Y-103894127D02*
G01*
X187683813Y-104534404D01*
X187688891Y-104541780D01*
X187689051Y-104545726D01*
X187491322Y-106070539D01*
X187486860Y-106078302D01*
X187479719Y-106080734D01*
X185900281Y-106080734D01*
X185892008Y-106077307D01*
X185888678Y-106070539D01*
X185690948Y-104545726D01*
X185693283Y-104537080D01*
X185696182Y-104534407D01*
X186683635Y-103894126D01*
X186692441Y-103892501D01*
X186696365Y-103894127D01*
G37*
%TD.AperFunction*%
%TD*%
%TA.AperFunction,Conductor*%
%TO.N,Net-(R10-Pad1)*%
G36*
X198415453Y-132263212D02*
G01*
X199633474Y-133201601D01*
X199637936Y-133209363D01*
X199637776Y-133213309D01*
X199392289Y-134364287D01*
X199387211Y-134371663D01*
X199383287Y-134373289D01*
X198232309Y-134618776D01*
X198223503Y-134617150D01*
X198220602Y-134614476D01*
X197282212Y-133396453D01*
X197279878Y-133387808D01*
X197283207Y-133381041D01*
X198400041Y-132264207D01*
X198408313Y-132260781D01*
X198415453Y-132263212D01*
G37*
%TD.AperFunction*%
%TD*%
%TA.AperFunction,Conductor*%
%TO.N,Net-(R2-Pad2)*%
G36*
X134915453Y-132263212D02*
G01*
X136133474Y-133201601D01*
X136137936Y-133209363D01*
X136137776Y-133213309D01*
X135892289Y-134364287D01*
X135887211Y-134371663D01*
X135883287Y-134373289D01*
X134732309Y-134618776D01*
X134723503Y-134617150D01*
X134720602Y-134614476D01*
X133782212Y-133396453D01*
X133779878Y-133387808D01*
X133783207Y-133381041D01*
X134900041Y-132264207D01*
X134908313Y-132260781D01*
X134915453Y-132263212D01*
G37*
%TD.AperFunction*%
%TD*%
%TA.AperFunction,Conductor*%
%TO.N,Net-(R2-Pad2)*%
G36*
X123196365Y-103894127D02*
G01*
X124183813Y-104534404D01*
X124188891Y-104541780D01*
X124189051Y-104545726D01*
X123991322Y-106070539D01*
X123986860Y-106078302D01*
X123979719Y-106080734D01*
X122400281Y-106080734D01*
X122392008Y-106077307D01*
X122388678Y-106070539D01*
X122190948Y-104545726D01*
X122193283Y-104537080D01*
X122196182Y-104534407D01*
X123183635Y-103894126D01*
X123192441Y-103892501D01*
X123196365Y-103894127D01*
G37*
%TD.AperFunction*%
%TD*%
%TA.AperFunction,Conductor*%
%TO.N,Net-(R1-Pad2)*%
G36*
X122215453Y-132263212D02*
G01*
X123433474Y-133201601D01*
X123437936Y-133209363D01*
X123437776Y-133213309D01*
X123192289Y-134364287D01*
X123187211Y-134371663D01*
X123183287Y-134373289D01*
X122032309Y-134618776D01*
X122023503Y-134617150D01*
X122020602Y-134614476D01*
X121082212Y-133396453D01*
X121079878Y-133387808D01*
X121083207Y-133381041D01*
X122200041Y-132264207D01*
X122208313Y-132260781D01*
X122215453Y-132263212D01*
G37*
%TD.AperFunction*%
%TD*%
%TA.AperFunction,Conductor*%
%TO.N,Net-(D1-A)*%
G36*
X164880572Y-86631118D02*
G01*
X165920479Y-86828195D01*
X165927968Y-86833102D01*
X165929999Y-86839690D01*
X165929999Y-88420309D01*
X165926572Y-88428582D01*
X165920478Y-88431804D01*
X164880584Y-88628879D01*
X164871817Y-88627053D01*
X164870319Y-88625840D01*
X163837842Y-87638456D01*
X163834231Y-87630261D01*
X163837472Y-87621914D01*
X163837842Y-87621544D01*
X164870320Y-86634158D01*
X164878666Y-86630918D01*
X164880572Y-86631118D01*
G37*
%TD.AperFunction*%
%TD*%
%TA.AperFunction,Conductor*%
%TO.N,GND*%
G36*
X200664042Y-50030765D02*
G01*
X200686774Y-50032254D01*
X200918114Y-50047417D01*
X200934172Y-50049532D01*
X201179888Y-50098408D01*
X201195554Y-50102606D01*
X201346736Y-50153925D01*
X201432788Y-50183136D01*
X201447765Y-50189339D01*
X201665336Y-50296633D01*
X201672460Y-50300146D01*
X201686508Y-50308256D01*
X201894815Y-50447443D01*
X201907679Y-50457314D01*
X202096033Y-50622497D01*
X202107502Y-50633966D01*
X202272685Y-50822320D01*
X202282559Y-50835188D01*
X202421743Y-51043492D01*
X202429853Y-51057539D01*
X202540657Y-51282227D01*
X202546864Y-51297213D01*
X202627393Y-51534445D01*
X202631591Y-51550111D01*
X202680465Y-51795813D01*
X202682583Y-51811895D01*
X202699235Y-52065956D01*
X202699500Y-52074066D01*
X202699500Y-144157581D01*
X202679815Y-144224620D01*
X202627011Y-144270375D01*
X202557853Y-144280319D01*
X202494297Y-144251294D01*
X202465015Y-144213876D01*
X202419523Y-144124594D01*
X202303828Y-143965354D01*
X202164646Y-143826172D01*
X202005405Y-143710476D01*
X201830029Y-143621117D01*
X201642826Y-143560290D01*
X201448422Y-143529500D01*
X201448417Y-143529500D01*
X201251583Y-143529500D01*
X201251578Y-143529500D01*
X201057173Y-143560290D01*
X200869970Y-143621117D01*
X200694594Y-143710476D01*
X200603741Y-143776485D01*
X200535354Y-143826172D01*
X200535352Y-143826174D01*
X200535351Y-143826174D01*
X200396174Y-143965351D01*
X200396174Y-143965352D01*
X200396172Y-143965354D01*
X200346485Y-144033741D01*
X200280476Y-144124594D01*
X200191117Y-144299970D01*
X200130290Y-144487173D01*
X200099500Y-144681577D01*
X200099500Y-144878422D01*
X200130290Y-145072826D01*
X200191117Y-145260029D01*
X200239907Y-145355784D01*
X200280476Y-145435405D01*
X200396172Y-145594646D01*
X200535354Y-145733828D01*
X200694595Y-145849524D01*
X200777455Y-145891743D01*
X200869970Y-145938882D01*
X200869972Y-145938882D01*
X200869975Y-145938884D01*
X200970317Y-145971487D01*
X201057173Y-145999709D01*
X201251578Y-146030500D01*
X201251583Y-146030500D01*
X201448422Y-146030500D01*
X201642826Y-145999709D01*
X201830025Y-145938884D01*
X202005405Y-145849524D01*
X202164646Y-145733828D01*
X202303828Y-145594646D01*
X202419524Y-145435405D01*
X202465015Y-145346122D01*
X202512989Y-145295327D01*
X202580810Y-145278532D01*
X202646945Y-145301069D01*
X202690397Y-145355784D01*
X202699500Y-145402418D01*
X202699500Y-154933907D01*
X202698903Y-154946061D01*
X202698903Y-154946062D01*
X202685911Y-155077967D01*
X202681169Y-155101807D01*
X202644469Y-155222790D01*
X202635166Y-155245248D01*
X202575573Y-155356738D01*
X202562069Y-155376949D01*
X202481867Y-155474677D01*
X202464677Y-155491867D01*
X202366949Y-155572069D01*
X202346738Y-155585573D01*
X202235248Y-155645166D01*
X202212790Y-155654469D01*
X202091807Y-155691169D01*
X202067967Y-155695911D01*
X201970698Y-155705491D01*
X201936060Y-155708903D01*
X201923907Y-155709500D01*
X102876093Y-155709500D01*
X102863939Y-155708903D01*
X102732033Y-155695911D01*
X102708192Y-155691169D01*
X102587209Y-155654469D01*
X102564751Y-155645166D01*
X102453261Y-155585573D01*
X102433050Y-155572069D01*
X102335322Y-155491867D01*
X102318132Y-155474677D01*
X102237930Y-155376949D01*
X102224426Y-155356738D01*
X102164833Y-155245248D01*
X102155530Y-155222790D01*
X102118828Y-155101801D01*
X102114089Y-155077973D01*
X102101097Y-154946061D01*
X102100500Y-154933907D01*
X102100500Y-145402418D01*
X102120185Y-145335379D01*
X102172989Y-145289624D01*
X102242147Y-145279680D01*
X102305703Y-145308705D01*
X102334984Y-145346122D01*
X102380476Y-145435405D01*
X102496172Y-145594646D01*
X102635354Y-145733828D01*
X102794595Y-145849524D01*
X102877455Y-145891743D01*
X102969970Y-145938882D01*
X102969972Y-145938882D01*
X102969975Y-145938884D01*
X103070317Y-145971487D01*
X103157173Y-145999709D01*
X103351578Y-146030500D01*
X103351583Y-146030500D01*
X103548422Y-146030500D01*
X103742826Y-145999709D01*
X103930025Y-145938884D01*
X104105405Y-145849524D01*
X104264646Y-145733828D01*
X104403828Y-145594646D01*
X104519524Y-145435405D01*
X104608884Y-145260025D01*
X104669709Y-145072826D01*
X104700500Y-144878422D01*
X104700500Y-144681577D01*
X111199500Y-144681577D01*
X111199500Y-144878422D01*
X111230290Y-145072826D01*
X111291117Y-145260029D01*
X111339907Y-145355784D01*
X111380476Y-145435405D01*
X111496172Y-145594646D01*
X111635354Y-145733828D01*
X111794595Y-145849524D01*
X111877455Y-145891743D01*
X111969970Y-145938882D01*
X111969972Y-145938882D01*
X111969975Y-145938884D01*
X112070317Y-145971487D01*
X112157173Y-145999709D01*
X112351578Y-146030500D01*
X112351583Y-146030500D01*
X112548422Y-146030500D01*
X112742826Y-145999709D01*
X112930025Y-145938884D01*
X113105405Y-145849524D01*
X113264646Y-145733828D01*
X113403828Y-145594646D01*
X113519524Y-145435405D01*
X113608884Y-145260025D01*
X113669709Y-145072826D01*
X113700500Y-144878422D01*
X113700500Y-144681577D01*
X114979500Y-144681577D01*
X114979500Y-144878422D01*
X115010290Y-145072826D01*
X115071117Y-145260029D01*
X115119907Y-145355784D01*
X115160476Y-145435405D01*
X115276172Y-145594646D01*
X115415354Y-145733828D01*
X115574595Y-145849524D01*
X115657455Y-145891743D01*
X115749970Y-145938882D01*
X115749972Y-145938882D01*
X115749975Y-145938884D01*
X115850317Y-145971487D01*
X115937173Y-145999709D01*
X116131578Y-146030500D01*
X116131583Y-146030500D01*
X116328422Y-146030500D01*
X116522826Y-145999709D01*
X116710025Y-145938884D01*
X116885405Y-145849524D01*
X117044646Y-145733828D01*
X117183828Y-145594646D01*
X117299524Y-145435405D01*
X117388884Y-145260025D01*
X117449709Y-145072826D01*
X117480500Y-144878422D01*
X117480500Y-144681577D01*
X123979500Y-144681577D01*
X123979500Y-144878422D01*
X124010290Y-145072826D01*
X124071117Y-145260029D01*
X124119907Y-145355784D01*
X124160476Y-145435405D01*
X124276172Y-145594646D01*
X124415354Y-145733828D01*
X124574595Y-145849524D01*
X124657455Y-145891743D01*
X124749970Y-145938882D01*
X124749972Y-145938882D01*
X124749975Y-145938884D01*
X124850317Y-145971487D01*
X124937173Y-145999709D01*
X125131578Y-146030500D01*
X125131583Y-146030500D01*
X125328422Y-146030500D01*
X125522826Y-145999709D01*
X125710025Y-145938884D01*
X125885405Y-145849524D01*
X126044646Y-145733828D01*
X126183828Y-145594646D01*
X126299524Y-145435405D01*
X126388884Y-145260025D01*
X126449709Y-145072826D01*
X126480500Y-144878422D01*
X126480500Y-144681577D01*
X127679500Y-144681577D01*
X127679500Y-144878422D01*
X127710290Y-145072826D01*
X127771117Y-145260029D01*
X127819907Y-145355784D01*
X127860476Y-145435405D01*
X127976172Y-145594646D01*
X128115354Y-145733828D01*
X128274595Y-145849524D01*
X128357455Y-145891743D01*
X128449970Y-145938882D01*
X128449972Y-145938882D01*
X128449975Y-145938884D01*
X128550317Y-145971487D01*
X128637173Y-145999709D01*
X128831578Y-146030500D01*
X128831583Y-146030500D01*
X129028422Y-146030500D01*
X129222826Y-145999709D01*
X129410025Y-145938884D01*
X129585405Y-145849524D01*
X129744646Y-145733828D01*
X129883828Y-145594646D01*
X129999524Y-145435405D01*
X130088884Y-145260025D01*
X130149709Y-145072826D01*
X130180500Y-144878422D01*
X130180500Y-144681577D01*
X136679500Y-144681577D01*
X136679500Y-144878422D01*
X136710290Y-145072826D01*
X136771117Y-145260029D01*
X136819907Y-145355784D01*
X136860476Y-145435405D01*
X136976172Y-145594646D01*
X137115354Y-145733828D01*
X137274595Y-145849524D01*
X137357455Y-145891743D01*
X137449970Y-145938882D01*
X137449972Y-145938882D01*
X137449975Y-145938884D01*
X137550317Y-145971487D01*
X137637173Y-145999709D01*
X137831578Y-146030500D01*
X137831583Y-146030500D01*
X138028422Y-146030500D01*
X138222826Y-145999709D01*
X138410025Y-145938884D01*
X138585405Y-145849524D01*
X138744646Y-145733828D01*
X138883828Y-145594646D01*
X138999524Y-145435405D01*
X139088884Y-145260025D01*
X139149709Y-145072826D01*
X139180500Y-144878422D01*
X139180500Y-144681577D01*
X140299500Y-144681577D01*
X140299500Y-144878422D01*
X140330290Y-145072826D01*
X140391117Y-145260029D01*
X140439907Y-145355784D01*
X140480476Y-145435405D01*
X140596172Y-145594646D01*
X140735354Y-145733828D01*
X140894595Y-145849524D01*
X140977455Y-145891743D01*
X141069970Y-145938882D01*
X141069972Y-145938882D01*
X141069975Y-145938884D01*
X141170317Y-145971487D01*
X141257173Y-145999709D01*
X141451578Y-146030500D01*
X141451583Y-146030500D01*
X141648422Y-146030500D01*
X141842826Y-145999709D01*
X142030025Y-145938884D01*
X142205405Y-145849524D01*
X142364646Y-145733828D01*
X142503828Y-145594646D01*
X142619524Y-145435405D01*
X142708884Y-145260025D01*
X142769709Y-145072826D01*
X142800500Y-144878422D01*
X142800500Y-144681577D01*
X149299500Y-144681577D01*
X149299500Y-144878422D01*
X149330290Y-145072826D01*
X149391117Y-145260029D01*
X149439907Y-145355784D01*
X149480476Y-145435405D01*
X149596172Y-145594646D01*
X149735354Y-145733828D01*
X149894595Y-145849524D01*
X149977455Y-145891743D01*
X150069970Y-145938882D01*
X150069972Y-145938882D01*
X150069975Y-145938884D01*
X150170317Y-145971487D01*
X150257173Y-145999709D01*
X150451578Y-146030500D01*
X150451583Y-146030500D01*
X150648422Y-146030500D01*
X150842826Y-145999709D01*
X151030025Y-145938884D01*
X151205405Y-145849524D01*
X151364646Y-145733828D01*
X151503828Y-145594646D01*
X151619524Y-145435405D01*
X151708884Y-145260025D01*
X151769709Y-145072826D01*
X151800500Y-144878422D01*
X151800500Y-144681577D01*
X152999500Y-144681577D01*
X152999500Y-144878422D01*
X153030290Y-145072826D01*
X153091117Y-145260029D01*
X153139907Y-145355784D01*
X153180476Y-145435405D01*
X153296172Y-145594646D01*
X153435354Y-145733828D01*
X153594595Y-145849524D01*
X153677455Y-145891743D01*
X153769970Y-145938882D01*
X153769972Y-145938882D01*
X153769975Y-145938884D01*
X153870317Y-145971487D01*
X153957173Y-145999709D01*
X154151578Y-146030500D01*
X154151583Y-146030500D01*
X154348422Y-146030500D01*
X154542826Y-145999709D01*
X154730025Y-145938884D01*
X154905405Y-145849524D01*
X155064646Y-145733828D01*
X155203828Y-145594646D01*
X155319524Y-145435405D01*
X155408884Y-145260025D01*
X155469709Y-145072826D01*
X155500500Y-144878422D01*
X155500500Y-144681577D01*
X161999500Y-144681577D01*
X161999500Y-144878422D01*
X162030290Y-145072826D01*
X162091117Y-145260029D01*
X162139907Y-145355784D01*
X162180476Y-145435405D01*
X162296172Y-145594646D01*
X162435354Y-145733828D01*
X162594595Y-145849524D01*
X162677455Y-145891743D01*
X162769970Y-145938882D01*
X162769972Y-145938882D01*
X162769975Y-145938884D01*
X162870317Y-145971487D01*
X162957173Y-145999709D01*
X163151578Y-146030500D01*
X163151583Y-146030500D01*
X163348422Y-146030500D01*
X163542826Y-145999709D01*
X163730025Y-145938884D01*
X163905405Y-145849524D01*
X164064646Y-145733828D01*
X164203828Y-145594646D01*
X164319524Y-145435405D01*
X164408884Y-145260025D01*
X164469709Y-145072826D01*
X164500500Y-144878422D01*
X164500500Y-144681577D01*
X165779500Y-144681577D01*
X165779500Y-144878422D01*
X165810290Y-145072826D01*
X165871117Y-145260029D01*
X165919907Y-145355784D01*
X165960476Y-145435405D01*
X166076172Y-145594646D01*
X166215354Y-145733828D01*
X166374595Y-145849524D01*
X166457455Y-145891743D01*
X166549970Y-145938882D01*
X166549972Y-145938882D01*
X166549975Y-145938884D01*
X166650317Y-145971487D01*
X166737173Y-145999709D01*
X166931578Y-146030500D01*
X166931583Y-146030500D01*
X167128422Y-146030500D01*
X167322826Y-145999709D01*
X167510025Y-145938884D01*
X167685405Y-145849524D01*
X167844646Y-145733828D01*
X167983828Y-145594646D01*
X168099524Y-145435405D01*
X168188884Y-145260025D01*
X168249709Y-145072826D01*
X168280500Y-144878422D01*
X168280500Y-144681577D01*
X174779500Y-144681577D01*
X174779500Y-144878422D01*
X174810290Y-145072826D01*
X174871117Y-145260029D01*
X174919907Y-145355784D01*
X174960476Y-145435405D01*
X175076172Y-145594646D01*
X175215354Y-145733828D01*
X175374595Y-145849524D01*
X175457455Y-145891743D01*
X175549970Y-145938882D01*
X175549972Y-145938882D01*
X175549975Y-145938884D01*
X175650317Y-145971487D01*
X175737173Y-145999709D01*
X175931578Y-146030500D01*
X175931583Y-146030500D01*
X176128422Y-146030500D01*
X176322826Y-145999709D01*
X176510025Y-145938884D01*
X176685405Y-145849524D01*
X176844646Y-145733828D01*
X176983828Y-145594646D01*
X177099524Y-145435405D01*
X177188884Y-145260025D01*
X177249709Y-145072826D01*
X177280500Y-144878422D01*
X177280500Y-144681577D01*
X178439500Y-144681577D01*
X178439500Y-144878422D01*
X178470290Y-145072826D01*
X178531117Y-145260029D01*
X178579907Y-145355784D01*
X178620476Y-145435405D01*
X178736172Y-145594646D01*
X178875354Y-145733828D01*
X179034595Y-145849524D01*
X179117455Y-145891743D01*
X179209970Y-145938882D01*
X179209972Y-145938882D01*
X179209975Y-145938884D01*
X179310317Y-145971487D01*
X179397173Y-145999709D01*
X179591578Y-146030500D01*
X179591583Y-146030500D01*
X179788422Y-146030500D01*
X179982826Y-145999709D01*
X180170025Y-145938884D01*
X180345405Y-145849524D01*
X180504646Y-145733828D01*
X180643828Y-145594646D01*
X180759524Y-145435405D01*
X180848884Y-145260025D01*
X180909709Y-145072826D01*
X180940500Y-144878422D01*
X180940500Y-144681577D01*
X187439500Y-144681577D01*
X187439500Y-144878422D01*
X187470290Y-145072826D01*
X187531117Y-145260029D01*
X187579907Y-145355784D01*
X187620476Y-145435405D01*
X187736172Y-145594646D01*
X187875354Y-145733828D01*
X188034595Y-145849524D01*
X188117455Y-145891743D01*
X188209970Y-145938882D01*
X188209972Y-145938882D01*
X188209975Y-145938884D01*
X188310317Y-145971487D01*
X188397173Y-145999709D01*
X188591578Y-146030500D01*
X188591583Y-146030500D01*
X188788422Y-146030500D01*
X188982826Y-145999709D01*
X189170025Y-145938884D01*
X189345405Y-145849524D01*
X189504646Y-145733828D01*
X189643828Y-145594646D01*
X189759524Y-145435405D01*
X189848884Y-145260025D01*
X189909709Y-145072826D01*
X189940500Y-144878422D01*
X189940500Y-144681577D01*
X191099500Y-144681577D01*
X191099500Y-144878422D01*
X191130290Y-145072826D01*
X191191117Y-145260029D01*
X191239907Y-145355784D01*
X191280476Y-145435405D01*
X191396172Y-145594646D01*
X191535354Y-145733828D01*
X191694595Y-145849524D01*
X191777455Y-145891743D01*
X191869970Y-145938882D01*
X191869972Y-145938882D01*
X191869975Y-145938884D01*
X191970317Y-145971487D01*
X192057173Y-145999709D01*
X192251578Y-146030500D01*
X192251583Y-146030500D01*
X192448422Y-146030500D01*
X192642826Y-145999709D01*
X192830025Y-145938884D01*
X193005405Y-145849524D01*
X193164646Y-145733828D01*
X193303828Y-145594646D01*
X193419524Y-145435405D01*
X193508884Y-145260025D01*
X193569709Y-145072826D01*
X193600500Y-144878422D01*
X193600500Y-144681577D01*
X193569709Y-144487173D01*
X193508882Y-144299970D01*
X193419523Y-144124594D01*
X193303828Y-143965354D01*
X193164646Y-143826172D01*
X193005405Y-143710476D01*
X192830029Y-143621117D01*
X192642826Y-143560290D01*
X192448422Y-143529500D01*
X192448417Y-143529500D01*
X192251583Y-143529500D01*
X192251578Y-143529500D01*
X192057173Y-143560290D01*
X191869970Y-143621117D01*
X191694594Y-143710476D01*
X191603741Y-143776485D01*
X191535354Y-143826172D01*
X191535352Y-143826174D01*
X191535351Y-143826174D01*
X191396174Y-143965351D01*
X191396174Y-143965352D01*
X191396172Y-143965354D01*
X191346485Y-144033741D01*
X191280476Y-144124594D01*
X191191117Y-144299970D01*
X191130290Y-144487173D01*
X191099500Y-144681577D01*
X189940500Y-144681577D01*
X189909709Y-144487173D01*
X189848882Y-144299970D01*
X189759523Y-144124594D01*
X189643828Y-143965354D01*
X189504646Y-143826172D01*
X189345405Y-143710476D01*
X189170029Y-143621117D01*
X188982826Y-143560290D01*
X188788422Y-143529500D01*
X188788417Y-143529500D01*
X188591583Y-143529500D01*
X188591578Y-143529500D01*
X188397173Y-143560290D01*
X188209970Y-143621117D01*
X188034594Y-143710476D01*
X187943741Y-143776485D01*
X187875354Y-143826172D01*
X187875352Y-143826174D01*
X187875351Y-143826174D01*
X187736174Y-143965351D01*
X187736174Y-143965352D01*
X187736172Y-143965354D01*
X187686485Y-144033741D01*
X187620476Y-144124594D01*
X187531117Y-144299970D01*
X187470290Y-144487173D01*
X187439500Y-144681577D01*
X180940500Y-144681577D01*
X180909709Y-144487173D01*
X180848882Y-144299970D01*
X180759523Y-144124594D01*
X180643828Y-143965354D01*
X180504646Y-143826172D01*
X180345405Y-143710476D01*
X180170029Y-143621117D01*
X179982826Y-143560290D01*
X179788422Y-143529500D01*
X179788417Y-143529500D01*
X179591583Y-143529500D01*
X179591578Y-143529500D01*
X179397173Y-143560290D01*
X179209970Y-143621117D01*
X179034594Y-143710476D01*
X178943741Y-143776485D01*
X178875354Y-143826172D01*
X178875352Y-143826174D01*
X178875351Y-143826174D01*
X178736174Y-143965351D01*
X178736174Y-143965352D01*
X178736172Y-143965354D01*
X178686485Y-144033741D01*
X178620476Y-144124594D01*
X178531117Y-144299970D01*
X178470290Y-144487173D01*
X178439500Y-144681577D01*
X177280500Y-144681577D01*
X177249709Y-144487173D01*
X177188882Y-144299970D01*
X177099523Y-144124594D01*
X176983828Y-143965354D01*
X176844646Y-143826172D01*
X176685405Y-143710476D01*
X176510029Y-143621117D01*
X176322826Y-143560290D01*
X176128422Y-143529500D01*
X176128417Y-143529500D01*
X175931583Y-143529500D01*
X175931578Y-143529500D01*
X175737173Y-143560290D01*
X175549970Y-143621117D01*
X175374594Y-143710476D01*
X175283741Y-143776485D01*
X175215354Y-143826172D01*
X175215352Y-143826174D01*
X175215351Y-143826174D01*
X175076174Y-143965351D01*
X175076174Y-143965352D01*
X175076172Y-143965354D01*
X175026485Y-144033741D01*
X174960476Y-144124594D01*
X174871117Y-144299970D01*
X174810290Y-144487173D01*
X174779500Y-144681577D01*
X168280500Y-144681577D01*
X168249709Y-144487173D01*
X168188882Y-144299970D01*
X168099523Y-144124594D01*
X167983828Y-143965354D01*
X167844646Y-143826172D01*
X167685405Y-143710476D01*
X167510029Y-143621117D01*
X167322826Y-143560290D01*
X167128422Y-143529500D01*
X167128417Y-143529500D01*
X166931583Y-143529500D01*
X166931578Y-143529500D01*
X166737173Y-143560290D01*
X166549970Y-143621117D01*
X166374594Y-143710476D01*
X166283741Y-143776485D01*
X166215354Y-143826172D01*
X166215352Y-143826174D01*
X166215351Y-143826174D01*
X166076174Y-143965351D01*
X166076174Y-143965352D01*
X166076172Y-143965354D01*
X166026485Y-144033741D01*
X165960476Y-144124594D01*
X165871117Y-144299970D01*
X165810290Y-144487173D01*
X165779500Y-144681577D01*
X164500500Y-144681577D01*
X164469709Y-144487173D01*
X164408882Y-144299970D01*
X164319523Y-144124594D01*
X164203828Y-143965354D01*
X164064646Y-143826172D01*
X163905405Y-143710476D01*
X163730029Y-143621117D01*
X163542826Y-143560290D01*
X163348422Y-143529500D01*
X163348417Y-143529500D01*
X163151583Y-143529500D01*
X163151578Y-143529500D01*
X162957173Y-143560290D01*
X162769970Y-143621117D01*
X162594594Y-143710476D01*
X162503741Y-143776485D01*
X162435354Y-143826172D01*
X162435352Y-143826174D01*
X162435351Y-143826174D01*
X162296174Y-143965351D01*
X162296174Y-143965352D01*
X162296172Y-143965354D01*
X162246485Y-144033741D01*
X162180476Y-144124594D01*
X162091117Y-144299970D01*
X162030290Y-144487173D01*
X161999500Y-144681577D01*
X155500500Y-144681577D01*
X155469709Y-144487173D01*
X155408882Y-144299970D01*
X155319523Y-144124594D01*
X155203828Y-143965354D01*
X155064646Y-143826172D01*
X154905405Y-143710476D01*
X154730029Y-143621117D01*
X154542826Y-143560290D01*
X154348422Y-143529500D01*
X154348417Y-143529500D01*
X154151583Y-143529500D01*
X154151578Y-143529500D01*
X153957173Y-143560290D01*
X153769970Y-143621117D01*
X153594594Y-143710476D01*
X153503741Y-143776485D01*
X153435354Y-143826172D01*
X153435352Y-143826174D01*
X153435351Y-143826174D01*
X153296174Y-143965351D01*
X153296174Y-143965352D01*
X153296172Y-143965354D01*
X153246485Y-144033741D01*
X153180476Y-144124594D01*
X153091117Y-144299970D01*
X153030290Y-144487173D01*
X152999500Y-144681577D01*
X151800500Y-144681577D01*
X151769709Y-144487173D01*
X151708882Y-144299970D01*
X151619523Y-144124594D01*
X151503828Y-143965354D01*
X151364646Y-143826172D01*
X151205405Y-143710476D01*
X151030029Y-143621117D01*
X150842826Y-143560290D01*
X150648422Y-143529500D01*
X150648417Y-143529500D01*
X150451583Y-143529500D01*
X150451578Y-143529500D01*
X150257173Y-143560290D01*
X150069970Y-143621117D01*
X149894594Y-143710476D01*
X149803741Y-143776485D01*
X149735354Y-143826172D01*
X149735352Y-143826174D01*
X149735351Y-143826174D01*
X149596174Y-143965351D01*
X149596174Y-143965352D01*
X149596172Y-143965354D01*
X149546485Y-144033741D01*
X149480476Y-144124594D01*
X149391117Y-144299970D01*
X149330290Y-144487173D01*
X149299500Y-144681577D01*
X142800500Y-144681577D01*
X142769709Y-144487173D01*
X142708882Y-144299970D01*
X142619523Y-144124594D01*
X142503828Y-143965354D01*
X142364646Y-143826172D01*
X142205405Y-143710476D01*
X142030029Y-143621117D01*
X141842826Y-143560290D01*
X141648422Y-143529500D01*
X141648417Y-143529500D01*
X141451583Y-143529500D01*
X141451578Y-143529500D01*
X141257173Y-143560290D01*
X141069970Y-143621117D01*
X140894594Y-143710476D01*
X140803741Y-143776485D01*
X140735354Y-143826172D01*
X140735352Y-143826174D01*
X140735351Y-143826174D01*
X140596174Y-143965351D01*
X140596174Y-143965352D01*
X140596172Y-143965354D01*
X140546485Y-144033741D01*
X140480476Y-144124594D01*
X140391117Y-144299970D01*
X140330290Y-144487173D01*
X140299500Y-144681577D01*
X139180500Y-144681577D01*
X139149709Y-144487173D01*
X139088882Y-144299970D01*
X138999523Y-144124594D01*
X138883828Y-143965354D01*
X138744646Y-143826172D01*
X138585405Y-143710476D01*
X138410029Y-143621117D01*
X138222826Y-143560290D01*
X138028422Y-143529500D01*
X138028417Y-143529500D01*
X137831583Y-143529500D01*
X137831578Y-143529500D01*
X137637173Y-143560290D01*
X137449970Y-143621117D01*
X137274594Y-143710476D01*
X137183741Y-143776485D01*
X137115354Y-143826172D01*
X137115352Y-143826174D01*
X137115351Y-143826174D01*
X136976174Y-143965351D01*
X136976174Y-143965352D01*
X136976172Y-143965354D01*
X136926485Y-144033741D01*
X136860476Y-144124594D01*
X136771117Y-144299970D01*
X136710290Y-144487173D01*
X136679500Y-144681577D01*
X130180500Y-144681577D01*
X130149709Y-144487173D01*
X130088882Y-144299970D01*
X129999523Y-144124594D01*
X129883828Y-143965354D01*
X129744646Y-143826172D01*
X129585405Y-143710476D01*
X129410029Y-143621117D01*
X129222826Y-143560290D01*
X129028422Y-143529500D01*
X129028417Y-143529500D01*
X128831583Y-143529500D01*
X128831578Y-143529500D01*
X128637173Y-143560290D01*
X128449970Y-143621117D01*
X128274594Y-143710476D01*
X128183741Y-143776485D01*
X128115354Y-143826172D01*
X128115352Y-143826174D01*
X128115351Y-143826174D01*
X127976174Y-143965351D01*
X127976174Y-143965352D01*
X127976172Y-143965354D01*
X127926485Y-144033741D01*
X127860476Y-144124594D01*
X127771117Y-144299970D01*
X127710290Y-144487173D01*
X127679500Y-144681577D01*
X126480500Y-144681577D01*
X126449709Y-144487173D01*
X126388882Y-144299970D01*
X126299523Y-144124594D01*
X126183828Y-143965354D01*
X126044646Y-143826172D01*
X125885405Y-143710476D01*
X125710029Y-143621117D01*
X125522826Y-143560290D01*
X125328422Y-143529500D01*
X125328417Y-143529500D01*
X125131583Y-143529500D01*
X125131578Y-143529500D01*
X124937173Y-143560290D01*
X124749970Y-143621117D01*
X124574594Y-143710476D01*
X124483741Y-143776485D01*
X124415354Y-143826172D01*
X124415352Y-143826174D01*
X124415351Y-143826174D01*
X124276174Y-143965351D01*
X124276174Y-143965352D01*
X124276172Y-143965354D01*
X124226485Y-144033741D01*
X124160476Y-144124594D01*
X124071117Y-144299970D01*
X124010290Y-144487173D01*
X123979500Y-144681577D01*
X117480500Y-144681577D01*
X117449709Y-144487173D01*
X117388882Y-144299970D01*
X117299523Y-144124594D01*
X117183828Y-143965354D01*
X117044646Y-143826172D01*
X116885405Y-143710476D01*
X116710029Y-143621117D01*
X116522826Y-143560290D01*
X116328422Y-143529500D01*
X116328417Y-143529500D01*
X116131583Y-143529500D01*
X116131578Y-143529500D01*
X115937173Y-143560290D01*
X115749970Y-143621117D01*
X115574594Y-143710476D01*
X115483741Y-143776485D01*
X115415354Y-143826172D01*
X115415352Y-143826174D01*
X115415351Y-143826174D01*
X115276174Y-143965351D01*
X115276174Y-143965352D01*
X115276172Y-143965354D01*
X115226485Y-144033741D01*
X115160476Y-144124594D01*
X115071117Y-144299970D01*
X115010290Y-144487173D01*
X114979500Y-144681577D01*
X113700500Y-144681577D01*
X113669709Y-144487173D01*
X113608882Y-144299970D01*
X113519523Y-144124594D01*
X113403828Y-143965354D01*
X113264646Y-143826172D01*
X113105405Y-143710476D01*
X112930029Y-143621117D01*
X112742826Y-143560290D01*
X112548422Y-143529500D01*
X112548417Y-143529500D01*
X112351583Y-143529500D01*
X112351578Y-143529500D01*
X112157173Y-143560290D01*
X111969970Y-143621117D01*
X111794594Y-143710476D01*
X111703741Y-143776485D01*
X111635354Y-143826172D01*
X111635352Y-143826174D01*
X111635351Y-143826174D01*
X111496174Y-143965351D01*
X111496174Y-143965352D01*
X111496172Y-143965354D01*
X111446485Y-144033741D01*
X111380476Y-144124594D01*
X111291117Y-144299970D01*
X111230290Y-144487173D01*
X111199500Y-144681577D01*
X104700500Y-144681577D01*
X104669709Y-144487173D01*
X104608882Y-144299970D01*
X104519523Y-144124594D01*
X104403828Y-143965354D01*
X104264646Y-143826172D01*
X104105405Y-143710476D01*
X103930029Y-143621117D01*
X103742826Y-143560290D01*
X103548422Y-143529500D01*
X103548417Y-143529500D01*
X103351583Y-143529500D01*
X103351578Y-143529500D01*
X103157173Y-143560290D01*
X102969970Y-143621117D01*
X102794594Y-143710476D01*
X102703741Y-143776485D01*
X102635354Y-143826172D01*
X102635352Y-143826174D01*
X102635351Y-143826174D01*
X102496174Y-143965351D01*
X102496174Y-143965352D01*
X102496172Y-143965354D01*
X102446485Y-144033741D01*
X102380476Y-144124594D01*
X102334985Y-144213876D01*
X102287010Y-144264672D01*
X102219189Y-144281467D01*
X102153054Y-144258930D01*
X102109603Y-144204214D01*
X102100500Y-144157581D01*
X102100500Y-134252902D01*
X108989500Y-134252902D01*
X108989500Y-134489097D01*
X109026446Y-134722368D01*
X109099433Y-134946996D01*
X109206657Y-135157433D01*
X109345483Y-135348510D01*
X109512490Y-135515517D01*
X109703567Y-135654343D01*
X109802991Y-135705002D01*
X109914003Y-135761566D01*
X109914005Y-135761566D01*
X109914008Y-135761568D01*
X110034412Y-135800689D01*
X110138631Y-135834553D01*
X110371903Y-135871500D01*
X110371908Y-135871500D01*
X110608097Y-135871500D01*
X110841368Y-135834553D01*
X111065992Y-135761568D01*
X111276433Y-135654343D01*
X111467510Y-135515517D01*
X111634517Y-135348510D01*
X111773343Y-135157433D01*
X111880568Y-134946992D01*
X111953553Y-134722368D01*
X111990500Y-134489097D01*
X111990500Y-134252902D01*
X111953553Y-134019631D01*
X111880566Y-133795003D01*
X111773342Y-133584566D01*
X111770002Y-133579969D01*
X111634517Y-133393490D01*
X111467510Y-133226483D01*
X111276433Y-133087657D01*
X111065996Y-132980433D01*
X110841368Y-132907446D01*
X110608097Y-132870500D01*
X110608092Y-132870500D01*
X110371908Y-132870500D01*
X110371903Y-132870500D01*
X110138631Y-132907446D01*
X109914003Y-132980433D01*
X109703566Y-133087657D01*
X109594550Y-133166862D01*
X109512490Y-133226483D01*
X109512488Y-133226485D01*
X109512487Y-133226485D01*
X109345485Y-133393487D01*
X109345485Y-133393488D01*
X109345483Y-133393490D01*
X109285862Y-133475550D01*
X109206657Y-133584566D01*
X109099433Y-133795003D01*
X109026446Y-134019631D01*
X108989500Y-134252902D01*
X102100500Y-134252902D01*
X102100500Y-103772902D01*
X108989500Y-103772902D01*
X108989500Y-104009097D01*
X109026446Y-104242368D01*
X109099433Y-104466996D01*
X109187957Y-104640733D01*
X109200442Y-104681082D01*
X109385713Y-106109819D01*
X109386747Y-106114643D01*
X109389500Y-106140626D01*
X109389500Y-121584389D01*
X109389500Y-121757611D01*
X109416598Y-121928701D01*
X109470127Y-122093445D01*
X109548768Y-122247788D01*
X109650586Y-122387928D01*
X109650588Y-122387930D01*
X120821242Y-133558584D01*
X120838351Y-133579969D01*
X120840203Y-133582897D01*
X120840205Y-133582900D01*
X121719474Y-134724184D01*
X121739175Y-134761543D01*
X121799432Y-134946992D01*
X121906657Y-135157433D01*
X122045483Y-135348510D01*
X122212490Y-135515517D01*
X122403567Y-135654343D01*
X122502991Y-135705002D01*
X122614003Y-135761566D01*
X122614005Y-135761566D01*
X122614008Y-135761568D01*
X122734412Y-135800689D01*
X122838631Y-135834553D01*
X123071903Y-135871500D01*
X123071908Y-135871500D01*
X123308097Y-135871500D01*
X123541368Y-135834553D01*
X123765992Y-135761568D01*
X123976433Y-135654343D01*
X124167510Y-135515517D01*
X124334517Y-135348510D01*
X124473343Y-135157433D01*
X124580568Y-134946992D01*
X124653553Y-134722368D01*
X124690500Y-134489097D01*
X124690500Y-134252902D01*
X124653553Y-134019631D01*
X124580566Y-133795003D01*
X124473342Y-133584566D01*
X124470002Y-133579969D01*
X124334517Y-133393490D01*
X124167510Y-133226483D01*
X123976433Y-133087657D01*
X123765992Y-132980432D01*
X123580543Y-132920175D01*
X123543185Y-132900474D01*
X122401901Y-132021205D01*
X122401900Y-132021204D01*
X122397757Y-132018524D01*
X122377441Y-132002099D01*
X111626819Y-121251477D01*
X111593334Y-121190154D01*
X111590500Y-121163796D01*
X111590500Y-106140426D01*
X111593524Y-106113207D01*
X111594280Y-106109839D01*
X111594285Y-106109826D01*
X111779556Y-104681080D01*
X111792038Y-104640740D01*
X111880568Y-104466992D01*
X111953553Y-104242368D01*
X111990500Y-104009097D01*
X111990500Y-103772902D01*
X121689500Y-103772902D01*
X121689500Y-104009097D01*
X121726446Y-104242368D01*
X121799433Y-104466996D01*
X121887957Y-104640733D01*
X121900442Y-104681082D01*
X122085713Y-106109819D01*
X122086747Y-106114643D01*
X122089500Y-106140626D01*
X122089500Y-121584389D01*
X122089500Y-121757611D01*
X122116598Y-121928701D01*
X122170127Y-122093445D01*
X122248768Y-122247788D01*
X122350586Y-122387928D01*
X122350588Y-122387930D01*
X133521242Y-133558584D01*
X133538351Y-133579969D01*
X133540203Y-133582897D01*
X133540205Y-133582900D01*
X134419474Y-134724184D01*
X134439175Y-134761543D01*
X134499432Y-134946992D01*
X134606657Y-135157433D01*
X134745483Y-135348510D01*
X134912490Y-135515517D01*
X135103567Y-135654343D01*
X135202991Y-135705002D01*
X135314003Y-135761566D01*
X135314005Y-135761566D01*
X135314008Y-135761568D01*
X135434412Y-135800689D01*
X135538631Y-135834553D01*
X135771903Y-135871500D01*
X135771908Y-135871500D01*
X136008097Y-135871500D01*
X136241368Y-135834553D01*
X136465992Y-135761568D01*
X136676433Y-135654343D01*
X136867510Y-135515517D01*
X137034517Y-135348510D01*
X137173343Y-135157433D01*
X137280568Y-134946992D01*
X137353553Y-134722368D01*
X137390500Y-134489097D01*
X137390500Y-134252902D01*
X137353553Y-134019631D01*
X137280566Y-133795003D01*
X137173342Y-133584566D01*
X137170002Y-133579969D01*
X137034517Y-133393490D01*
X136867510Y-133226483D01*
X136676433Y-133087657D01*
X136465992Y-132980432D01*
X136280543Y-132920175D01*
X136243185Y-132900474D01*
X135101901Y-132021205D01*
X135101900Y-132021204D01*
X135097757Y-132018524D01*
X135077441Y-132002099D01*
X124326819Y-121251477D01*
X124293334Y-121190154D01*
X124290500Y-121163796D01*
X124290500Y-106140426D01*
X124293524Y-106113207D01*
X124294280Y-106109839D01*
X124294285Y-106109826D01*
X124479556Y-104681080D01*
X124492038Y-104640740D01*
X124580568Y-104466992D01*
X124653553Y-104242368D01*
X124690500Y-104009097D01*
X124690500Y-103772902D01*
X134389500Y-103772902D01*
X134389500Y-104009097D01*
X134426446Y-104242368D01*
X134499433Y-104466996D01*
X134587957Y-104640733D01*
X134600442Y-104681082D01*
X134785713Y-106109819D01*
X134786747Y-106114643D01*
X134789500Y-106140626D01*
X134789500Y-121584389D01*
X134789500Y-121757611D01*
X134816598Y-121928701D01*
X134870127Y-122093445D01*
X134948768Y-122247788D01*
X135050586Y-122387928D01*
X135050588Y-122387930D01*
X146221242Y-133558584D01*
X146238351Y-133579969D01*
X146240203Y-133582897D01*
X146240205Y-133582900D01*
X147119474Y-134724184D01*
X147139175Y-134761543D01*
X147199432Y-134946992D01*
X147306657Y-135157433D01*
X147445483Y-135348510D01*
X147612490Y-135515517D01*
X147803567Y-135654343D01*
X147902991Y-135705002D01*
X148014003Y-135761566D01*
X148014005Y-135761566D01*
X148014008Y-135761568D01*
X148134412Y-135800689D01*
X148238631Y-135834553D01*
X148471903Y-135871500D01*
X148471908Y-135871500D01*
X148708097Y-135871500D01*
X148941368Y-135834553D01*
X149165992Y-135761568D01*
X149376433Y-135654343D01*
X149567510Y-135515517D01*
X149734517Y-135348510D01*
X149873343Y-135157433D01*
X149980568Y-134946992D01*
X150053553Y-134722368D01*
X150090500Y-134489097D01*
X150090500Y-134252902D01*
X150053553Y-134019631D01*
X149980566Y-133795003D01*
X149873342Y-133584566D01*
X149870002Y-133579969D01*
X149734517Y-133393490D01*
X149567510Y-133226483D01*
X149376433Y-133087657D01*
X149165992Y-132980432D01*
X148980543Y-132920175D01*
X148943185Y-132900474D01*
X147801901Y-132021205D01*
X147801900Y-132021204D01*
X147797757Y-132018524D01*
X147777441Y-132002099D01*
X137026819Y-121251477D01*
X136993334Y-121190154D01*
X136990500Y-121163796D01*
X136990500Y-106140426D01*
X136993524Y-106113207D01*
X136994280Y-106109839D01*
X136994285Y-106109826D01*
X137179556Y-104681080D01*
X137192038Y-104640740D01*
X137280568Y-104466992D01*
X137353553Y-104242368D01*
X137390500Y-104009097D01*
X137390500Y-103772902D01*
X147089500Y-103772902D01*
X147089500Y-104009097D01*
X147126446Y-104242368D01*
X147199433Y-104466996D01*
X147287957Y-104640733D01*
X147300442Y-104681082D01*
X147485713Y-106109819D01*
X147486747Y-106114643D01*
X147489500Y-106140626D01*
X147489500Y-121584389D01*
X147489500Y-121757611D01*
X147516598Y-121928701D01*
X147570127Y-122093445D01*
X147648768Y-122247788D01*
X147750586Y-122387928D01*
X147750588Y-122387930D01*
X158921242Y-133558584D01*
X158938351Y-133579969D01*
X158940203Y-133582897D01*
X158940205Y-133582900D01*
X159819474Y-134724184D01*
X159839175Y-134761543D01*
X159899432Y-134946992D01*
X160006657Y-135157433D01*
X160145483Y-135348510D01*
X160312490Y-135515517D01*
X160503567Y-135654343D01*
X160602991Y-135705002D01*
X160714003Y-135761566D01*
X160714005Y-135761566D01*
X160714008Y-135761568D01*
X160834412Y-135800689D01*
X160938631Y-135834553D01*
X161171903Y-135871500D01*
X161171908Y-135871500D01*
X161408097Y-135871500D01*
X161641368Y-135834553D01*
X161865992Y-135761568D01*
X162076433Y-135654343D01*
X162267510Y-135515517D01*
X162434517Y-135348510D01*
X162573343Y-135157433D01*
X162680568Y-134946992D01*
X162753553Y-134722368D01*
X162790500Y-134489097D01*
X162790500Y-134252902D01*
X162753553Y-134019631D01*
X162680566Y-133795003D01*
X162573342Y-133584566D01*
X162570002Y-133579969D01*
X162434517Y-133393490D01*
X162267510Y-133226483D01*
X162076433Y-133087657D01*
X161865992Y-132980432D01*
X161680543Y-132920175D01*
X161643185Y-132900474D01*
X160501901Y-132021205D01*
X160501900Y-132021204D01*
X160497757Y-132018524D01*
X160477441Y-132002099D01*
X149726819Y-121251477D01*
X149693334Y-121190154D01*
X149690500Y-121163796D01*
X149690500Y-106140426D01*
X149693524Y-106113207D01*
X149694280Y-106109839D01*
X149694285Y-106109826D01*
X149879556Y-104681080D01*
X149892038Y-104640740D01*
X149980568Y-104466992D01*
X150053553Y-104242368D01*
X150090500Y-104009097D01*
X150090500Y-103772902D01*
X159789500Y-103772902D01*
X159789500Y-104009097D01*
X159826446Y-104242368D01*
X159899433Y-104466996D01*
X159987957Y-104640733D01*
X160000442Y-104681082D01*
X160185713Y-106109819D01*
X160186747Y-106114643D01*
X160189500Y-106140626D01*
X160189500Y-121584389D01*
X160189500Y-121757611D01*
X160216598Y-121928701D01*
X160270127Y-122093445D01*
X160348768Y-122247788D01*
X160450586Y-122387928D01*
X160450588Y-122387930D01*
X171621242Y-133558584D01*
X171638351Y-133579969D01*
X171640203Y-133582897D01*
X171640205Y-133582900D01*
X172519474Y-134724184D01*
X172539175Y-134761543D01*
X172599432Y-134946992D01*
X172706657Y-135157433D01*
X172845483Y-135348510D01*
X173012490Y-135515517D01*
X173203567Y-135654343D01*
X173302991Y-135705002D01*
X173414003Y-135761566D01*
X173414005Y-135761566D01*
X173414008Y-135761568D01*
X173534412Y-135800689D01*
X173638631Y-135834553D01*
X173871903Y-135871500D01*
X173871908Y-135871500D01*
X174108097Y-135871500D01*
X174341368Y-135834553D01*
X174565992Y-135761568D01*
X174776433Y-135654343D01*
X174967510Y-135515517D01*
X175134517Y-135348510D01*
X175273343Y-135157433D01*
X175380568Y-134946992D01*
X175453553Y-134722368D01*
X175490500Y-134489097D01*
X175490500Y-134252902D01*
X175453553Y-134019631D01*
X175380566Y-133795003D01*
X175273342Y-133584566D01*
X175270002Y-133579969D01*
X175134517Y-133393490D01*
X174967510Y-133226483D01*
X174776433Y-133087657D01*
X174565992Y-132980432D01*
X174380543Y-132920175D01*
X174343185Y-132900474D01*
X173201901Y-132021205D01*
X173201900Y-132021204D01*
X173197757Y-132018524D01*
X173177441Y-132002099D01*
X162426819Y-121251477D01*
X162393334Y-121190154D01*
X162390500Y-121163796D01*
X162390500Y-106140426D01*
X162393524Y-106113207D01*
X162394280Y-106109839D01*
X162394285Y-106109826D01*
X162579556Y-104681080D01*
X162592038Y-104640740D01*
X162680568Y-104466992D01*
X162753553Y-104242368D01*
X162790500Y-104009097D01*
X162790500Y-103772902D01*
X172489500Y-103772902D01*
X172489500Y-104009097D01*
X172526446Y-104242368D01*
X172599433Y-104466996D01*
X172687957Y-104640733D01*
X172700442Y-104681082D01*
X172885713Y-106109819D01*
X172886747Y-106114643D01*
X172889500Y-106140626D01*
X172889500Y-121584389D01*
X172889500Y-121757611D01*
X172916598Y-121928701D01*
X172970127Y-122093445D01*
X173048768Y-122247788D01*
X173150586Y-122387928D01*
X173150588Y-122387930D01*
X184321242Y-133558584D01*
X184338351Y-133579969D01*
X184340203Y-133582897D01*
X184340205Y-133582900D01*
X185219474Y-134724184D01*
X185239175Y-134761543D01*
X185299432Y-134946992D01*
X185406657Y-135157433D01*
X185545483Y-135348510D01*
X185712490Y-135515517D01*
X185903567Y-135654343D01*
X186002991Y-135705002D01*
X186114003Y-135761566D01*
X186114005Y-135761566D01*
X186114008Y-135761568D01*
X186234412Y-135800689D01*
X186338631Y-135834553D01*
X186571903Y-135871500D01*
X186571908Y-135871500D01*
X186808097Y-135871500D01*
X187041368Y-135834553D01*
X187265992Y-135761568D01*
X187476433Y-135654343D01*
X187667510Y-135515517D01*
X187834517Y-135348510D01*
X187973343Y-135157433D01*
X188080568Y-134946992D01*
X188153553Y-134722368D01*
X188190500Y-134489097D01*
X188190500Y-134252902D01*
X188153553Y-134019631D01*
X188080566Y-133795003D01*
X187973342Y-133584566D01*
X187970002Y-133579969D01*
X187834517Y-133393490D01*
X187667510Y-133226483D01*
X187476433Y-133087657D01*
X187265992Y-132980432D01*
X187080543Y-132920175D01*
X187043185Y-132900474D01*
X185901901Y-132021205D01*
X185901900Y-132021204D01*
X185897757Y-132018524D01*
X185877441Y-132002099D01*
X175126819Y-121251477D01*
X175093334Y-121190154D01*
X175090500Y-121163796D01*
X175090500Y-106140426D01*
X175093524Y-106113207D01*
X175094280Y-106109839D01*
X175094285Y-106109826D01*
X175279556Y-104681080D01*
X175292038Y-104640740D01*
X175380568Y-104466992D01*
X175453553Y-104242368D01*
X175490500Y-104009097D01*
X175490500Y-103772902D01*
X185189500Y-103772902D01*
X185189500Y-104009097D01*
X185226446Y-104242368D01*
X185299433Y-104466996D01*
X185387957Y-104640733D01*
X185400442Y-104681082D01*
X185585713Y-106109819D01*
X185586747Y-106114643D01*
X185589500Y-106140626D01*
X185589500Y-121584389D01*
X185589500Y-121757611D01*
X185616598Y-121928701D01*
X185670127Y-122093445D01*
X185748768Y-122247788D01*
X185850586Y-122387928D01*
X185850588Y-122387930D01*
X197021242Y-133558584D01*
X197038351Y-133579969D01*
X197040203Y-133582897D01*
X197040205Y-133582900D01*
X197919474Y-134724184D01*
X197939175Y-134761543D01*
X197999432Y-134946992D01*
X198106657Y-135157433D01*
X198245483Y-135348510D01*
X198412490Y-135515517D01*
X198603567Y-135654343D01*
X198702991Y-135705002D01*
X198814003Y-135761566D01*
X198814005Y-135761566D01*
X198814008Y-135761568D01*
X198934412Y-135800689D01*
X199038631Y-135834553D01*
X199271903Y-135871500D01*
X199271908Y-135871500D01*
X199508097Y-135871500D01*
X199741368Y-135834553D01*
X199965992Y-135761568D01*
X200176433Y-135654343D01*
X200367510Y-135515517D01*
X200534517Y-135348510D01*
X200673343Y-135157433D01*
X200780568Y-134946992D01*
X200853553Y-134722368D01*
X200890500Y-134489097D01*
X200890500Y-134252902D01*
X200853553Y-134019631D01*
X200780566Y-133795003D01*
X200673342Y-133584566D01*
X200670002Y-133579969D01*
X200534517Y-133393490D01*
X200367510Y-133226483D01*
X200176433Y-133087657D01*
X199965992Y-132980432D01*
X199780543Y-132920175D01*
X199743185Y-132900474D01*
X198601901Y-132021205D01*
X198601900Y-132021204D01*
X198597757Y-132018524D01*
X198577441Y-132002099D01*
X187826819Y-121251477D01*
X187793334Y-121190154D01*
X187790500Y-121163796D01*
X187790500Y-106140426D01*
X187793524Y-106113207D01*
X187794280Y-106109839D01*
X187794285Y-106109826D01*
X187979556Y-104681080D01*
X187992038Y-104640740D01*
X188080568Y-104466992D01*
X188153553Y-104242368D01*
X188190500Y-104009097D01*
X188190500Y-103772902D01*
X197889500Y-103772902D01*
X197889500Y-104009097D01*
X197926446Y-104242368D01*
X197999433Y-104466996D01*
X198087957Y-104640733D01*
X198106657Y-104677433D01*
X198245483Y-104868510D01*
X198412490Y-105035517D01*
X198603567Y-105174343D01*
X198702991Y-105225002D01*
X198814003Y-105281566D01*
X198814005Y-105281566D01*
X198814008Y-105281568D01*
X198934412Y-105320689D01*
X199038631Y-105354553D01*
X199271903Y-105391500D01*
X199271908Y-105391500D01*
X199508097Y-105391500D01*
X199741368Y-105354553D01*
X199965992Y-105281568D01*
X200176433Y-105174343D01*
X200367510Y-105035517D01*
X200534517Y-104868510D01*
X200673343Y-104677433D01*
X200780568Y-104466992D01*
X200853553Y-104242368D01*
X200890500Y-104009097D01*
X200890500Y-103772902D01*
X200853553Y-103539631D01*
X200780566Y-103315003D01*
X200673342Y-103104566D01*
X200534517Y-102913490D01*
X200367510Y-102746483D01*
X200176433Y-102607657D01*
X199965996Y-102500433D01*
X199741368Y-102427446D01*
X199508097Y-102390500D01*
X199508092Y-102390500D01*
X199271908Y-102390500D01*
X199271903Y-102390500D01*
X199038631Y-102427446D01*
X198814003Y-102500433D01*
X198603566Y-102607657D01*
X198539093Y-102654500D01*
X198412490Y-102746483D01*
X198412488Y-102746485D01*
X198412487Y-102746485D01*
X198245485Y-102913487D01*
X198245485Y-102913488D01*
X198245483Y-102913490D01*
X198185862Y-102995550D01*
X198106657Y-103104566D01*
X197999433Y-103315003D01*
X197926446Y-103539631D01*
X197889500Y-103772902D01*
X188190500Y-103772902D01*
X188153553Y-103539631D01*
X188080566Y-103315003D01*
X187973342Y-103104566D01*
X187834517Y-102913490D01*
X187667510Y-102746483D01*
X187476433Y-102607657D01*
X187265996Y-102500433D01*
X187041368Y-102427446D01*
X186808097Y-102390500D01*
X186808092Y-102390500D01*
X186571908Y-102390500D01*
X186571903Y-102390500D01*
X186338631Y-102427446D01*
X186114003Y-102500433D01*
X185903566Y-102607657D01*
X185839093Y-102654500D01*
X185712490Y-102746483D01*
X185712488Y-102746485D01*
X185712487Y-102746485D01*
X185545485Y-102913487D01*
X185545485Y-102913488D01*
X185545483Y-102913490D01*
X185485862Y-102995550D01*
X185406657Y-103104566D01*
X185299433Y-103315003D01*
X185226446Y-103539631D01*
X185189500Y-103772902D01*
X175490500Y-103772902D01*
X175453553Y-103539631D01*
X175380566Y-103315003D01*
X175273342Y-103104566D01*
X175134517Y-102913490D01*
X174967510Y-102746483D01*
X174776433Y-102607657D01*
X174565996Y-102500433D01*
X174341368Y-102427446D01*
X174108097Y-102390500D01*
X174108092Y-102390500D01*
X173871908Y-102390500D01*
X173871903Y-102390500D01*
X173638631Y-102427446D01*
X173414003Y-102500433D01*
X173203566Y-102607657D01*
X173139093Y-102654500D01*
X173012490Y-102746483D01*
X173012488Y-102746485D01*
X173012487Y-102746485D01*
X172845485Y-102913487D01*
X172845485Y-102913488D01*
X172845483Y-102913490D01*
X172785862Y-102995550D01*
X172706657Y-103104566D01*
X172599433Y-103315003D01*
X172526446Y-103539631D01*
X172489500Y-103772902D01*
X162790500Y-103772902D01*
X162753553Y-103539631D01*
X162680566Y-103315003D01*
X162573342Y-103104566D01*
X162434517Y-102913490D01*
X162267510Y-102746483D01*
X162076433Y-102607657D01*
X161865996Y-102500433D01*
X161641368Y-102427446D01*
X161408097Y-102390500D01*
X161408092Y-102390500D01*
X161171908Y-102390500D01*
X161171903Y-102390500D01*
X160938631Y-102427446D01*
X160714003Y-102500433D01*
X160503566Y-102607657D01*
X160439093Y-102654500D01*
X160312490Y-102746483D01*
X160312488Y-102746485D01*
X160312487Y-102746485D01*
X160145485Y-102913487D01*
X160145485Y-102913488D01*
X160145483Y-102913490D01*
X160085862Y-102995550D01*
X160006657Y-103104566D01*
X159899433Y-103315003D01*
X159826446Y-103539631D01*
X159789500Y-103772902D01*
X150090500Y-103772902D01*
X150053553Y-103539631D01*
X149980566Y-103315003D01*
X149873342Y-103104566D01*
X149734517Y-102913490D01*
X149567510Y-102746483D01*
X149376433Y-102607657D01*
X149165996Y-102500433D01*
X148941368Y-102427446D01*
X148708097Y-102390500D01*
X148708092Y-102390500D01*
X148471908Y-102390500D01*
X148471903Y-102390500D01*
X148238631Y-102427446D01*
X148014003Y-102500433D01*
X147803566Y-102607657D01*
X147739093Y-102654500D01*
X147612490Y-102746483D01*
X147612488Y-102746485D01*
X147612487Y-102746485D01*
X147445485Y-102913487D01*
X147445485Y-102913488D01*
X147445483Y-102913490D01*
X147385862Y-102995550D01*
X147306657Y-103104566D01*
X147199433Y-103315003D01*
X147126446Y-103539631D01*
X147089500Y-103772902D01*
X137390500Y-103772902D01*
X137353553Y-103539631D01*
X137280566Y-103315003D01*
X137173342Y-103104566D01*
X137034517Y-102913490D01*
X136867510Y-102746483D01*
X136676433Y-102607657D01*
X136465996Y-102500433D01*
X136241368Y-102427446D01*
X136008097Y-102390500D01*
X136008092Y-102390500D01*
X135771908Y-102390500D01*
X135771903Y-102390500D01*
X135538631Y-102427446D01*
X135314003Y-102500433D01*
X135103566Y-102607657D01*
X135039093Y-102654500D01*
X134912490Y-102746483D01*
X134912488Y-102746485D01*
X134912487Y-102746485D01*
X134745485Y-102913487D01*
X134745485Y-102913488D01*
X134745483Y-102913490D01*
X134685862Y-102995550D01*
X134606657Y-103104566D01*
X134499433Y-103315003D01*
X134426446Y-103539631D01*
X134389500Y-103772902D01*
X124690500Y-103772902D01*
X124653553Y-103539631D01*
X124580566Y-103315003D01*
X124473342Y-103104566D01*
X124334517Y-102913490D01*
X124167510Y-102746483D01*
X123976433Y-102607657D01*
X123765996Y-102500433D01*
X123541368Y-102427446D01*
X123308097Y-102390500D01*
X123308092Y-102390500D01*
X123071908Y-102390500D01*
X123071903Y-102390500D01*
X122838631Y-102427446D01*
X122614003Y-102500433D01*
X122403566Y-102607657D01*
X122339093Y-102654500D01*
X122212490Y-102746483D01*
X122212488Y-102746485D01*
X122212487Y-102746485D01*
X122045485Y-102913487D01*
X122045485Y-102913488D01*
X122045483Y-102913490D01*
X121985862Y-102995550D01*
X121906657Y-103104566D01*
X121799433Y-103315003D01*
X121726446Y-103539631D01*
X121689500Y-103772902D01*
X111990500Y-103772902D01*
X111953553Y-103539631D01*
X111880566Y-103315003D01*
X111773342Y-103104566D01*
X111634517Y-102913490D01*
X111467510Y-102746483D01*
X111276433Y-102607657D01*
X111065996Y-102500433D01*
X110841368Y-102427446D01*
X110608097Y-102390500D01*
X110608092Y-102390500D01*
X110371908Y-102390500D01*
X110371903Y-102390500D01*
X110138631Y-102427446D01*
X109914003Y-102500433D01*
X109703566Y-102607657D01*
X109639093Y-102654500D01*
X109512490Y-102746483D01*
X109512488Y-102746485D01*
X109512487Y-102746485D01*
X109345485Y-102913487D01*
X109345485Y-102913488D01*
X109345483Y-102913490D01*
X109285862Y-102995550D01*
X109206657Y-103104566D01*
X109099433Y-103315003D01*
X109026446Y-103539631D01*
X108989500Y-103772902D01*
X102100500Y-103772902D01*
X102100500Y-100206902D01*
X134389500Y-100206902D01*
X134389500Y-100443097D01*
X134426446Y-100676368D01*
X134499433Y-100900996D01*
X134606657Y-101111433D01*
X134745483Y-101302510D01*
X134912490Y-101469517D01*
X135103567Y-101608343D01*
X135202991Y-101659002D01*
X135314003Y-101715566D01*
X135314005Y-101715566D01*
X135314008Y-101715568D01*
X135434412Y-101754689D01*
X135538631Y-101788553D01*
X135771903Y-101825500D01*
X135771908Y-101825500D01*
X136008097Y-101825500D01*
X136241368Y-101788553D01*
X136282593Y-101775158D01*
X136465992Y-101715568D01*
X136676433Y-101608343D01*
X136867510Y-101469517D01*
X137034517Y-101302510D01*
X137173343Y-101111433D01*
X137280568Y-100900992D01*
X137353553Y-100676368D01*
X137390500Y-100443097D01*
X137390500Y-100206902D01*
X137353553Y-99973631D01*
X137283817Y-99759008D01*
X137280568Y-99749008D01*
X137280566Y-99749005D01*
X137280566Y-99749003D01*
X137224002Y-99637991D01*
X137173343Y-99538567D01*
X137034517Y-99347490D01*
X136867510Y-99180483D01*
X136676433Y-99041657D01*
X136465996Y-98934433D01*
X136241368Y-98861446D01*
X136008097Y-98824500D01*
X136008092Y-98824500D01*
X135771908Y-98824500D01*
X135771903Y-98824500D01*
X135538631Y-98861446D01*
X135314003Y-98934433D01*
X135103566Y-99041657D01*
X135040946Y-99087154D01*
X134912490Y-99180483D01*
X134912488Y-99180485D01*
X134912487Y-99180485D01*
X134745485Y-99347487D01*
X134745485Y-99347488D01*
X134745483Y-99347490D01*
X134738220Y-99357487D01*
X134606657Y-99538566D01*
X134499433Y-99749003D01*
X134426446Y-99973631D01*
X134389500Y-100206902D01*
X102100500Y-100206902D01*
X102100500Y-97703389D01*
X148759500Y-97703389D01*
X148759500Y-97876610D01*
X148782462Y-98021591D01*
X148786598Y-98047701D01*
X148840127Y-98212445D01*
X148918768Y-98366788D01*
X149020586Y-98506928D01*
X149143072Y-98629414D01*
X149283212Y-98731232D01*
X149437555Y-98809873D01*
X149602299Y-98863402D01*
X149773389Y-98890500D01*
X149773390Y-98890500D01*
X149946610Y-98890500D01*
X149946611Y-98890500D01*
X150117701Y-98863402D01*
X150282445Y-98809873D01*
X150436788Y-98731232D01*
X150576928Y-98629414D01*
X150699414Y-98506928D01*
X150801232Y-98366788D01*
X150879873Y-98212445D01*
X150933402Y-98047701D01*
X150960500Y-97876611D01*
X150960500Y-97703389D01*
X150933402Y-97532299D01*
X150879873Y-97367555D01*
X150801232Y-97213212D01*
X150699414Y-97073072D01*
X150576928Y-96950586D01*
X150436788Y-96848768D01*
X150282445Y-96770127D01*
X150117701Y-96716598D01*
X150117699Y-96716597D01*
X150117698Y-96716597D01*
X149986271Y-96695781D01*
X149946611Y-96689500D01*
X149773389Y-96689500D01*
X149733728Y-96695781D01*
X149602302Y-96716597D01*
X149437552Y-96770128D01*
X149283211Y-96848768D01*
X149203256Y-96906859D01*
X149143072Y-96950586D01*
X149143070Y-96950588D01*
X149143069Y-96950588D01*
X149020588Y-97073069D01*
X149020588Y-97073070D01*
X149020586Y-97073072D01*
X148976859Y-97133256D01*
X148918768Y-97213211D01*
X148840128Y-97367552D01*
X148840127Y-97367554D01*
X148840127Y-97367555D01*
X148813362Y-97449927D01*
X148786597Y-97532302D01*
X148759500Y-97703389D01*
X102100500Y-97703389D01*
X102100500Y-95161304D01*
X142609500Y-95161304D01*
X142609500Y-95338695D01*
X142644103Y-95512658D01*
X142644106Y-95512667D01*
X142711983Y-95676540D01*
X142711990Y-95676553D01*
X142810535Y-95824034D01*
X142810538Y-95824038D01*
X142935961Y-95949461D01*
X142935965Y-95949464D01*
X143083446Y-96048009D01*
X143083459Y-96048016D01*
X143206363Y-96098923D01*
X143247334Y-96115894D01*
X143247336Y-96115894D01*
X143247341Y-96115896D01*
X143421304Y-96150499D01*
X143421307Y-96150500D01*
X143421309Y-96150500D01*
X143598693Y-96150500D01*
X143598694Y-96150499D01*
X143659501Y-96138404D01*
X143772658Y-96115896D01*
X143772661Y-96115894D01*
X143772666Y-96115894D01*
X143924773Y-96052890D01*
X143936540Y-96048016D01*
X143936540Y-96048015D01*
X143936547Y-96048013D01*
X144084035Y-95949464D01*
X144084039Y-95949459D01*
X144086529Y-95947796D01*
X144153206Y-95926918D01*
X144220587Y-95945402D01*
X144254226Y-95975974D01*
X144267078Y-95992922D01*
X144387656Y-96084360D01*
X144387657Y-96084360D01*
X144387658Y-96084361D01*
X144528436Y-96139877D01*
X144616898Y-96150500D01*
X144616903Y-96150500D01*
X145403097Y-96150500D01*
X145403102Y-96150500D01*
X145491564Y-96139877D01*
X145632342Y-96084361D01*
X145752922Y-95992922D01*
X145844361Y-95872342D01*
X145899877Y-95731564D01*
X145910500Y-95643102D01*
X145910500Y-94856898D01*
X145899877Y-94768436D01*
X145844361Y-94627658D01*
X145844360Y-94627657D01*
X145844360Y-94627656D01*
X145752922Y-94507077D01*
X145632343Y-94415639D01*
X145491561Y-94360122D01*
X145445926Y-94354642D01*
X145403102Y-94349500D01*
X144616898Y-94349500D01*
X144577853Y-94354188D01*
X144528438Y-94360122D01*
X144387656Y-94415639D01*
X144267076Y-94507078D01*
X144254224Y-94524027D01*
X144198031Y-94565550D01*
X144128310Y-94570101D01*
X144086530Y-94552203D01*
X143936552Y-94451990D01*
X143936540Y-94451983D01*
X143772667Y-94384106D01*
X143772658Y-94384103D01*
X143598694Y-94349500D01*
X143598691Y-94349500D01*
X143421309Y-94349500D01*
X143421306Y-94349500D01*
X143247341Y-94384103D01*
X143247332Y-94384106D01*
X143083459Y-94451983D01*
X143083446Y-94451990D01*
X142935965Y-94550535D01*
X142935961Y-94550538D01*
X142810538Y-94675961D01*
X142810535Y-94675965D01*
X142711990Y-94823446D01*
X142711983Y-94823459D01*
X142644106Y-94987332D01*
X142644103Y-94987341D01*
X142609500Y-95161304D01*
X102100500Y-95161304D01*
X102100500Y-89040131D01*
X116724500Y-89040131D01*
X116724500Y-91299856D01*
X116724502Y-91299882D01*
X116727413Y-91324987D01*
X116727415Y-91324991D01*
X116772793Y-91427764D01*
X116772794Y-91427765D01*
X116852235Y-91507206D01*
X116955009Y-91552585D01*
X116980135Y-91555500D01*
X119239864Y-91555499D01*
X119239879Y-91555497D01*
X119239882Y-91555497D01*
X119264986Y-91552586D01*
X119264987Y-91552585D01*
X119264991Y-91552585D01*
X119367765Y-91507206D01*
X119416479Y-91458490D01*
X119477800Y-91425006D01*
X119479747Y-91424599D01*
X120103468Y-91299856D01*
X120238209Y-91272908D01*
X120262527Y-91270500D01*
X124546610Y-91270500D01*
X124546611Y-91270500D01*
X124717701Y-91243402D01*
X124882445Y-91189873D01*
X125036788Y-91111232D01*
X125176928Y-91009414D01*
X127348660Y-88837682D01*
X144750000Y-88837682D01*
X144750000Y-89042317D01*
X144782009Y-89244417D01*
X144845244Y-89439031D01*
X144938141Y-89621350D01*
X144938147Y-89621359D01*
X144970523Y-89665921D01*
X144970524Y-89665922D01*
X145650000Y-88986446D01*
X145650000Y-88992661D01*
X145677259Y-89094394D01*
X145729920Y-89185606D01*
X145804394Y-89260080D01*
X145895606Y-89312741D01*
X145997339Y-89340000D01*
X146003553Y-89340000D01*
X145324076Y-90019474D01*
X145368650Y-90051859D01*
X145550970Y-90144755D01*
X145650060Y-90176952D01*
X145707736Y-90216389D01*
X145734934Y-90280748D01*
X145723019Y-90349594D01*
X145675775Y-90401070D01*
X145650064Y-90412813D01*
X145627551Y-90420128D01*
X145473211Y-90498768D01*
X145393256Y-90556859D01*
X145333072Y-90600586D01*
X145333070Y-90600588D01*
X145333069Y-90600588D01*
X145210588Y-90723069D01*
X145210588Y-90723070D01*
X145210586Y-90723072D01*
X145187389Y-90755000D01*
X145108768Y-90863211D01*
X145030128Y-91017552D01*
X144976597Y-91182302D01*
X144949500Y-91353389D01*
X144949500Y-91526610D01*
X144975398Y-91690128D01*
X144976598Y-91697701D01*
X145030127Y-91862445D01*
X145108768Y-92016788D01*
X145210586Y-92156928D01*
X145333072Y-92279414D01*
X145473212Y-92381232D01*
X145627555Y-92459873D01*
X145792299Y-92513402D01*
X145963389Y-92540500D01*
X145963390Y-92540500D01*
X146136610Y-92540500D01*
X146136611Y-92540500D01*
X146307701Y-92513402D01*
X146472445Y-92459873D01*
X146626788Y-92381232D01*
X146766928Y-92279414D01*
X146889414Y-92156928D01*
X146991232Y-92016788D01*
X147069873Y-91862445D01*
X147123402Y-91697701D01*
X147150500Y-91526611D01*
X147150500Y-91353389D01*
X147123402Y-91182299D01*
X147069873Y-91017555D01*
X146991232Y-90863212D01*
X146889414Y-90723072D01*
X146766928Y-90600586D01*
X146626788Y-90498768D01*
X146609737Y-90490080D01*
X146589907Y-90479976D01*
X146589897Y-90479971D01*
X146472445Y-90420127D01*
X146442450Y-90410380D01*
X146435331Y-90407021D01*
X146414862Y-90388828D01*
X146392262Y-90373374D01*
X146389127Y-90365955D01*
X146383107Y-90360605D01*
X146375723Y-90334237D01*
X146365065Y-90309015D01*
X146366438Y-90301079D01*
X146364267Y-90293324D01*
X146372310Y-90267150D01*
X146376981Y-90240169D01*
X146382427Y-90234235D01*
X146384793Y-90226537D01*
X146405709Y-90208868D01*
X146424226Y-90188694D01*
X146435907Y-90183359D01*
X146438168Y-90181450D01*
X146440861Y-90181097D01*
X146449939Y-90176952D01*
X146549029Y-90144755D01*
X146731349Y-90051859D01*
X146775921Y-90019474D01*
X146775922Y-90019474D01*
X146096447Y-89340000D01*
X146102661Y-89340000D01*
X146204394Y-89312741D01*
X146295606Y-89260080D01*
X146370080Y-89185606D01*
X146422741Y-89094394D01*
X146450000Y-88992661D01*
X146450000Y-88986447D01*
X147129474Y-89665921D01*
X147161859Y-89621349D01*
X147188016Y-89570013D01*
X148560000Y-89570013D01*
X148560000Y-89920000D01*
X149544314Y-89920000D01*
X149539920Y-89924394D01*
X149487259Y-90015606D01*
X149460000Y-90117339D01*
X149460000Y-90222661D01*
X149487259Y-90324394D01*
X149539920Y-90415606D01*
X149544314Y-90420000D01*
X148560001Y-90420000D01*
X148560001Y-90769986D01*
X148570494Y-90872697D01*
X148625641Y-91039119D01*
X148625643Y-91039124D01*
X148717684Y-91188345D01*
X148841654Y-91312315D01*
X148990875Y-91404356D01*
X148990880Y-91404358D01*
X149157302Y-91459505D01*
X149157309Y-91459506D01*
X149260019Y-91469999D01*
X149353079Y-91469999D01*
X149420118Y-91489683D01*
X149465874Y-91542486D01*
X149475818Y-91611645D01*
X149446794Y-91675201D01*
X149409375Y-91704484D01*
X149283211Y-91768768D01*
X149203256Y-91826859D01*
X149143072Y-91870586D01*
X149143070Y-91870588D01*
X149143069Y-91870588D01*
X149020588Y-91993069D01*
X149020588Y-91993070D01*
X149020586Y-91993072D01*
X148976859Y-92053256D01*
X148918768Y-92133211D01*
X148840128Y-92287552D01*
X148786597Y-92452302D01*
X148785398Y-92459873D01*
X148759500Y-92623389D01*
X148759500Y-92796611D01*
X148786598Y-92967701D01*
X148840127Y-93132445D01*
X148918768Y-93286788D01*
X149020586Y-93426928D01*
X149143072Y-93549414D01*
X149143075Y-93549416D01*
X149230121Y-93612659D01*
X149243870Y-93624261D01*
X149255618Y-93635733D01*
X149255622Y-93635737D01*
X149713199Y-93941269D01*
X149758021Y-93994867D01*
X149766751Y-94064189D01*
X149736616Y-94127226D01*
X149677185Y-94163964D01*
X149663740Y-94166866D01*
X149602301Y-94176597D01*
X149437552Y-94230128D01*
X149283211Y-94308768D01*
X149212528Y-94360123D01*
X149143072Y-94410586D01*
X149143070Y-94410588D01*
X149143069Y-94410588D01*
X149020588Y-94533069D01*
X149020588Y-94533070D01*
X149020586Y-94533072D01*
X148993683Y-94570101D01*
X148918768Y-94673211D01*
X148840128Y-94827552D01*
X148786597Y-94992302D01*
X148761901Y-95148227D01*
X148759500Y-95163389D01*
X148759500Y-95336611D01*
X148786598Y-95507701D01*
X148840127Y-95672445D01*
X148918768Y-95826788D01*
X149020586Y-95966928D01*
X149143072Y-96089414D01*
X149283212Y-96191232D01*
X149437555Y-96269873D01*
X149602299Y-96323402D01*
X149773389Y-96350500D01*
X149773390Y-96350500D01*
X149946610Y-96350500D01*
X149946611Y-96350500D01*
X150117701Y-96323402D01*
X150282445Y-96269873D01*
X150436788Y-96191232D01*
X150576928Y-96089414D01*
X150699414Y-95966928D01*
X150801232Y-95826788D01*
X150879873Y-95672445D01*
X150933402Y-95507701D01*
X150960500Y-95336611D01*
X150960500Y-95241940D01*
X150980185Y-95174901D01*
X151032989Y-95129146D01*
X151102147Y-95119202D01*
X151165703Y-95148227D01*
X151172181Y-95154259D01*
X151778211Y-95760289D01*
X151841956Y-95824034D01*
X151889712Y-95871790D01*
X152020817Y-95959392D01*
X152020819Y-95959392D01*
X152020821Y-95959394D01*
X152120937Y-96000863D01*
X152166502Y-96019737D01*
X152265991Y-96039526D01*
X152270218Y-96040683D01*
X152296379Y-96056817D01*
X152323602Y-96071057D01*
X152325838Y-96074985D01*
X152329688Y-96077359D01*
X152342972Y-96105072D01*
X152358177Y-96131773D01*
X152358949Y-96138404D01*
X152359889Y-96140364D01*
X152359521Y-96143308D01*
X152361500Y-96160289D01*
X152361500Y-99138846D01*
X152392261Y-99293489D01*
X152392264Y-99293501D01*
X152452602Y-99439172D01*
X152452609Y-99439185D01*
X152540210Y-99570288D01*
X152540213Y-99570292D01*
X155445707Y-102475786D01*
X155445711Y-102475789D01*
X155576814Y-102563390D01*
X155576818Y-102563392D01*
X155576821Y-102563394D01*
X155722503Y-102623738D01*
X155877153Y-102654499D01*
X155877157Y-102654500D01*
X155877158Y-102654500D01*
X156034844Y-102654500D01*
X156034845Y-102654499D01*
X156189497Y-102623738D01*
X156335179Y-102563394D01*
X156466289Y-102475789D01*
X156577789Y-102364289D01*
X156665394Y-102233179D01*
X156725738Y-102087497D01*
X156756500Y-101932843D01*
X156756500Y-101775158D01*
X156725738Y-101620503D01*
X156665394Y-101474821D01*
X156665392Y-101474818D01*
X156665390Y-101474814D01*
X156577789Y-101343711D01*
X156577786Y-101343707D01*
X153998819Y-98764740D01*
X153965334Y-98703417D01*
X153962500Y-98677059D01*
X153962500Y-97703389D01*
X156379500Y-97703389D01*
X156379500Y-97876610D01*
X156402462Y-98021591D01*
X156406598Y-98047701D01*
X156460127Y-98212445D01*
X156538768Y-98366788D01*
X156640586Y-98506928D01*
X156763072Y-98629414D01*
X156903212Y-98731232D01*
X157057555Y-98809873D01*
X157222299Y-98863402D01*
X157393389Y-98890500D01*
X157393390Y-98890500D01*
X157566610Y-98890500D01*
X157566611Y-98890500D01*
X157737701Y-98863402D01*
X157902445Y-98809873D01*
X158056788Y-98731232D01*
X158196928Y-98629414D01*
X158319414Y-98506928D01*
X158421232Y-98366788D01*
X158499873Y-98212445D01*
X158553402Y-98047701D01*
X158580500Y-97876611D01*
X158580500Y-97703389D01*
X158553402Y-97532299D01*
X158499873Y-97367555D01*
X158421232Y-97213212D01*
X158319414Y-97073072D01*
X158196928Y-96950586D01*
X158056788Y-96848768D01*
X157902445Y-96770127D01*
X157737701Y-96716598D01*
X157737699Y-96716597D01*
X157737698Y-96716597D01*
X157606271Y-96695781D01*
X157566611Y-96689500D01*
X157393389Y-96689500D01*
X157353728Y-96695781D01*
X157222302Y-96716597D01*
X157057552Y-96770128D01*
X156903211Y-96848768D01*
X156823256Y-96906859D01*
X156763072Y-96950586D01*
X156763070Y-96950588D01*
X156763069Y-96950588D01*
X156640588Y-97073069D01*
X156640588Y-97073070D01*
X156640586Y-97073072D01*
X156596859Y-97133256D01*
X156538768Y-97213211D01*
X156460128Y-97367552D01*
X156460127Y-97367554D01*
X156460127Y-97367555D01*
X156433362Y-97449927D01*
X156406597Y-97532302D01*
X156379500Y-97703389D01*
X153962500Y-97703389D01*
X153962500Y-96174500D01*
X153982185Y-96107461D01*
X154034989Y-96061706D01*
X154086500Y-96050500D01*
X155827911Y-96050500D01*
X155852134Y-96052889D01*
X157252769Y-96331954D01*
X157259561Y-96333228D01*
X157272337Y-96333090D01*
X157293063Y-96334609D01*
X157393389Y-96350500D01*
X157393390Y-96350500D01*
X157566610Y-96350500D01*
X157566611Y-96350500D01*
X157737701Y-96323402D01*
X157902445Y-96269873D01*
X158056788Y-96191232D01*
X158196928Y-96089414D01*
X158319414Y-95966928D01*
X158421232Y-95826788D01*
X158499873Y-95672445D01*
X158553402Y-95507701D01*
X158580500Y-95336611D01*
X158580500Y-95163389D01*
X158553402Y-94992299D01*
X158499873Y-94827555D01*
X158421232Y-94673212D01*
X158319414Y-94533072D01*
X158196928Y-94410586D01*
X158056788Y-94308768D01*
X157902445Y-94230127D01*
X157737701Y-94176598D01*
X157737699Y-94176597D01*
X157737698Y-94176597D01*
X157606271Y-94155781D01*
X157566611Y-94149500D01*
X157393389Y-94149500D01*
X157393384Y-94149500D01*
X157287114Y-94166332D01*
X157269188Y-94167850D01*
X157252772Y-94168044D01*
X157252770Y-94168044D01*
X157252769Y-94168045D01*
X155852126Y-94447110D01*
X155827905Y-94449500D01*
X152782940Y-94449500D01*
X152715901Y-94429815D01*
X152695259Y-94413181D01*
X151594244Y-93312166D01*
X151578801Y-93293343D01*
X151174184Y-92687375D01*
X151131459Y-92623389D01*
X156379500Y-92623389D01*
X156379500Y-92796611D01*
X156406598Y-92967701D01*
X156460127Y-93132445D01*
X156538768Y-93286788D01*
X156640586Y-93426928D01*
X156763072Y-93549414D01*
X156903212Y-93651232D01*
X157057555Y-93729873D01*
X157222299Y-93783402D01*
X157393389Y-93810500D01*
X158104166Y-93810500D01*
X158171205Y-93830185D01*
X158191847Y-93846819D01*
X159137181Y-94792153D01*
X159170666Y-94853476D01*
X159173500Y-94879834D01*
X159173500Y-99654610D01*
X159183510Y-99717815D01*
X159200598Y-99825701D01*
X159254127Y-99990445D01*
X159332768Y-100144788D01*
X159434586Y-100284928D01*
X160827072Y-101677414D01*
X160967212Y-101779232D01*
X160985506Y-101788553D01*
X161121549Y-101857871D01*
X161121551Y-101857871D01*
X161121554Y-101857873D01*
X161286299Y-101911402D01*
X161457389Y-101938500D01*
X197327258Y-101938500D01*
X197351635Y-101940444D01*
X197370043Y-101938500D01*
X198800389Y-101938500D01*
X198973611Y-101938500D01*
X199144701Y-101911402D01*
X199309445Y-101857873D01*
X199326830Y-101849014D01*
X199383125Y-101835500D01*
X199508097Y-101835500D01*
X199741368Y-101798553D01*
X199965992Y-101725568D01*
X200176433Y-101618343D01*
X200367510Y-101479517D01*
X200534517Y-101312510D01*
X200673343Y-101121433D01*
X200780568Y-100910992D01*
X200853553Y-100686368D01*
X200855137Y-100676368D01*
X200890500Y-100453097D01*
X200890500Y-100216902D01*
X200853553Y-99983631D01*
X200802238Y-99825701D01*
X200780568Y-99759008D01*
X200780566Y-99759005D01*
X200780566Y-99759003D01*
X200673342Y-99548566D01*
X200534517Y-99357490D01*
X200367510Y-99190483D01*
X200176433Y-99051657D01*
X200156807Y-99041657D01*
X199965996Y-98944433D01*
X199741368Y-98871446D01*
X199508097Y-98834500D01*
X199508092Y-98834500D01*
X199271908Y-98834500D01*
X199271903Y-98834500D01*
X199038631Y-98871446D01*
X198814003Y-98944433D01*
X198603566Y-99051657D01*
X198412484Y-99190487D01*
X198357314Y-99245657D01*
X198318482Y-99271948D01*
X197255639Y-99727473D01*
X197206791Y-99737500D01*
X162051204Y-99737500D01*
X161984165Y-99717815D01*
X161963523Y-99701181D01*
X161410819Y-99148477D01*
X161377334Y-99087154D01*
X161374500Y-99060796D01*
X161374500Y-97671902D01*
X162334500Y-97671902D01*
X162334500Y-97908097D01*
X162371446Y-98141368D01*
X162444433Y-98365996D01*
X162516242Y-98506928D01*
X162551657Y-98576433D01*
X162690483Y-98767510D01*
X162857490Y-98934517D01*
X163048567Y-99073343D01*
X163075673Y-99087154D01*
X163259003Y-99180566D01*
X163259005Y-99180566D01*
X163259008Y-99180568D01*
X163338911Y-99206530D01*
X163483631Y-99253553D01*
X163716903Y-99290500D01*
X163716908Y-99290500D01*
X163953097Y-99290500D01*
X164186368Y-99253553D01*
X164210669Y-99245657D01*
X164410992Y-99180568D01*
X164621433Y-99073343D01*
X164812510Y-98934517D01*
X164979517Y-98767510D01*
X165118343Y-98576433D01*
X165225568Y-98365992D01*
X165298553Y-98141368D01*
X165335500Y-97908097D01*
X165335500Y-97678575D01*
X192615000Y-97678575D01*
X192615000Y-97901424D01*
X192644085Y-98122354D01*
X192644088Y-98122367D01*
X192701763Y-98337618D01*
X192787045Y-98543502D01*
X192787054Y-98543520D01*
X192898464Y-98736491D01*
X192898473Y-98736504D01*
X192949040Y-98802403D01*
X192949043Y-98802403D01*
X193750387Y-98001059D01*
X193755889Y-98021591D01*
X193834881Y-98158408D01*
X193946592Y-98270119D01*
X194083409Y-98349111D01*
X194103940Y-98354612D01*
X193302595Y-99155955D01*
X193302595Y-99155956D01*
X193368507Y-99206533D01*
X193561485Y-99317949D01*
X193561497Y-99317954D01*
X193767381Y-99403236D01*
X193982632Y-99460911D01*
X193982645Y-99460914D01*
X194199777Y-99489500D01*
X194430223Y-99489500D01*
X194647354Y-99460914D01*
X194647367Y-99460911D01*
X194862618Y-99403236D01*
X195068502Y-99317954D01*
X195068514Y-99317949D01*
X195261498Y-99206530D01*
X195327403Y-99155957D01*
X195327404Y-99155956D01*
X194526059Y-98354612D01*
X194546591Y-98349111D01*
X194683408Y-98270119D01*
X194795119Y-98158408D01*
X194874111Y-98021591D01*
X194879612Y-98001059D01*
X195680956Y-98802404D01*
X195680957Y-98802403D01*
X195731530Y-98736498D01*
X195842949Y-98543514D01*
X195842954Y-98543502D01*
X195928236Y-98337618D01*
X195985911Y-98122367D01*
X195985914Y-98122354D01*
X196015000Y-97901424D01*
X196015000Y-97678575D01*
X195985914Y-97457645D01*
X195985911Y-97457632D01*
X195928236Y-97242381D01*
X195842954Y-97036497D01*
X195842949Y-97036485D01*
X195731533Y-96843507D01*
X195680956Y-96777595D01*
X195680955Y-96777595D01*
X194879612Y-97578939D01*
X194874111Y-97558409D01*
X194795119Y-97421592D01*
X194683408Y-97309881D01*
X194546591Y-97230889D01*
X194526058Y-97225387D01*
X195327403Y-96424043D01*
X195327403Y-96424040D01*
X195261504Y-96373473D01*
X195261491Y-96373464D01*
X195068520Y-96262054D01*
X195068502Y-96262045D01*
X194862618Y-96176763D01*
X194647367Y-96119088D01*
X194647354Y-96119085D01*
X194426425Y-96090000D01*
X194203575Y-96090000D01*
X193982645Y-96119085D01*
X193982632Y-96119088D01*
X193767381Y-96176763D01*
X193561497Y-96262045D01*
X193561479Y-96262054D01*
X193368511Y-96373462D01*
X193302595Y-96424042D01*
X194103941Y-97225387D01*
X194083409Y-97230889D01*
X193946592Y-97309881D01*
X193834881Y-97421592D01*
X193755889Y-97558409D01*
X193750387Y-97578940D01*
X192949042Y-96777595D01*
X192898462Y-96843511D01*
X192787054Y-97036479D01*
X192787045Y-97036497D01*
X192701763Y-97242381D01*
X192644088Y-97457632D01*
X192644085Y-97457645D01*
X192615000Y-97678575D01*
X165335500Y-97678575D01*
X165335500Y-97671902D01*
X165298553Y-97438631D01*
X165225566Y-97214003D01*
X165169002Y-97102991D01*
X165118343Y-97003567D01*
X164979517Y-96812490D01*
X164812510Y-96645483D01*
X164621433Y-96506657D01*
X164410996Y-96399433D01*
X164186368Y-96326446D01*
X163953097Y-96289500D01*
X163953092Y-96289500D01*
X163716908Y-96289500D01*
X163716903Y-96289500D01*
X163483631Y-96326446D01*
X163259003Y-96399433D01*
X163048566Y-96506657D01*
X162939550Y-96585862D01*
X162857490Y-96645483D01*
X162857488Y-96645485D01*
X162857487Y-96645485D01*
X162690485Y-96812487D01*
X162690485Y-96812488D01*
X162690483Y-96812490D01*
X162630862Y-96894550D01*
X162551657Y-97003566D01*
X162444433Y-97214003D01*
X162371446Y-97438631D01*
X162334500Y-97671902D01*
X161374500Y-97671902D01*
X161374500Y-94286019D01*
X161365648Y-94230128D01*
X161347402Y-94114929D01*
X161293873Y-93950185D01*
X161215232Y-93795842D01*
X161113414Y-93655702D01*
X160990928Y-93533216D01*
X159328298Y-91870586D01*
X159188158Y-91768768D01*
X159033815Y-91690127D01*
X158869071Y-91636598D01*
X158869069Y-91636597D01*
X158869068Y-91636597D01*
X158737641Y-91615781D01*
X158697981Y-91609500D01*
X157393389Y-91609500D01*
X157353728Y-91615781D01*
X157222302Y-91636597D01*
X157057552Y-91690128D01*
X156903211Y-91768768D01*
X156823256Y-91826859D01*
X156763072Y-91870586D01*
X156763070Y-91870588D01*
X156763069Y-91870588D01*
X156640588Y-91993069D01*
X156640588Y-91993070D01*
X156640586Y-91993072D01*
X156596859Y-92053256D01*
X156538768Y-92133211D01*
X156460128Y-92287552D01*
X156406597Y-92452302D01*
X156405398Y-92459873D01*
X156379500Y-92623389D01*
X151131459Y-92623389D01*
X150785744Y-92105633D01*
X150781830Y-92099913D01*
X150781826Y-92099909D01*
X150772703Y-92090980D01*
X150759117Y-92075246D01*
X150699414Y-91993072D01*
X150576928Y-91870586D01*
X150506858Y-91819677D01*
X150436786Y-91768766D01*
X150310623Y-91704484D01*
X150259826Y-91656510D01*
X150243031Y-91588689D01*
X150265568Y-91522554D01*
X150320283Y-91479102D01*
X150366917Y-91469999D01*
X150459971Y-91469999D01*
X150459987Y-91469998D01*
X150562697Y-91459505D01*
X150729119Y-91404358D01*
X150729124Y-91404356D01*
X150878345Y-91312315D01*
X151002315Y-91188345D01*
X151094356Y-91039124D01*
X151094358Y-91039119D01*
X151149505Y-90872697D01*
X151149506Y-90872690D01*
X151159999Y-90769986D01*
X151160000Y-90769973D01*
X151160000Y-90420000D01*
X150175686Y-90420000D01*
X150180080Y-90415606D01*
X150232741Y-90324394D01*
X150260000Y-90222661D01*
X150260000Y-90117339D01*
X150250903Y-90083389D01*
X156379500Y-90083389D01*
X156379500Y-90256611D01*
X156380747Y-90264486D01*
X156405398Y-90420128D01*
X156406598Y-90427701D01*
X156460127Y-90592445D01*
X156538768Y-90746788D01*
X156640586Y-90886928D01*
X156763072Y-91009414D01*
X156903212Y-91111232D01*
X157057555Y-91189873D01*
X157222299Y-91243402D01*
X157393389Y-91270500D01*
X157393390Y-91270500D01*
X157566610Y-91270500D01*
X157566611Y-91270500D01*
X157737701Y-91243402D01*
X157902445Y-91189873D01*
X158056788Y-91111232D01*
X158196928Y-91009414D01*
X158319414Y-90886928D01*
X158421232Y-90746788D01*
X158499873Y-90592445D01*
X158553402Y-90427701D01*
X158580500Y-90256611D01*
X158580500Y-90083389D01*
X158553402Y-89912299D01*
X158499873Y-89747555D01*
X158421232Y-89593212D01*
X158319414Y-89453072D01*
X158196928Y-89330586D01*
X158056788Y-89228768D01*
X157902445Y-89150127D01*
X157737701Y-89096598D01*
X157737699Y-89096597D01*
X157737698Y-89096597D01*
X157606271Y-89075781D01*
X157566611Y-89069500D01*
X157393389Y-89069500D01*
X157353728Y-89075781D01*
X157222302Y-89096597D01*
X157057552Y-89150128D01*
X156903211Y-89228768D01*
X156823256Y-89286859D01*
X156763072Y-89330586D01*
X156763070Y-89330588D01*
X156763069Y-89330588D01*
X156640588Y-89453069D01*
X156640588Y-89453070D01*
X156640586Y-89453072D01*
X156598813Y-89510567D01*
X156538768Y-89593211D01*
X156460128Y-89747552D01*
X156406597Y-89912302D01*
X156390236Y-90015606D01*
X156379500Y-90083389D01*
X150250903Y-90083389D01*
X150232741Y-90015606D01*
X150180080Y-89924394D01*
X150175686Y-89920000D01*
X151159999Y-89920000D01*
X151159999Y-89570028D01*
X151159998Y-89570013D01*
X151149505Y-89467302D01*
X151094358Y-89300880D01*
X151094356Y-89300875D01*
X151002315Y-89151654D01*
X150878345Y-89027684D01*
X150729124Y-88935643D01*
X150729119Y-88935641D01*
X150562697Y-88880494D01*
X150562690Y-88880493D01*
X150459986Y-88870000D01*
X150110000Y-88870000D01*
X150110000Y-89854314D01*
X150105606Y-89849920D01*
X150014394Y-89797259D01*
X149912661Y-89770000D01*
X149807339Y-89770000D01*
X149705606Y-89797259D01*
X149614394Y-89849920D01*
X149610000Y-89854314D01*
X149610000Y-88870000D01*
X149260028Y-88870000D01*
X149260012Y-88870001D01*
X149157302Y-88880494D01*
X148990880Y-88935641D01*
X148990875Y-88935643D01*
X148841654Y-89027684D01*
X148717684Y-89151654D01*
X148625643Y-89300875D01*
X148625641Y-89300880D01*
X148570494Y-89467302D01*
X148570493Y-89467309D01*
X148560000Y-89570013D01*
X147188016Y-89570013D01*
X147218305Y-89510569D01*
X147218306Y-89510567D01*
X147254754Y-89439034D01*
X147317990Y-89244417D01*
X147350000Y-89042317D01*
X147350000Y-88837682D01*
X147317990Y-88635582D01*
X147254755Y-88440968D01*
X147161859Y-88258650D01*
X147129474Y-88214077D01*
X147129474Y-88214076D01*
X146450000Y-88893551D01*
X146450000Y-88887339D01*
X146422741Y-88785606D01*
X146370080Y-88694394D01*
X146295606Y-88619920D01*
X146204394Y-88567259D01*
X146102661Y-88540000D01*
X146096446Y-88540000D01*
X146775922Y-87860524D01*
X146775921Y-87860523D01*
X146731359Y-87828147D01*
X146731350Y-87828141D01*
X146549031Y-87735244D01*
X146354417Y-87672009D01*
X146152317Y-87640000D01*
X145947683Y-87640000D01*
X145745582Y-87672009D01*
X145550968Y-87735244D01*
X145368644Y-87828143D01*
X145324077Y-87860523D01*
X145324077Y-87860524D01*
X146003554Y-88540000D01*
X145997339Y-88540000D01*
X145895606Y-88567259D01*
X145804394Y-88619920D01*
X145729920Y-88694394D01*
X145677259Y-88785606D01*
X145650000Y-88887339D01*
X145650000Y-88893553D01*
X144970524Y-88214077D01*
X144970523Y-88214077D01*
X144938143Y-88258644D01*
X144845244Y-88440968D01*
X144782009Y-88635582D01*
X144750000Y-88837682D01*
X127348660Y-88837682D01*
X129449445Y-86736897D01*
X162429500Y-86736897D01*
X162429500Y-86736901D01*
X162429500Y-86736902D01*
X162429500Y-88523096D01*
X162440123Y-88611564D01*
X162440124Y-88611568D01*
X162495637Y-88752339D01*
X162495640Y-88752345D01*
X162587076Y-88872923D01*
X162675533Y-88940001D01*
X162707657Y-88964361D01*
X162848435Y-89019877D01*
X162936897Y-89030500D01*
X162974342Y-89030499D01*
X163041379Y-89050182D01*
X163087135Y-89102985D01*
X163097080Y-89172143D01*
X163068057Y-89235699D01*
X163051456Y-89250940D01*
X163051632Y-89251146D01*
X163047924Y-89254312D01*
X162914312Y-89387924D01*
X162914312Y-89387925D01*
X162914310Y-89387927D01*
X162866981Y-89453069D01*
X162803240Y-89540800D01*
X162717454Y-89709163D01*
X162659059Y-89888881D01*
X162629500Y-90075513D01*
X162629500Y-90264486D01*
X162659059Y-90451118D01*
X162717454Y-90630836D01*
X162788355Y-90769986D01*
X162803240Y-90799199D01*
X162914310Y-90952073D01*
X163047927Y-91085690D01*
X163200801Y-91196760D01*
X163354386Y-91275015D01*
X163405182Y-91322989D01*
X163421977Y-91390810D01*
X163399440Y-91456945D01*
X163344725Y-91500397D01*
X163298091Y-91509500D01*
X162885143Y-91509500D01*
X162885117Y-91509502D01*
X162860012Y-91512413D01*
X162860008Y-91512415D01*
X162757235Y-91557793D01*
X162677794Y-91637234D01*
X162632415Y-91740006D01*
X162632415Y-91740008D01*
X162629500Y-91765131D01*
X162629500Y-93654856D01*
X162629502Y-93654882D01*
X162632413Y-93679987D01*
X162632415Y-93679991D01*
X162677793Y-93782764D01*
X162677794Y-93782765D01*
X162757235Y-93862206D01*
X162860009Y-93907585D01*
X162885135Y-93910500D01*
X164774864Y-93910499D01*
X164774879Y-93910497D01*
X164774882Y-93910497D01*
X164799987Y-93907586D01*
X164799988Y-93907585D01*
X164799991Y-93907585D01*
X164902765Y-93862206D01*
X164982206Y-93782765D01*
X165027585Y-93679991D01*
X165030500Y-93654865D01*
X165030499Y-91765136D01*
X165029324Y-91755000D01*
X165027586Y-91740012D01*
X165027585Y-91740010D01*
X165027585Y-91740009D01*
X164982206Y-91637235D01*
X164902765Y-91557794D01*
X164890968Y-91552585D01*
X164799992Y-91512415D01*
X164774868Y-91509500D01*
X164361909Y-91509500D01*
X164294870Y-91489815D01*
X164249115Y-91437011D01*
X164239171Y-91367853D01*
X164268196Y-91304297D01*
X164305614Y-91275015D01*
X164459199Y-91196760D01*
X164612073Y-91085690D01*
X164745690Y-90952073D01*
X164856760Y-90799199D01*
X164942547Y-90630832D01*
X165000940Y-90451118D01*
X165004649Y-90427701D01*
X165017076Y-90349240D01*
X165030500Y-90264486D01*
X165030500Y-90075513D01*
X165000940Y-89888881D01*
X164942545Y-89709163D01*
X164897290Y-89620347D01*
X164856760Y-89540801D01*
X164745690Y-89387927D01*
X164612073Y-89254310D01*
X164612070Y-89254308D01*
X164608368Y-89251146D01*
X164609193Y-89250179D01*
X164570104Y-89199485D01*
X164564126Y-89129871D01*
X164596733Y-89068077D01*
X164651492Y-89037155D01*
X180025000Y-89037155D01*
X180025000Y-89920000D01*
X181078838Y-89920000D01*
X181064867Y-89944198D01*
X181025000Y-90092983D01*
X181025000Y-90247017D01*
X181064867Y-90395802D01*
X181078838Y-90420000D01*
X180025000Y-90420000D01*
X180025000Y-91302844D01*
X180031401Y-91362372D01*
X180031403Y-91362379D01*
X180081645Y-91497086D01*
X180081649Y-91497093D01*
X180167809Y-91612187D01*
X180167812Y-91612190D01*
X180282906Y-91698350D01*
X180282913Y-91698354D01*
X180417620Y-91748596D01*
X180417627Y-91748598D01*
X180477155Y-91754999D01*
X180477172Y-91755000D01*
X181360000Y-91755000D01*
X181360000Y-90701162D01*
X181384198Y-90715133D01*
X181532983Y-90755000D01*
X181687017Y-90755000D01*
X181835802Y-90715133D01*
X181860000Y-90701162D01*
X181860000Y-91755000D01*
X182742828Y-91755000D01*
X182742844Y-91754999D01*
X182802372Y-91748598D01*
X182802379Y-91748596D01*
X182937086Y-91698354D01*
X182937093Y-91698350D01*
X183052187Y-91612190D01*
X183052190Y-91612187D01*
X183138350Y-91497093D01*
X183138354Y-91497086D01*
X183188596Y-91362379D01*
X183188598Y-91362372D01*
X183194999Y-91302844D01*
X183195000Y-91302827D01*
X183195000Y-90420000D01*
X182141162Y-90420000D01*
X182155133Y-90395802D01*
X182195000Y-90247017D01*
X182195000Y-90092983D01*
X182155133Y-89944198D01*
X182141162Y-89920000D01*
X183195000Y-89920000D01*
X183195000Y-89037172D01*
X183194999Y-89037155D01*
X183188598Y-88977627D01*
X183188596Y-88977620D01*
X183138354Y-88842913D01*
X183138350Y-88842906D01*
X183052190Y-88727812D01*
X183052187Y-88727809D01*
X182937093Y-88641649D01*
X182937086Y-88641645D01*
X182802379Y-88591403D01*
X182802372Y-88591401D01*
X182742844Y-88585000D01*
X181860000Y-88585000D01*
X181860000Y-89638837D01*
X181835802Y-89624867D01*
X181687017Y-89585000D01*
X181532983Y-89585000D01*
X181384198Y-89624867D01*
X181360000Y-89638837D01*
X181360000Y-88585000D01*
X180477155Y-88585000D01*
X180417627Y-88591401D01*
X180417620Y-88591403D01*
X180282913Y-88641645D01*
X180282906Y-88641649D01*
X180167812Y-88727809D01*
X180167809Y-88727812D01*
X180081649Y-88842906D01*
X180081645Y-88842913D01*
X180031403Y-88977620D01*
X180031401Y-88977627D01*
X180025000Y-89037155D01*
X164651492Y-89037155D01*
X164657573Y-89033721D01*
X164685656Y-89030499D01*
X164723097Y-89030499D01*
X164723102Y-89030499D01*
X164811565Y-89019877D01*
X164952343Y-88964361D01*
X164996196Y-88931106D01*
X165048023Y-88908083D01*
X165505321Y-88821419D01*
X165973629Y-88732669D01*
X165996718Y-88730500D01*
X175346610Y-88730500D01*
X175346611Y-88730500D01*
X175517701Y-88703402D01*
X175682445Y-88649873D01*
X175836788Y-88571232D01*
X175976928Y-88469414D01*
X193454523Y-70991819D01*
X193515846Y-70958334D01*
X193542204Y-70955500D01*
X197140574Y-70955500D01*
X197167793Y-70958524D01*
X197171162Y-70959281D01*
X197171174Y-70959285D01*
X198599917Y-71144556D01*
X198640261Y-71157039D01*
X198685473Y-71180076D01*
X198814003Y-71245566D01*
X198814005Y-71245566D01*
X198814008Y-71245568D01*
X198934412Y-71284689D01*
X199038631Y-71318553D01*
X199271903Y-71355500D01*
X199271908Y-71355500D01*
X199508097Y-71355500D01*
X199741368Y-71318553D01*
X199965992Y-71245568D01*
X200176433Y-71138343D01*
X200367510Y-70999517D01*
X200534517Y-70832510D01*
X200673343Y-70641433D01*
X200780568Y-70430992D01*
X200853553Y-70206368D01*
X200855137Y-70196368D01*
X200890500Y-69973097D01*
X200890500Y-69736902D01*
X200853553Y-69503631D01*
X200819689Y-69399412D01*
X200780568Y-69279008D01*
X200780566Y-69279005D01*
X200780566Y-69279003D01*
X200714900Y-69150127D01*
X200673343Y-69068567D01*
X200534517Y-68877490D01*
X200367510Y-68710483D01*
X200176433Y-68571657D01*
X200164235Y-68565442D01*
X199965996Y-68464433D01*
X199741368Y-68391446D01*
X199508097Y-68354500D01*
X199508092Y-68354500D01*
X199271908Y-68354500D01*
X199271903Y-68354500D01*
X199038631Y-68391446D01*
X198814000Y-68464434D01*
X198640265Y-68552957D01*
X198599917Y-68565442D01*
X197171177Y-68750713D01*
X197166354Y-68751747D01*
X197140371Y-68754500D01*
X193121611Y-68754500D01*
X192948389Y-68754500D01*
X192908728Y-68760781D01*
X192777302Y-68781597D01*
X192612552Y-68835128D01*
X192458211Y-68913768D01*
X192378256Y-68971859D01*
X192318072Y-69015586D01*
X192318070Y-69015588D01*
X192318069Y-69015588D01*
X174840477Y-86493181D01*
X174779154Y-86526666D01*
X174752796Y-86529500D01*
X165996724Y-86529500D01*
X165973635Y-86527331D01*
X165048024Y-86351914D01*
X164996189Y-86328888D01*
X164952340Y-86295637D01*
X164811566Y-86240123D01*
X164798927Y-86238605D01*
X164723103Y-86229500D01*
X164723097Y-86229500D01*
X162936903Y-86229500D01*
X162848435Y-86240123D01*
X162848431Y-86240124D01*
X162707660Y-86295637D01*
X162707654Y-86295640D01*
X162587076Y-86387076D01*
X162495640Y-86507654D01*
X162495637Y-86507660D01*
X162440123Y-86648433D01*
X162440123Y-86648435D01*
X162429500Y-86736897D01*
X129449445Y-86736897D01*
X135000829Y-81185513D01*
X141039500Y-81185513D01*
X141039500Y-81374486D01*
X141069059Y-81561118D01*
X141127454Y-81740836D01*
X141186033Y-81855802D01*
X141213240Y-81909199D01*
X141324310Y-82062073D01*
X141457927Y-82195690D01*
X141610801Y-82306760D01*
X141646368Y-82324882D01*
X141779163Y-82392545D01*
X141779165Y-82392545D01*
X141779168Y-82392547D01*
X141875497Y-82423846D01*
X141958881Y-82450940D01*
X142145514Y-82480500D01*
X142145519Y-82480500D01*
X142334486Y-82480500D01*
X142521118Y-82450940D01*
X142700832Y-82392547D01*
X142869199Y-82306760D01*
X143022073Y-82195690D01*
X143155690Y-82062073D01*
X143266760Y-81909199D01*
X143345015Y-81755613D01*
X143392989Y-81704817D01*
X143460810Y-81688022D01*
X143526945Y-81710559D01*
X143570397Y-81765274D01*
X143579500Y-81811908D01*
X143579500Y-82224856D01*
X143579502Y-82224882D01*
X143582413Y-82249987D01*
X143582415Y-82249991D01*
X143627793Y-82352764D01*
X143627794Y-82352765D01*
X143707235Y-82432206D01*
X143810009Y-82477585D01*
X143835135Y-82480500D01*
X145724864Y-82480499D01*
X145724879Y-82480497D01*
X145724882Y-82480497D01*
X145749987Y-82477586D01*
X145749988Y-82477585D01*
X145749991Y-82477585D01*
X145852765Y-82432206D01*
X145932206Y-82352765D01*
X145977585Y-82249991D01*
X145980500Y-82224865D01*
X145980499Y-80335136D01*
X145980497Y-80335117D01*
X145977586Y-80310012D01*
X145977585Y-80310011D01*
X145977585Y-80310009D01*
X145944523Y-80235131D01*
X148569500Y-80235131D01*
X148569500Y-82324856D01*
X148569502Y-82324882D01*
X148572413Y-82349987D01*
X148572415Y-82349991D01*
X148617793Y-82452764D01*
X148617794Y-82452765D01*
X148697235Y-82532206D01*
X148800009Y-82577585D01*
X148825135Y-82580500D01*
X150914864Y-82580499D01*
X150914879Y-82580497D01*
X150914882Y-82580497D01*
X150939987Y-82577586D01*
X150939988Y-82577585D01*
X150939991Y-82577585D01*
X151042765Y-82532206D01*
X151122206Y-82452765D01*
X151167585Y-82349991D01*
X151170500Y-82324865D01*
X151170499Y-81161947D01*
X155970000Y-81161947D01*
X155970000Y-81398052D01*
X156006934Y-81631247D01*
X156079897Y-81855802D01*
X156187087Y-82066174D01*
X156247338Y-82149104D01*
X156247340Y-82149105D01*
X156987037Y-81409408D01*
X157004075Y-81472993D01*
X157069901Y-81587007D01*
X157162993Y-81680099D01*
X157277007Y-81745925D01*
X157340590Y-81762962D01*
X156600893Y-82502658D01*
X156683828Y-82562914D01*
X156894197Y-82670102D01*
X157118752Y-82743065D01*
X157118751Y-82743065D01*
X157351948Y-82780000D01*
X157588052Y-82780000D01*
X157821247Y-82743065D01*
X158045802Y-82670102D01*
X158256163Y-82562918D01*
X158256169Y-82562914D01*
X158339104Y-82502658D01*
X158339105Y-82502658D01*
X157599408Y-81762962D01*
X157662993Y-81745925D01*
X157777007Y-81680099D01*
X157870099Y-81587007D01*
X157935925Y-81472993D01*
X157952962Y-81409409D01*
X158692658Y-82149105D01*
X158692658Y-82149104D01*
X158752914Y-82066169D01*
X158752918Y-82066163D01*
X158860102Y-81855802D01*
X158933065Y-81631247D01*
X158970000Y-81398052D01*
X158970000Y-81161947D01*
X158933065Y-80928752D01*
X158860102Y-80704197D01*
X158752914Y-80493828D01*
X158692658Y-80410894D01*
X158692658Y-80410893D01*
X157952962Y-81150590D01*
X157935925Y-81087007D01*
X157870099Y-80972993D01*
X157777007Y-80879901D01*
X157662993Y-80814075D01*
X157599409Y-80797037D01*
X158339105Y-80057340D01*
X158339104Y-80057338D01*
X158256174Y-79997087D01*
X158045802Y-79889897D01*
X157821247Y-79816934D01*
X157821248Y-79816934D01*
X157588052Y-79780000D01*
X157351948Y-79780000D01*
X157118752Y-79816934D01*
X156894197Y-79889897D01*
X156683830Y-79997084D01*
X156600894Y-80057340D01*
X157340591Y-80797037D01*
X157277007Y-80814075D01*
X157162993Y-80879901D01*
X157069901Y-80972993D01*
X157004075Y-81087007D01*
X156987037Y-81150591D01*
X156247340Y-80410894D01*
X156187084Y-80493830D01*
X156079897Y-80704197D01*
X156006934Y-80928752D01*
X155970000Y-81161947D01*
X151170499Y-81161947D01*
X151170499Y-80235136D01*
X151170497Y-80235117D01*
X151167586Y-80210012D01*
X151167585Y-80210011D01*
X151167585Y-80210009D01*
X151122206Y-80107235D01*
X151042765Y-80027794D01*
X151042763Y-80027793D01*
X150939992Y-79982415D01*
X150914865Y-79979500D01*
X148825143Y-79979500D01*
X148825117Y-79979502D01*
X148800012Y-79982413D01*
X148800008Y-79982415D01*
X148697235Y-80027793D01*
X148617794Y-80107234D01*
X148572415Y-80210006D01*
X148572415Y-80210008D01*
X148569500Y-80235131D01*
X145944523Y-80235131D01*
X145932206Y-80207235D01*
X145852765Y-80127794D01*
X145852763Y-80127793D01*
X145749992Y-80082415D01*
X145724865Y-80079500D01*
X143835143Y-80079500D01*
X143835117Y-80079502D01*
X143810012Y-80082413D01*
X143810008Y-80082415D01*
X143707235Y-80127793D01*
X143627794Y-80207234D01*
X143582415Y-80310006D01*
X143582415Y-80310008D01*
X143579500Y-80335131D01*
X143579500Y-80748090D01*
X143559815Y-80815129D01*
X143507011Y-80860884D01*
X143437853Y-80870828D01*
X143374297Y-80841803D01*
X143345015Y-80804385D01*
X143315881Y-80747207D01*
X143266760Y-80650801D01*
X143155690Y-80497927D01*
X143022073Y-80364310D01*
X142869199Y-80253240D01*
X142833658Y-80235131D01*
X142700836Y-80167454D01*
X142521118Y-80109059D01*
X142334486Y-80079500D01*
X142334481Y-80079500D01*
X142145519Y-80079500D01*
X142145514Y-80079500D01*
X141958881Y-80109059D01*
X141779163Y-80167454D01*
X141610800Y-80253240D01*
X141532663Y-80310011D01*
X141457927Y-80364310D01*
X141457925Y-80364312D01*
X141457924Y-80364312D01*
X141324312Y-80497924D01*
X141324312Y-80497925D01*
X141324310Y-80497927D01*
X141276610Y-80563579D01*
X141213240Y-80650800D01*
X141127454Y-80819163D01*
X141069059Y-80998881D01*
X141039500Y-81185513D01*
X135000829Y-81185513D01*
X138826564Y-77359778D01*
X162429500Y-77359778D01*
X162429500Y-77580221D01*
X162463985Y-77797952D01*
X162532103Y-78007603D01*
X162532104Y-78007606D01*
X162632187Y-78204025D01*
X162761752Y-78382358D01*
X162761756Y-78382363D01*
X162917636Y-78538243D01*
X162917641Y-78538247D01*
X163073192Y-78651260D01*
X163095978Y-78667815D01*
X163224375Y-78733237D01*
X163292393Y-78767895D01*
X163292396Y-78767896D01*
X163397221Y-78801955D01*
X163502049Y-78836015D01*
X163719778Y-78870500D01*
X163719779Y-78870500D01*
X163940221Y-78870500D01*
X163940222Y-78870500D01*
X164157951Y-78836015D01*
X164367606Y-78767895D01*
X164564022Y-78667815D01*
X164742365Y-78538242D01*
X164898242Y-78382365D01*
X165027815Y-78204022D01*
X165127895Y-78007606D01*
X165196015Y-77797951D01*
X165230500Y-77580222D01*
X165230500Y-77359778D01*
X165196015Y-77142049D01*
X165127895Y-76932394D01*
X165127895Y-76932393D01*
X165093237Y-76864375D01*
X165027815Y-76735978D01*
X165011260Y-76713192D01*
X164898247Y-76557641D01*
X164898243Y-76557636D01*
X164742363Y-76401756D01*
X164742358Y-76401752D01*
X164564025Y-76272187D01*
X164564024Y-76272186D01*
X164564022Y-76272185D01*
X164501096Y-76240122D01*
X164367606Y-76172104D01*
X164367603Y-76172103D01*
X164157952Y-76103985D01*
X164049086Y-76086742D01*
X163940222Y-76069500D01*
X163719778Y-76069500D01*
X163647201Y-76080995D01*
X163502047Y-76103985D01*
X163292396Y-76172103D01*
X163292393Y-76172104D01*
X163095974Y-76272187D01*
X162917641Y-76401752D01*
X162917636Y-76401756D01*
X162761756Y-76557636D01*
X162761752Y-76557641D01*
X162632187Y-76735974D01*
X162532104Y-76932393D01*
X162532103Y-76932396D01*
X162463985Y-77142047D01*
X162429500Y-77359778D01*
X138826564Y-77359778D01*
X144879523Y-71306819D01*
X144940846Y-71273334D01*
X144967204Y-71270500D01*
X179310306Y-71270500D01*
X179338046Y-71273643D01*
X179340266Y-71274152D01*
X179340269Y-71274152D01*
X179340271Y-71274153D01*
X180721190Y-71459170D01*
X180777606Y-71481753D01*
X180797361Y-71496106D01*
X181014815Y-71606904D01*
X181246924Y-71682321D01*
X181487973Y-71720500D01*
X181487974Y-71720500D01*
X181732026Y-71720500D01*
X181732027Y-71720500D01*
X181973076Y-71682321D01*
X182205185Y-71606904D01*
X182422639Y-71496106D01*
X182620083Y-71352655D01*
X182792655Y-71180083D01*
X182936106Y-70982639D01*
X183046904Y-70765185D01*
X183122321Y-70533076D01*
X183160500Y-70292027D01*
X183160500Y-70047973D01*
X183122321Y-69806924D01*
X183046904Y-69574815D01*
X182936106Y-69357361D01*
X182916653Y-69330586D01*
X182792660Y-69159923D01*
X182792656Y-69159918D01*
X182620081Y-68987343D01*
X182620076Y-68987339D01*
X182422642Y-68843896D01*
X182422641Y-68843895D01*
X182422639Y-68843894D01*
X182205185Y-68733096D01*
X181973076Y-68657679D01*
X181973074Y-68657678D01*
X181973072Y-68657678D01*
X181804769Y-68631021D01*
X181732027Y-68619500D01*
X181487973Y-68619500D01*
X181432093Y-68628350D01*
X181246927Y-68657678D01*
X181014812Y-68733097D01*
X180797353Y-68843898D01*
X180777602Y-68858247D01*
X180721190Y-68880827D01*
X179551447Y-69037551D01*
X179340269Y-69065846D01*
X179340266Y-69065846D01*
X179336570Y-69066653D01*
X179310149Y-69069500D01*
X144546611Y-69069500D01*
X144373389Y-69069500D01*
X144287844Y-69083049D01*
X144202298Y-69096598D01*
X144037549Y-69150128D01*
X143883211Y-69228768D01*
X143814070Y-69279003D01*
X143743072Y-69330586D01*
X143743070Y-69330588D01*
X143743069Y-69330588D01*
X124040477Y-89033181D01*
X123979154Y-89066666D01*
X123952796Y-89069500D01*
X120262526Y-89069500D01*
X120238211Y-89067092D01*
X119866057Y-88992661D01*
X119479838Y-88915416D01*
X119417961Y-88882966D01*
X119416476Y-88881505D01*
X119367765Y-88832794D01*
X119264992Y-88787415D01*
X119239865Y-88784500D01*
X116980143Y-88784500D01*
X116980117Y-88784502D01*
X116955012Y-88787413D01*
X116955008Y-88787415D01*
X116852235Y-88832793D01*
X116772794Y-88912234D01*
X116727415Y-89015006D01*
X116727415Y-89015008D01*
X116724500Y-89040131D01*
X102100500Y-89040131D01*
X102100500Y-70047973D01*
X116559500Y-70047973D01*
X116559500Y-70292027D01*
X116597679Y-70533076D01*
X116673096Y-70765185D01*
X116702305Y-70822512D01*
X116783896Y-70982642D01*
X116927339Y-71180076D01*
X116927343Y-71180081D01*
X117099918Y-71352656D01*
X117099923Y-71352660D01*
X117246523Y-71459170D01*
X117297361Y-71496106D01*
X117514815Y-71606904D01*
X117746924Y-71682321D01*
X117987973Y-71720500D01*
X117987974Y-71720500D01*
X118232026Y-71720500D01*
X118232027Y-71720500D01*
X118473076Y-71682321D01*
X118705185Y-71606904D01*
X118922639Y-71496106D01*
X119120083Y-71352655D01*
X119292655Y-71180083D01*
X119436106Y-70982639D01*
X119546904Y-70765185D01*
X119622321Y-70533076D01*
X119660500Y-70292027D01*
X119660500Y-70047973D01*
X119622321Y-69806924D01*
X119596320Y-69726902D01*
X134389500Y-69726902D01*
X134389500Y-69963097D01*
X134426446Y-70196368D01*
X134499433Y-70420996D01*
X134606657Y-70631433D01*
X134745483Y-70822510D01*
X134912490Y-70989517D01*
X135103567Y-71128343D01*
X135140796Y-71147312D01*
X135314003Y-71235566D01*
X135314005Y-71235566D01*
X135314008Y-71235568D01*
X135421517Y-71270500D01*
X135538631Y-71308553D01*
X135771903Y-71345500D01*
X135771908Y-71345500D01*
X136008097Y-71345500D01*
X136241368Y-71308553D01*
X136246705Y-71306819D01*
X136465992Y-71235568D01*
X136676433Y-71128343D01*
X136867510Y-70989517D01*
X137034517Y-70822510D01*
X137173343Y-70631433D01*
X137280568Y-70420992D01*
X137353553Y-70196368D01*
X137390500Y-69963097D01*
X137390500Y-69726902D01*
X137353553Y-69493631D01*
X137309274Y-69357357D01*
X137280568Y-69269008D01*
X137280566Y-69269005D01*
X137280566Y-69269003D01*
X137219995Y-69150127D01*
X137173343Y-69058567D01*
X137034517Y-68867490D01*
X136867510Y-68700483D01*
X136676433Y-68561657D01*
X136659358Y-68552957D01*
X136465996Y-68454433D01*
X136241368Y-68381446D01*
X136008097Y-68344500D01*
X136008092Y-68344500D01*
X135771908Y-68344500D01*
X135771903Y-68344500D01*
X135538631Y-68381446D01*
X135314003Y-68454433D01*
X135103566Y-68561657D01*
X135023953Y-68619500D01*
X134912490Y-68700483D01*
X134912488Y-68700485D01*
X134912487Y-68700485D01*
X134745485Y-68867487D01*
X134745485Y-68867488D01*
X134745483Y-68867490D01*
X134711860Y-68913768D01*
X134606657Y-69058566D01*
X134499433Y-69269003D01*
X134426446Y-69493631D01*
X134389500Y-69726902D01*
X119596320Y-69726902D01*
X119546904Y-69574815D01*
X119436106Y-69357361D01*
X119416653Y-69330586D01*
X119292660Y-69159923D01*
X119292656Y-69159918D01*
X119120081Y-68987343D01*
X119120076Y-68987339D01*
X118922642Y-68843896D01*
X118922641Y-68843895D01*
X118922639Y-68843894D01*
X118705185Y-68733096D01*
X118473076Y-68657679D01*
X118473074Y-68657678D01*
X118473072Y-68657678D01*
X118304769Y-68631021D01*
X118232027Y-68619500D01*
X117987973Y-68619500D01*
X117932093Y-68628350D01*
X117746927Y-68657678D01*
X117514812Y-68733097D01*
X117297357Y-68843896D01*
X117099923Y-68987339D01*
X117099918Y-68987343D01*
X116927343Y-69159918D01*
X116927339Y-69159923D01*
X116783896Y-69357357D01*
X116673097Y-69574812D01*
X116597678Y-69806927D01*
X116572944Y-69963092D01*
X116559500Y-70047973D01*
X102100500Y-70047973D01*
X102100500Y-62103460D01*
X150109500Y-62103460D01*
X150109500Y-62356539D01*
X150137011Y-62565497D01*
X150142532Y-62607430D01*
X150142533Y-62607432D01*
X150208029Y-62851869D01*
X150208032Y-62851879D01*
X150304869Y-63085663D01*
X150304872Y-63085670D01*
X150431404Y-63304830D01*
X150431406Y-63304833D01*
X150431407Y-63304834D01*
X150585457Y-63505596D01*
X150585463Y-63505603D01*
X150764396Y-63684536D01*
X150764402Y-63684541D01*
X150965170Y-63838596D01*
X151184330Y-63965128D01*
X151418130Y-64061971D01*
X151662570Y-64127468D01*
X151913468Y-64160500D01*
X151913475Y-64160500D01*
X155426525Y-64160500D01*
X155426532Y-64160500D01*
X155677430Y-64127468D01*
X155921870Y-64061971D01*
X156155670Y-63965128D01*
X156374830Y-63838596D01*
X156575598Y-63684541D01*
X156754541Y-63505598D01*
X156908596Y-63304830D01*
X157035128Y-63085670D01*
X157131971Y-62851870D01*
X157197468Y-62607430D01*
X157230500Y-62356532D01*
X157230500Y-62103468D01*
X157197468Y-61852570D01*
X157131971Y-61608130D01*
X157035128Y-61374330D01*
X156908596Y-61155170D01*
X156754541Y-60954402D01*
X156754536Y-60954396D01*
X156575603Y-60775463D01*
X156575596Y-60775457D01*
X156374834Y-60621407D01*
X156374833Y-60621406D01*
X156374830Y-60621404D01*
X156155670Y-60494872D01*
X156155663Y-60494869D01*
X155921879Y-60398032D01*
X155921872Y-60398030D01*
X155921870Y-60398029D01*
X155677430Y-60332532D01*
X155635497Y-60327011D01*
X155426539Y-60299500D01*
X155426532Y-60299500D01*
X151913468Y-60299500D01*
X151913460Y-60299500D01*
X151674649Y-60330941D01*
X151662570Y-60332532D01*
X151418130Y-60398029D01*
X151418120Y-60398032D01*
X151184336Y-60494869D01*
X151184327Y-60494873D01*
X150965165Y-60621407D01*
X150764403Y-60775457D01*
X150764396Y-60775463D01*
X150585463Y-60954396D01*
X150585457Y-60954403D01*
X150431407Y-61155165D01*
X150304873Y-61374327D01*
X150304869Y-61374336D01*
X150208032Y-61608120D01*
X150208029Y-61608130D01*
X150142533Y-61852567D01*
X150142531Y-61852578D01*
X150109500Y-62103460D01*
X102100500Y-62103460D01*
X102100500Y-55103460D01*
X150109500Y-55103460D01*
X150109500Y-55356539D01*
X150137011Y-55565497D01*
X150142532Y-55607430D01*
X150142533Y-55607432D01*
X150208029Y-55851869D01*
X150208032Y-55851879D01*
X150304869Y-56085663D01*
X150304872Y-56085670D01*
X150431404Y-56304830D01*
X150431406Y-56304833D01*
X150431407Y-56304834D01*
X150585457Y-56505596D01*
X150585463Y-56505603D01*
X150764396Y-56684536D01*
X150764402Y-56684541D01*
X150965170Y-56838596D01*
X151184330Y-56965128D01*
X151418130Y-57061971D01*
X151662570Y-57127468D01*
X151913468Y-57160500D01*
X151913475Y-57160500D01*
X155426525Y-57160500D01*
X155426532Y-57160500D01*
X155677430Y-57127468D01*
X155921870Y-57061971D01*
X156155670Y-56965128D01*
X156374830Y-56838596D01*
X156575598Y-56684541D01*
X156754541Y-56505598D01*
X156908596Y-56304830D01*
X157035128Y-56085670D01*
X157131971Y-55851870D01*
X157197468Y-55607430D01*
X157230500Y-55356532D01*
X157230500Y-55103468D01*
X157197468Y-54852570D01*
X157131971Y-54608130D01*
X157035128Y-54374330D01*
X156908596Y-54155170D01*
X156754541Y-53954402D01*
X156754536Y-53954396D01*
X156575603Y-53775463D01*
X156575596Y-53775457D01*
X156374834Y-53621407D01*
X156374833Y-53621406D01*
X156374830Y-53621404D01*
X156155670Y-53494872D01*
X156155663Y-53494869D01*
X155921879Y-53398032D01*
X155921872Y-53398030D01*
X155921870Y-53398029D01*
X155677430Y-53332532D01*
X155635497Y-53327011D01*
X155426539Y-53299500D01*
X155426532Y-53299500D01*
X151913468Y-53299500D01*
X151913460Y-53299500D01*
X151674649Y-53330941D01*
X151662570Y-53332532D01*
X151418130Y-53398029D01*
X151418120Y-53398032D01*
X151184336Y-53494869D01*
X151184327Y-53494873D01*
X150965165Y-53621407D01*
X150764403Y-53775457D01*
X150764396Y-53775463D01*
X150585463Y-53954396D01*
X150585457Y-53954403D01*
X150431407Y-54155165D01*
X150304873Y-54374327D01*
X150304869Y-54374336D01*
X150208032Y-54608120D01*
X150208029Y-54608130D01*
X150142533Y-54852567D01*
X150142531Y-54852578D01*
X150109500Y-55103460D01*
X102100500Y-55103460D01*
X102100500Y-52074066D01*
X102100765Y-52065957D01*
X102104819Y-52004108D01*
X102117417Y-51811883D01*
X102119531Y-51795829D01*
X102168409Y-51550107D01*
X102172606Y-51534445D01*
X102196197Y-51464945D01*
X102253138Y-51297205D01*
X102259336Y-51282239D01*
X102370149Y-51057533D01*
X102378252Y-51043498D01*
X102517448Y-50835176D01*
X102527305Y-50822331D01*
X102692502Y-50633960D01*
X102703960Y-50622502D01*
X102892331Y-50457305D01*
X102905176Y-50447448D01*
X103113498Y-50308252D01*
X103127533Y-50300149D01*
X103352239Y-50189336D01*
X103367205Y-50183138D01*
X103534945Y-50126197D01*
X103604445Y-50102606D01*
X103620107Y-50098409D01*
X103865829Y-50049531D01*
X103881883Y-50047417D01*
X104114848Y-50032148D01*
X104135958Y-50030765D01*
X104144067Y-50030500D01*
X104205892Y-50030500D01*
X200594108Y-50030500D01*
X200655933Y-50030500D01*
X200664042Y-50030765D01*
G37*
%TD.AperFunction*%
%TD*%
%TA.AperFunction,Conductor*%
%TO.N,Net-(BAT1-PadNeg)*%
G36*
X180865282Y-69173209D02*
G01*
X180867551Y-69175502D01*
X181115830Y-69507621D01*
X181605763Y-70162995D01*
X181607972Y-70171673D01*
X181605763Y-70177005D01*
X180867552Y-71164496D01*
X180859854Y-71169071D01*
X180856627Y-71169087D01*
X179380840Y-70971359D01*
X179373095Y-70966864D01*
X179370694Y-70959763D01*
X179370694Y-69380236D01*
X179374121Y-69371963D01*
X179380838Y-69368640D01*
X180856628Y-69170912D01*
X180865282Y-69173209D01*
G37*
%TD.AperFunction*%
%TD*%
%TA.AperFunction,Conductor*%
%TO.N,Net-(R3-Pad2)*%
G36*
X135896365Y-103894127D02*
G01*
X136883813Y-104534404D01*
X136888891Y-104541780D01*
X136889051Y-104545726D01*
X136691322Y-106070539D01*
X136686860Y-106078302D01*
X136679719Y-106080734D01*
X135100281Y-106080734D01*
X135092008Y-106077307D01*
X135088678Y-106070539D01*
X134890948Y-104545726D01*
X134893283Y-104537080D01*
X134896182Y-104534407D01*
X135883635Y-103894126D01*
X135892441Y-103892501D01*
X135896365Y-103894127D01*
G37*
%TD.AperFunction*%
%TD*%
%TA.AperFunction,Conductor*%
%TO.N,Net-(U1-THRES)*%
G36*
X157321247Y-94469400D02*
G01*
X157326222Y-94476833D01*
X157480540Y-95247703D01*
X157480540Y-95252297D01*
X157326222Y-96023166D01*
X157321238Y-96030605D01*
X157312464Y-96032343D01*
X155904786Y-95751875D01*
X155897342Y-95746898D01*
X155895372Y-95740401D01*
X155895372Y-94759598D01*
X155898799Y-94751325D01*
X155904784Y-94748124D01*
X157312464Y-94467656D01*
X157321247Y-94469400D01*
G37*
%TD.AperFunction*%
%TD*%
%TA.AperFunction,Conductor*%
%TO.N,Net-(D1-A)*%
G36*
X198743918Y-68858283D02*
G01*
X198746594Y-68861186D01*
X199386872Y-69848635D01*
X199388498Y-69857441D01*
X199386872Y-69861365D01*
X198746594Y-70848813D01*
X198739218Y-70853891D01*
X198735272Y-70854051D01*
X197210461Y-70656322D01*
X197202698Y-70651860D01*
X197200266Y-70644719D01*
X197200266Y-69065280D01*
X197203693Y-69057007D01*
X197210458Y-69053678D01*
X198735272Y-68855948D01*
X198743918Y-68858283D01*
G37*
%TD.AperFunction*%
%TD*%
%TA.AperFunction,Conductor*%
%TO.N,Net-(R6-Pad2)*%
G36*
X185715453Y-132263212D02*
G01*
X186933474Y-133201601D01*
X186937936Y-133209363D01*
X186937776Y-133213309D01*
X186692289Y-134364287D01*
X186687211Y-134371663D01*
X186683287Y-134373289D01*
X185532309Y-134618776D01*
X185523503Y-134617150D01*
X185520602Y-134614476D01*
X184582212Y-133396453D01*
X184579878Y-133387808D01*
X184583207Y-133381041D01*
X185700041Y-132264207D01*
X185708313Y-132260781D01*
X185715453Y-132263212D01*
G37*
%TD.AperFunction*%
%TD*%
%TA.AperFunction,Conductor*%
%TO.N,Net-(R1-Pad2)*%
G36*
X110496365Y-103894127D02*
G01*
X111483813Y-104534404D01*
X111488891Y-104541780D01*
X111489051Y-104545726D01*
X111291322Y-106070539D01*
X111286860Y-106078302D01*
X111279719Y-106080734D01*
X109700281Y-106080734D01*
X109692008Y-106077307D01*
X109688678Y-106070539D01*
X109490948Y-104545726D01*
X109493283Y-104537080D01*
X109496182Y-104534407D01*
X110483635Y-103894126D01*
X110492441Y-103892501D01*
X110496365Y-103894127D01*
G37*
%TD.AperFunction*%
%TD*%
%TA.AperFunction,Conductor*%
%TO.N,Net-(U1-DISCH)*%
G36*
X198533463Y-99519888D02*
G01*
X199385494Y-100329766D01*
X199389129Y-100337949D01*
X199388460Y-100342158D01*
X198994333Y-101453074D01*
X198988337Y-101459725D01*
X198984535Y-101460797D01*
X197319550Y-101636634D01*
X197310962Y-101634095D01*
X197306686Y-101626228D01*
X197306621Y-101624999D01*
X197306621Y-100045714D01*
X197310048Y-100037441D01*
X197313708Y-100034962D01*
X198520798Y-99517615D01*
X198529750Y-99517507D01*
X198533463Y-99519888D01*
G37*
%TD.AperFunction*%
%TD*%
%TA.AperFunction,Conductor*%
%TO.N,Net-(BAT1-PadNeg)*%
G36*
X119200829Y-89171165D02*
G01*
X120185595Y-89368119D01*
X120193035Y-89373102D01*
X120195000Y-89379592D01*
X120195000Y-90960408D01*
X120191573Y-90968681D01*
X120185595Y-90971881D01*
X119200839Y-91168832D01*
X119192054Y-91167094D01*
X119190619Y-91165966D01*
X118977800Y-90970000D01*
X118118346Y-90178606D01*
X118114582Y-90170482D01*
X118117665Y-90162075D01*
X118118347Y-90161393D01*
X119190620Y-89174032D01*
X119199026Y-89170950D01*
X119200829Y-89171165D01*
G37*
%TD.AperFunction*%
%TD*%
%TA.AperFunction,Conductor*%
%TO.N,Net-(R5-Pad2)*%
G36*
X161296365Y-103894127D02*
G01*
X162283813Y-104534404D01*
X162288891Y-104541780D01*
X162289051Y-104545726D01*
X162091322Y-106070539D01*
X162086860Y-106078302D01*
X162079719Y-106080734D01*
X160500281Y-106080734D01*
X160492008Y-106077307D01*
X160488678Y-106070539D01*
X160290948Y-104545726D01*
X160293283Y-104537080D01*
X160296182Y-104534407D01*
X161283635Y-103894126D01*
X161292441Y-103892501D01*
X161296365Y-103894127D01*
G37*
%TD.AperFunction*%
%TD*%
%TA.AperFunction,Conductor*%
%TO.N,Net-(R6-Pad2)*%
G36*
X173996365Y-103894127D02*
G01*
X174983813Y-104534404D01*
X174988891Y-104541780D01*
X174989051Y-104545726D01*
X174791322Y-106070539D01*
X174786860Y-106078302D01*
X174779719Y-106080734D01*
X173200281Y-106080734D01*
X173192008Y-106077307D01*
X173188678Y-106070539D01*
X172990948Y-104545726D01*
X172993283Y-104537080D01*
X172996182Y-104534407D01*
X173983635Y-103894126D01*
X173992441Y-103892501D01*
X173996365Y-103894127D01*
G37*
%TD.AperFunction*%
%TD*%
%TA.AperFunction,Conductor*%
%TO.N,Net-(U1-THRES)*%
G36*
X150531666Y-92275265D02*
G01*
X151328723Y-93468965D01*
X151330467Y-93477748D01*
X151327266Y-93483735D01*
X150633735Y-94177266D01*
X150625462Y-94180693D01*
X150618965Y-94178723D01*
X149425265Y-93381666D01*
X149420288Y-93374222D01*
X149422025Y-93365449D01*
X149857994Y-92711241D01*
X149861242Y-92707994D01*
X150515449Y-92272025D01*
X150524233Y-92270290D01*
X150531666Y-92275265D01*
G37*
%TD.AperFunction*%
%TD*%
%TA.AperFunction,Conductor*%
%TO.N,Net-(R4-Pad2)*%
G36*
X148596365Y-103894127D02*
G01*
X149583813Y-104534404D01*
X149588891Y-104541780D01*
X149589051Y-104545726D01*
X149391322Y-106070539D01*
X149386860Y-106078302D01*
X149379719Y-106080734D01*
X147800281Y-106080734D01*
X147792008Y-106077307D01*
X147788678Y-106070539D01*
X147590948Y-104545726D01*
X147593283Y-104537080D01*
X147596182Y-104534407D01*
X148583635Y-103894126D01*
X148592441Y-103892501D01*
X148596365Y-103894127D01*
G37*
%TD.AperFunction*%
%TD*%
M02*
