M48
; DRILL file {KiCad 9.0.6} date 2025-12-13T22:30:04+0100
; FORMAT={-:-/ absolute / metric / decimal}
; #@! TF.CreationDate,2025-12-13T22:30:04+01:00
; #@! TF.GenerationSoftware,Kicad,Pcbnew,9.0.6
; #@! TF.FileFunction,Plated,1,2,PTH
FMAT,2
METRIC
; #@! TA.AperFunction,Plated,PTH,ViaDrill
T1C0.300
; #@! TA.AperFunction,Plated,PTH,ComponentDrill
T2C0.600
; #@! TA.AperFunction,Plated,PTH,ComponentDrill
T3C0.800
; #@! TA.AperFunction,Plated,PTH,ComponentDrill
T4C0.900
; #@! TA.AperFunction,Plated,PTH,ComponentDrill
T5C0.980
; #@! TA.AperFunction,Plated,PTH,ComponentDrill
T6C1.000
; #@! TA.AperFunction,Plated,PTH,ComponentDrill
T7C1.100
; #@! TA.AperFunction,Plated,PTH,ComponentDrill
T8C1.170
; #@! TA.AperFunction,Plated,PTH,ComponentDrill
T9C1.200
; #@! TA.AperFunction,Plated,PTH,ComponentDrill
T10C1.500
%
G90
G05
T1
X146.05Y-85.725
X149.86Y-86.995
X155.956Y-101.854
X160.655Y-81.28
X181.61Y-93.345
X194.31Y-93.98
T2
X143.51Y-95.25
X145.01Y-95.25
T3
X146.05Y-88.94
X146.05Y-91.44
X149.86Y-90.17
X149.86Y-92.71
X149.86Y-95.25
X149.86Y-97.79
X157.48Y-90.17
X157.48Y-92.71
X157.48Y-95.25
X157.48Y-97.79
T4
X142.24Y-81.28
X144.78Y-81.28
X163.83Y-90.17
X163.83Y-92.71
T6
X149.87Y-81.28
X157.47Y-81.28
T7
X163.83Y-77.47
X163.83Y-87.63
T8
X118.11Y-90.17
X181.61Y-90.17
T9
X110.49Y-103.891
X110.49Y-134.371
X123.19Y-103.891
X123.19Y-134.371
X135.89Y-69.845
X135.89Y-100.325
X135.89Y-103.891
X135.89Y-134.371
X148.59Y-103.891
X148.59Y-134.371
X161.29Y-103.891
X161.29Y-134.371
X163.835Y-97.79
X173.99Y-103.891
X173.99Y-134.371
X186.69Y-103.891
X186.69Y-134.371
X194.315Y-97.79
X199.39Y-69.855
X199.39Y-100.335
X199.39Y-103.891
X199.39Y-134.371
T10
X118.11Y-70.17
X181.61Y-70.17
T5
G00X156.07Y-55.23
M15
G01X151.27Y-55.23
M16
G05
G00X156.07Y-62.23
M15
G01X151.27Y-62.23
M16
G05
M30
