%TF.GenerationSoftware,KiCad,Pcbnew,9.0.6*%
%TF.CreationDate,2025-12-13T22:30:01+01:00*%
%TF.ProjectId,piano,7069616e-6f2e-46b6-9963-61645f706362,rev?*%
%TF.SameCoordinates,Original*%
%TF.FileFunction,Legend,Top*%
%TF.FilePolarity,Positive*%
%FSLAX46Y46*%
G04 Gerber Fmt 4.6, Leading zero omitted, Abs format (unit mm)*
G04 Created by KiCad (PCBNEW 9.0.6) date 2025-12-13 22:30:01*
%MOMM*%
%LPD*%
G01*
G04 APERTURE LIST*
%ADD10C,0.100000*%
%ADD11C,0.150000*%
%ADD12C,0.120000*%
%ADD13C,0.200000*%
%ADD14C,0.127000*%
G04 APERTURE END LIST*
D10*
X105078884Y-52577419D02*
X105078884Y-51577419D01*
X105078884Y-51577419D02*
X105650312Y-52577419D01*
X105650312Y-52577419D02*
X105650312Y-51577419D01*
X106126503Y-52053609D02*
X106459836Y-52053609D01*
X106602693Y-52577419D02*
X106126503Y-52577419D01*
X106126503Y-52577419D02*
X106126503Y-51577419D01*
X106126503Y-51577419D02*
X106602693Y-51577419D01*
X107507455Y-51577419D02*
X107031265Y-51577419D01*
X107031265Y-51577419D02*
X106983646Y-52053609D01*
X106983646Y-52053609D02*
X107031265Y-52005990D01*
X107031265Y-52005990D02*
X107126503Y-51958371D01*
X107126503Y-51958371D02*
X107364598Y-51958371D01*
X107364598Y-51958371D02*
X107459836Y-52005990D01*
X107459836Y-52005990D02*
X107507455Y-52053609D01*
X107507455Y-52053609D02*
X107555074Y-52148847D01*
X107555074Y-52148847D02*
X107555074Y-52386942D01*
X107555074Y-52386942D02*
X107507455Y-52482180D01*
X107507455Y-52482180D02*
X107459836Y-52529800D01*
X107459836Y-52529800D02*
X107364598Y-52577419D01*
X107364598Y-52577419D02*
X107126503Y-52577419D01*
X107126503Y-52577419D02*
X107031265Y-52529800D01*
X107031265Y-52529800D02*
X106983646Y-52482180D01*
X108459836Y-51577419D02*
X107983646Y-51577419D01*
X107983646Y-51577419D02*
X107936027Y-52053609D01*
X107936027Y-52053609D02*
X107983646Y-52005990D01*
X107983646Y-52005990D02*
X108078884Y-51958371D01*
X108078884Y-51958371D02*
X108316979Y-51958371D01*
X108316979Y-51958371D02*
X108412217Y-52005990D01*
X108412217Y-52005990D02*
X108459836Y-52053609D01*
X108459836Y-52053609D02*
X108507455Y-52148847D01*
X108507455Y-52148847D02*
X108507455Y-52386942D01*
X108507455Y-52386942D02*
X108459836Y-52482180D01*
X108459836Y-52482180D02*
X108412217Y-52529800D01*
X108412217Y-52529800D02*
X108316979Y-52577419D01*
X108316979Y-52577419D02*
X108078884Y-52577419D01*
X108078884Y-52577419D02*
X107983646Y-52529800D01*
X107983646Y-52529800D02*
X107936027Y-52482180D01*
X109412217Y-51577419D02*
X108936027Y-51577419D01*
X108936027Y-51577419D02*
X108888408Y-52053609D01*
X108888408Y-52053609D02*
X108936027Y-52005990D01*
X108936027Y-52005990D02*
X109031265Y-51958371D01*
X109031265Y-51958371D02*
X109269360Y-51958371D01*
X109269360Y-51958371D02*
X109364598Y-52005990D01*
X109364598Y-52005990D02*
X109412217Y-52053609D01*
X109412217Y-52053609D02*
X109459836Y-52148847D01*
X109459836Y-52148847D02*
X109459836Y-52386942D01*
X109459836Y-52386942D02*
X109412217Y-52482180D01*
X109412217Y-52482180D02*
X109364598Y-52529800D01*
X109364598Y-52529800D02*
X109269360Y-52577419D01*
X109269360Y-52577419D02*
X109031265Y-52577419D01*
X109031265Y-52577419D02*
X108936027Y-52529800D01*
X108936027Y-52529800D02*
X108888408Y-52482180D01*
X110650313Y-52053609D02*
X110983646Y-52053609D01*
X111126503Y-52577419D02*
X110650313Y-52577419D01*
X110650313Y-52577419D02*
X110650313Y-51577419D01*
X110650313Y-51577419D02*
X111126503Y-51577419D01*
X111697932Y-52577419D02*
X111602694Y-52529800D01*
X111602694Y-52529800D02*
X111555075Y-52434561D01*
X111555075Y-52434561D02*
X111555075Y-51577419D01*
X112459837Y-52529800D02*
X112364599Y-52577419D01*
X112364599Y-52577419D02*
X112174123Y-52577419D01*
X112174123Y-52577419D02*
X112078885Y-52529800D01*
X112078885Y-52529800D02*
X112031266Y-52434561D01*
X112031266Y-52434561D02*
X112031266Y-52053609D01*
X112031266Y-52053609D02*
X112078885Y-51958371D01*
X112078885Y-51958371D02*
X112174123Y-51910752D01*
X112174123Y-51910752D02*
X112364599Y-51910752D01*
X112364599Y-51910752D02*
X112459837Y-51958371D01*
X112459837Y-51958371D02*
X112507456Y-52053609D01*
X112507456Y-52053609D02*
X112507456Y-52148847D01*
X112507456Y-52148847D02*
X112031266Y-52244085D01*
X113364599Y-52529800D02*
X113269361Y-52577419D01*
X113269361Y-52577419D02*
X113078885Y-52577419D01*
X113078885Y-52577419D02*
X112983647Y-52529800D01*
X112983647Y-52529800D02*
X112936028Y-52482180D01*
X112936028Y-52482180D02*
X112888409Y-52386942D01*
X112888409Y-52386942D02*
X112888409Y-52101228D01*
X112888409Y-52101228D02*
X112936028Y-52005990D01*
X112936028Y-52005990D02*
X112983647Y-51958371D01*
X112983647Y-51958371D02*
X113078885Y-51910752D01*
X113078885Y-51910752D02*
X113269361Y-51910752D01*
X113269361Y-51910752D02*
X113364599Y-51958371D01*
X113650314Y-51910752D02*
X114031266Y-51910752D01*
X113793171Y-51577419D02*
X113793171Y-52434561D01*
X113793171Y-52434561D02*
X113840790Y-52529800D01*
X113840790Y-52529800D02*
X113936028Y-52577419D01*
X113936028Y-52577419D02*
X114031266Y-52577419D01*
X114364600Y-52577419D02*
X114364600Y-51910752D01*
X114364600Y-52101228D02*
X114412219Y-52005990D01*
X114412219Y-52005990D02*
X114459838Y-51958371D01*
X114459838Y-51958371D02*
X114555076Y-51910752D01*
X114555076Y-51910752D02*
X114650314Y-51910752D01*
X114983648Y-52577419D02*
X114983648Y-51910752D01*
X114983648Y-51577419D02*
X114936029Y-51625038D01*
X114936029Y-51625038D02*
X114983648Y-51672657D01*
X114983648Y-51672657D02*
X115031267Y-51625038D01*
X115031267Y-51625038D02*
X114983648Y-51577419D01*
X114983648Y-51577419D02*
X114983648Y-51672657D01*
X115888409Y-52529800D02*
X115793171Y-52577419D01*
X115793171Y-52577419D02*
X115602695Y-52577419D01*
X115602695Y-52577419D02*
X115507457Y-52529800D01*
X115507457Y-52529800D02*
X115459838Y-52482180D01*
X115459838Y-52482180D02*
X115412219Y-52386942D01*
X115412219Y-52386942D02*
X115412219Y-52101228D01*
X115412219Y-52101228D02*
X115459838Y-52005990D01*
X115459838Y-52005990D02*
X115507457Y-51958371D01*
X115507457Y-51958371D02*
X115602695Y-51910752D01*
X115602695Y-51910752D02*
X115793171Y-51910752D01*
X115793171Y-51910752D02*
X115888409Y-51958371D01*
X117078886Y-52577419D02*
X117078886Y-51577419D01*
X117078886Y-51577419D02*
X117459838Y-51577419D01*
X117459838Y-51577419D02*
X117555076Y-51625038D01*
X117555076Y-51625038D02*
X117602695Y-51672657D01*
X117602695Y-51672657D02*
X117650314Y-51767895D01*
X117650314Y-51767895D02*
X117650314Y-51910752D01*
X117650314Y-51910752D02*
X117602695Y-52005990D01*
X117602695Y-52005990D02*
X117555076Y-52053609D01*
X117555076Y-52053609D02*
X117459838Y-52101228D01*
X117459838Y-52101228D02*
X117078886Y-52101228D01*
X118078886Y-52577419D02*
X118078886Y-51910752D01*
X118078886Y-51577419D02*
X118031267Y-51625038D01*
X118031267Y-51625038D02*
X118078886Y-51672657D01*
X118078886Y-51672657D02*
X118126505Y-51625038D01*
X118126505Y-51625038D02*
X118078886Y-51577419D01*
X118078886Y-51577419D02*
X118078886Y-51672657D01*
X118983647Y-52577419D02*
X118983647Y-52053609D01*
X118983647Y-52053609D02*
X118936028Y-51958371D01*
X118936028Y-51958371D02*
X118840790Y-51910752D01*
X118840790Y-51910752D02*
X118650314Y-51910752D01*
X118650314Y-51910752D02*
X118555076Y-51958371D01*
X118983647Y-52529800D02*
X118888409Y-52577419D01*
X118888409Y-52577419D02*
X118650314Y-52577419D01*
X118650314Y-52577419D02*
X118555076Y-52529800D01*
X118555076Y-52529800D02*
X118507457Y-52434561D01*
X118507457Y-52434561D02*
X118507457Y-52339323D01*
X118507457Y-52339323D02*
X118555076Y-52244085D01*
X118555076Y-52244085D02*
X118650314Y-52196466D01*
X118650314Y-52196466D02*
X118888409Y-52196466D01*
X118888409Y-52196466D02*
X118983647Y-52148847D01*
X119459838Y-51910752D02*
X119459838Y-52577419D01*
X119459838Y-52005990D02*
X119507457Y-51958371D01*
X119507457Y-51958371D02*
X119602695Y-51910752D01*
X119602695Y-51910752D02*
X119745552Y-51910752D01*
X119745552Y-51910752D02*
X119840790Y-51958371D01*
X119840790Y-51958371D02*
X119888409Y-52053609D01*
X119888409Y-52053609D02*
X119888409Y-52577419D01*
X120507457Y-52577419D02*
X120412219Y-52529800D01*
X120412219Y-52529800D02*
X120364600Y-52482180D01*
X120364600Y-52482180D02*
X120316981Y-52386942D01*
X120316981Y-52386942D02*
X120316981Y-52101228D01*
X120316981Y-52101228D02*
X120364600Y-52005990D01*
X120364600Y-52005990D02*
X120412219Y-51958371D01*
X120412219Y-51958371D02*
X120507457Y-51910752D01*
X120507457Y-51910752D02*
X120650314Y-51910752D01*
X120650314Y-51910752D02*
X120745552Y-51958371D01*
X120745552Y-51958371D02*
X120793171Y-52005990D01*
X120793171Y-52005990D02*
X120840790Y-52101228D01*
X120840790Y-52101228D02*
X120840790Y-52386942D01*
X120840790Y-52386942D02*
X120793171Y-52482180D01*
X120793171Y-52482180D02*
X120745552Y-52529800D01*
X120745552Y-52529800D02*
X120650314Y-52577419D01*
X120650314Y-52577419D02*
X120507457Y-52577419D01*
X122602695Y-52482180D02*
X122555076Y-52529800D01*
X122555076Y-52529800D02*
X122412219Y-52577419D01*
X122412219Y-52577419D02*
X122316981Y-52577419D01*
X122316981Y-52577419D02*
X122174124Y-52529800D01*
X122174124Y-52529800D02*
X122078886Y-52434561D01*
X122078886Y-52434561D02*
X122031267Y-52339323D01*
X122031267Y-52339323D02*
X121983648Y-52148847D01*
X121983648Y-52148847D02*
X121983648Y-52005990D01*
X121983648Y-52005990D02*
X122031267Y-51815514D01*
X122031267Y-51815514D02*
X122078886Y-51720276D01*
X122078886Y-51720276D02*
X122174124Y-51625038D01*
X122174124Y-51625038D02*
X122316981Y-51577419D01*
X122316981Y-51577419D02*
X122412219Y-51577419D01*
X122412219Y-51577419D02*
X122555076Y-51625038D01*
X122555076Y-51625038D02*
X122602695Y-51672657D01*
X123031267Y-52577419D02*
X123031267Y-51910752D01*
X123031267Y-51577419D02*
X122983648Y-51625038D01*
X122983648Y-51625038D02*
X123031267Y-51672657D01*
X123031267Y-51672657D02*
X123078886Y-51625038D01*
X123078886Y-51625038D02*
X123031267Y-51577419D01*
X123031267Y-51577419D02*
X123031267Y-51672657D01*
X123507457Y-52577419D02*
X123507457Y-51910752D01*
X123507457Y-52101228D02*
X123555076Y-52005990D01*
X123555076Y-52005990D02*
X123602695Y-51958371D01*
X123602695Y-51958371D02*
X123697933Y-51910752D01*
X123697933Y-51910752D02*
X123793171Y-51910752D01*
X124555076Y-52529800D02*
X124459838Y-52577419D01*
X124459838Y-52577419D02*
X124269362Y-52577419D01*
X124269362Y-52577419D02*
X124174124Y-52529800D01*
X124174124Y-52529800D02*
X124126505Y-52482180D01*
X124126505Y-52482180D02*
X124078886Y-52386942D01*
X124078886Y-52386942D02*
X124078886Y-52101228D01*
X124078886Y-52101228D02*
X124126505Y-52005990D01*
X124126505Y-52005990D02*
X124174124Y-51958371D01*
X124174124Y-51958371D02*
X124269362Y-51910752D01*
X124269362Y-51910752D02*
X124459838Y-51910752D01*
X124459838Y-51910752D02*
X124555076Y-51958371D01*
X124983648Y-52577419D02*
X124983648Y-51910752D01*
X124983648Y-51577419D02*
X124936029Y-51625038D01*
X124936029Y-51625038D02*
X124983648Y-51672657D01*
X124983648Y-51672657D02*
X125031267Y-51625038D01*
X125031267Y-51625038D02*
X124983648Y-51577419D01*
X124983648Y-51577419D02*
X124983648Y-51672657D01*
X125888409Y-51910752D02*
X125888409Y-52577419D01*
X125459838Y-51910752D02*
X125459838Y-52434561D01*
X125459838Y-52434561D02*
X125507457Y-52529800D01*
X125507457Y-52529800D02*
X125602695Y-52577419D01*
X125602695Y-52577419D02*
X125745552Y-52577419D01*
X125745552Y-52577419D02*
X125840790Y-52529800D01*
X125840790Y-52529800D02*
X125888409Y-52482180D01*
X126221743Y-51910752D02*
X126602695Y-51910752D01*
X126364600Y-51577419D02*
X126364600Y-52434561D01*
X126364600Y-52434561D02*
X126412219Y-52529800D01*
X126412219Y-52529800D02*
X126507457Y-52577419D01*
X126507457Y-52577419D02*
X126602695Y-52577419D01*
X171690312Y-53752180D02*
X171642693Y-53799800D01*
X171642693Y-53799800D02*
X171499836Y-53847419D01*
X171499836Y-53847419D02*
X171404598Y-53847419D01*
X171404598Y-53847419D02*
X171261741Y-53799800D01*
X171261741Y-53799800D02*
X171166503Y-53704561D01*
X171166503Y-53704561D02*
X171118884Y-53609323D01*
X171118884Y-53609323D02*
X171071265Y-53418847D01*
X171071265Y-53418847D02*
X171071265Y-53275990D01*
X171071265Y-53275990D02*
X171118884Y-53085514D01*
X171118884Y-53085514D02*
X171166503Y-52990276D01*
X171166503Y-52990276D02*
X171261741Y-52895038D01*
X171261741Y-52895038D02*
X171404598Y-52847419D01*
X171404598Y-52847419D02*
X171499836Y-52847419D01*
X171499836Y-52847419D02*
X171642693Y-52895038D01*
X171642693Y-52895038D02*
X171690312Y-52942657D01*
X172261741Y-53847419D02*
X172166503Y-53799800D01*
X172166503Y-53799800D02*
X172118884Y-53752180D01*
X172118884Y-53752180D02*
X172071265Y-53656942D01*
X172071265Y-53656942D02*
X172071265Y-53371228D01*
X172071265Y-53371228D02*
X172118884Y-53275990D01*
X172118884Y-53275990D02*
X172166503Y-53228371D01*
X172166503Y-53228371D02*
X172261741Y-53180752D01*
X172261741Y-53180752D02*
X172404598Y-53180752D01*
X172404598Y-53180752D02*
X172499836Y-53228371D01*
X172499836Y-53228371D02*
X172547455Y-53275990D01*
X172547455Y-53275990D02*
X172595074Y-53371228D01*
X172595074Y-53371228D02*
X172595074Y-53656942D01*
X172595074Y-53656942D02*
X172547455Y-53752180D01*
X172547455Y-53752180D02*
X172499836Y-53799800D01*
X172499836Y-53799800D02*
X172404598Y-53847419D01*
X172404598Y-53847419D02*
X172261741Y-53847419D01*
X173023646Y-53180752D02*
X173023646Y-54180752D01*
X173023646Y-53228371D02*
X173118884Y-53180752D01*
X173118884Y-53180752D02*
X173309360Y-53180752D01*
X173309360Y-53180752D02*
X173404598Y-53228371D01*
X173404598Y-53228371D02*
X173452217Y-53275990D01*
X173452217Y-53275990D02*
X173499836Y-53371228D01*
X173499836Y-53371228D02*
X173499836Y-53656942D01*
X173499836Y-53656942D02*
X173452217Y-53752180D01*
X173452217Y-53752180D02*
X173404598Y-53799800D01*
X173404598Y-53799800D02*
X173309360Y-53847419D01*
X173309360Y-53847419D02*
X173118884Y-53847419D01*
X173118884Y-53847419D02*
X173023646Y-53799800D01*
X173833170Y-53180752D02*
X174071265Y-53847419D01*
X174309360Y-53180752D02*
X174071265Y-53847419D01*
X174071265Y-53847419D02*
X173976027Y-54085514D01*
X173976027Y-54085514D02*
X173928408Y-54133133D01*
X173928408Y-54133133D02*
X173833170Y-54180752D01*
X174690313Y-53847419D02*
X174690313Y-53180752D01*
X174690313Y-53371228D02*
X174737932Y-53275990D01*
X174737932Y-53275990D02*
X174785551Y-53228371D01*
X174785551Y-53228371D02*
X174880789Y-53180752D01*
X174880789Y-53180752D02*
X174976027Y-53180752D01*
X175309361Y-53847419D02*
X175309361Y-53180752D01*
X175309361Y-52847419D02*
X175261742Y-52895038D01*
X175261742Y-52895038D02*
X175309361Y-52942657D01*
X175309361Y-52942657D02*
X175356980Y-52895038D01*
X175356980Y-52895038D02*
X175309361Y-52847419D01*
X175309361Y-52847419D02*
X175309361Y-52942657D01*
X176214122Y-53180752D02*
X176214122Y-53990276D01*
X176214122Y-53990276D02*
X176166503Y-54085514D01*
X176166503Y-54085514D02*
X176118884Y-54133133D01*
X176118884Y-54133133D02*
X176023646Y-54180752D01*
X176023646Y-54180752D02*
X175880789Y-54180752D01*
X175880789Y-54180752D02*
X175785551Y-54133133D01*
X176214122Y-53799800D02*
X176118884Y-53847419D01*
X176118884Y-53847419D02*
X175928408Y-53847419D01*
X175928408Y-53847419D02*
X175833170Y-53799800D01*
X175833170Y-53799800D02*
X175785551Y-53752180D01*
X175785551Y-53752180D02*
X175737932Y-53656942D01*
X175737932Y-53656942D02*
X175737932Y-53371228D01*
X175737932Y-53371228D02*
X175785551Y-53275990D01*
X175785551Y-53275990D02*
X175833170Y-53228371D01*
X175833170Y-53228371D02*
X175928408Y-53180752D01*
X175928408Y-53180752D02*
X176118884Y-53180752D01*
X176118884Y-53180752D02*
X176214122Y-53228371D01*
X176690313Y-53847419D02*
X176690313Y-52847419D01*
X177118884Y-53847419D02*
X177118884Y-53323609D01*
X177118884Y-53323609D02*
X177071265Y-53228371D01*
X177071265Y-53228371D02*
X176976027Y-53180752D01*
X176976027Y-53180752D02*
X176833170Y-53180752D01*
X176833170Y-53180752D02*
X176737932Y-53228371D01*
X176737932Y-53228371D02*
X176690313Y-53275990D01*
X177452218Y-53180752D02*
X177833170Y-53180752D01*
X177595075Y-52847419D02*
X177595075Y-53704561D01*
X177595075Y-53704561D02*
X177642694Y-53799800D01*
X177642694Y-53799800D02*
X177737932Y-53847419D01*
X177737932Y-53847419D02*
X177833170Y-53847419D01*
X179214123Y-54228371D02*
X179166504Y-54180752D01*
X179166504Y-54180752D02*
X179071266Y-54037895D01*
X179071266Y-54037895D02*
X179023647Y-53942657D01*
X179023647Y-53942657D02*
X178976028Y-53799800D01*
X178976028Y-53799800D02*
X178928409Y-53561704D01*
X178928409Y-53561704D02*
X178928409Y-53371228D01*
X178928409Y-53371228D02*
X178976028Y-53133133D01*
X178976028Y-53133133D02*
X179023647Y-52990276D01*
X179023647Y-52990276D02*
X179071266Y-52895038D01*
X179071266Y-52895038D02*
X179166504Y-52752180D01*
X179166504Y-52752180D02*
X179214123Y-52704561D01*
X180166504Y-53752180D02*
X180118885Y-53799800D01*
X180118885Y-53799800D02*
X179976028Y-53847419D01*
X179976028Y-53847419D02*
X179880790Y-53847419D01*
X179880790Y-53847419D02*
X179737933Y-53799800D01*
X179737933Y-53799800D02*
X179642695Y-53704561D01*
X179642695Y-53704561D02*
X179595076Y-53609323D01*
X179595076Y-53609323D02*
X179547457Y-53418847D01*
X179547457Y-53418847D02*
X179547457Y-53275990D01*
X179547457Y-53275990D02*
X179595076Y-53085514D01*
X179595076Y-53085514D02*
X179642695Y-52990276D01*
X179642695Y-52990276D02*
X179737933Y-52895038D01*
X179737933Y-52895038D02*
X179880790Y-52847419D01*
X179880790Y-52847419D02*
X179976028Y-52847419D01*
X179976028Y-52847419D02*
X180118885Y-52895038D01*
X180118885Y-52895038D02*
X180166504Y-52942657D01*
X180499838Y-54228371D02*
X180547457Y-54180752D01*
X180547457Y-54180752D02*
X180642695Y-54037895D01*
X180642695Y-54037895D02*
X180690314Y-53942657D01*
X180690314Y-53942657D02*
X180737933Y-53799800D01*
X180737933Y-53799800D02*
X180785552Y-53561704D01*
X180785552Y-53561704D02*
X180785552Y-53371228D01*
X180785552Y-53371228D02*
X180737933Y-53133133D01*
X180737933Y-53133133D02*
X180690314Y-52990276D01*
X180690314Y-52990276D02*
X180642695Y-52895038D01*
X180642695Y-52895038D02*
X180547457Y-52752180D01*
X180547457Y-52752180D02*
X180499838Y-52704561D01*
X182023648Y-53847419D02*
X182023648Y-52847419D01*
X182023648Y-53228371D02*
X182118886Y-53180752D01*
X182118886Y-53180752D02*
X182309362Y-53180752D01*
X182309362Y-53180752D02*
X182404600Y-53228371D01*
X182404600Y-53228371D02*
X182452219Y-53275990D01*
X182452219Y-53275990D02*
X182499838Y-53371228D01*
X182499838Y-53371228D02*
X182499838Y-53656942D01*
X182499838Y-53656942D02*
X182452219Y-53752180D01*
X182452219Y-53752180D02*
X182404600Y-53799800D01*
X182404600Y-53799800D02*
X182309362Y-53847419D01*
X182309362Y-53847419D02*
X182118886Y-53847419D01*
X182118886Y-53847419D02*
X182023648Y-53799800D01*
X182833172Y-53180752D02*
X183071267Y-53847419D01*
X183309362Y-53180752D02*
X183071267Y-53847419D01*
X183071267Y-53847419D02*
X182976029Y-54085514D01*
X182976029Y-54085514D02*
X182928410Y-54133133D01*
X182928410Y-54133133D02*
X182833172Y-54180752D01*
X184309363Y-52847419D02*
X184880791Y-52847419D01*
X184595077Y-53847419D02*
X184595077Y-52847419D01*
X185595077Y-53799800D02*
X185499839Y-53847419D01*
X185499839Y-53847419D02*
X185309363Y-53847419D01*
X185309363Y-53847419D02*
X185214125Y-53799800D01*
X185214125Y-53799800D02*
X185166506Y-53704561D01*
X185166506Y-53704561D02*
X185166506Y-53323609D01*
X185166506Y-53323609D02*
X185214125Y-53228371D01*
X185214125Y-53228371D02*
X185309363Y-53180752D01*
X185309363Y-53180752D02*
X185499839Y-53180752D01*
X185499839Y-53180752D02*
X185595077Y-53228371D01*
X185595077Y-53228371D02*
X185642696Y-53323609D01*
X185642696Y-53323609D02*
X185642696Y-53418847D01*
X185642696Y-53418847D02*
X185166506Y-53514085D01*
X186071268Y-53180752D02*
X186071268Y-53847419D01*
X186071268Y-53275990D02*
X186118887Y-53228371D01*
X186118887Y-53228371D02*
X186214125Y-53180752D01*
X186214125Y-53180752D02*
X186356982Y-53180752D01*
X186356982Y-53180752D02*
X186452220Y-53228371D01*
X186452220Y-53228371D02*
X186499839Y-53323609D01*
X186499839Y-53323609D02*
X186499839Y-53847419D01*
X186976030Y-53847419D02*
X186976030Y-53180752D01*
X186976030Y-53371228D02*
X187023649Y-53275990D01*
X187023649Y-53275990D02*
X187071268Y-53228371D01*
X187071268Y-53228371D02*
X187166506Y-53180752D01*
X187166506Y-53180752D02*
X187261744Y-53180752D01*
X187595078Y-53847419D02*
X187595078Y-53180752D01*
X187595078Y-52847419D02*
X187547459Y-52895038D01*
X187547459Y-52895038D02*
X187595078Y-52942657D01*
X187595078Y-52942657D02*
X187642697Y-52895038D01*
X187642697Y-52895038D02*
X187595078Y-52847419D01*
X187595078Y-52847419D02*
X187595078Y-52942657D01*
X188785554Y-52942657D02*
X188833173Y-52895038D01*
X188833173Y-52895038D02*
X188928411Y-52847419D01*
X188928411Y-52847419D02*
X189166506Y-52847419D01*
X189166506Y-52847419D02*
X189261744Y-52895038D01*
X189261744Y-52895038D02*
X189309363Y-52942657D01*
X189309363Y-52942657D02*
X189356982Y-53037895D01*
X189356982Y-53037895D02*
X189356982Y-53133133D01*
X189356982Y-53133133D02*
X189309363Y-53275990D01*
X189309363Y-53275990D02*
X188737935Y-53847419D01*
X188737935Y-53847419D02*
X189356982Y-53847419D01*
X189976030Y-52847419D02*
X190071268Y-52847419D01*
X190071268Y-52847419D02*
X190166506Y-52895038D01*
X190166506Y-52895038D02*
X190214125Y-52942657D01*
X190214125Y-52942657D02*
X190261744Y-53037895D01*
X190261744Y-53037895D02*
X190309363Y-53228371D01*
X190309363Y-53228371D02*
X190309363Y-53466466D01*
X190309363Y-53466466D02*
X190261744Y-53656942D01*
X190261744Y-53656942D02*
X190214125Y-53752180D01*
X190214125Y-53752180D02*
X190166506Y-53799800D01*
X190166506Y-53799800D02*
X190071268Y-53847419D01*
X190071268Y-53847419D02*
X189976030Y-53847419D01*
X189976030Y-53847419D02*
X189880792Y-53799800D01*
X189880792Y-53799800D02*
X189833173Y-53752180D01*
X189833173Y-53752180D02*
X189785554Y-53656942D01*
X189785554Y-53656942D02*
X189737935Y-53466466D01*
X189737935Y-53466466D02*
X189737935Y-53228371D01*
X189737935Y-53228371D02*
X189785554Y-53037895D01*
X189785554Y-53037895D02*
X189833173Y-52942657D01*
X189833173Y-52942657D02*
X189880792Y-52895038D01*
X189880792Y-52895038D02*
X189976030Y-52847419D01*
X190690316Y-52942657D02*
X190737935Y-52895038D01*
X190737935Y-52895038D02*
X190833173Y-52847419D01*
X190833173Y-52847419D02*
X191071268Y-52847419D01*
X191071268Y-52847419D02*
X191166506Y-52895038D01*
X191166506Y-52895038D02*
X191214125Y-52942657D01*
X191214125Y-52942657D02*
X191261744Y-53037895D01*
X191261744Y-53037895D02*
X191261744Y-53133133D01*
X191261744Y-53133133D02*
X191214125Y-53275990D01*
X191214125Y-53275990D02*
X190642697Y-53847419D01*
X190642697Y-53847419D02*
X191261744Y-53847419D01*
X192166506Y-52847419D02*
X191690316Y-52847419D01*
X191690316Y-52847419D02*
X191642697Y-53323609D01*
X191642697Y-53323609D02*
X191690316Y-53275990D01*
X191690316Y-53275990D02*
X191785554Y-53228371D01*
X191785554Y-53228371D02*
X192023649Y-53228371D01*
X192023649Y-53228371D02*
X192118887Y-53275990D01*
X192118887Y-53275990D02*
X192166506Y-53323609D01*
X192166506Y-53323609D02*
X192214125Y-53418847D01*
X192214125Y-53418847D02*
X192214125Y-53656942D01*
X192214125Y-53656942D02*
X192166506Y-53752180D01*
X192166506Y-53752180D02*
X192118887Y-53799800D01*
X192118887Y-53799800D02*
X192023649Y-53847419D01*
X192023649Y-53847419D02*
X191785554Y-53847419D01*
X191785554Y-53847419D02*
X191690316Y-53799800D01*
X191690316Y-53799800D02*
X191642697Y-53752180D01*
X192690316Y-53799800D02*
X192690316Y-53847419D01*
X192690316Y-53847419D02*
X192642697Y-53942657D01*
X192642697Y-53942657D02*
X192595078Y-53990276D01*
X194452220Y-53752180D02*
X194404601Y-53799800D01*
X194404601Y-53799800D02*
X194261744Y-53847419D01*
X194261744Y-53847419D02*
X194166506Y-53847419D01*
X194166506Y-53847419D02*
X194023649Y-53799800D01*
X194023649Y-53799800D02*
X193928411Y-53704561D01*
X193928411Y-53704561D02*
X193880792Y-53609323D01*
X193880792Y-53609323D02*
X193833173Y-53418847D01*
X193833173Y-53418847D02*
X193833173Y-53275990D01*
X193833173Y-53275990D02*
X193880792Y-53085514D01*
X193880792Y-53085514D02*
X193928411Y-52990276D01*
X193928411Y-52990276D02*
X194023649Y-52895038D01*
X194023649Y-52895038D02*
X194166506Y-52847419D01*
X194166506Y-52847419D02*
X194261744Y-52847419D01*
X194261744Y-52847419D02*
X194404601Y-52895038D01*
X194404601Y-52895038D02*
X194452220Y-52942657D01*
X195452220Y-53752180D02*
X195404601Y-53799800D01*
X195404601Y-53799800D02*
X195261744Y-53847419D01*
X195261744Y-53847419D02*
X195166506Y-53847419D01*
X195166506Y-53847419D02*
X195023649Y-53799800D01*
X195023649Y-53799800D02*
X194928411Y-53704561D01*
X194928411Y-53704561D02*
X194880792Y-53609323D01*
X194880792Y-53609323D02*
X194833173Y-53418847D01*
X194833173Y-53418847D02*
X194833173Y-53275990D01*
X194833173Y-53275990D02*
X194880792Y-53085514D01*
X194880792Y-53085514D02*
X194928411Y-52990276D01*
X194928411Y-52990276D02*
X195023649Y-52895038D01*
X195023649Y-52895038D02*
X195166506Y-52847419D01*
X195166506Y-52847419D02*
X195261744Y-52847419D01*
X195261744Y-52847419D02*
X195404601Y-52895038D01*
X195404601Y-52895038D02*
X195452220Y-52942657D01*
X196976030Y-53323609D02*
X197118887Y-53371228D01*
X197118887Y-53371228D02*
X197166506Y-53418847D01*
X197166506Y-53418847D02*
X197214125Y-53514085D01*
X197214125Y-53514085D02*
X197214125Y-53656942D01*
X197214125Y-53656942D02*
X197166506Y-53752180D01*
X197166506Y-53752180D02*
X197118887Y-53799800D01*
X197118887Y-53799800D02*
X197023649Y-53847419D01*
X197023649Y-53847419D02*
X196642697Y-53847419D01*
X196642697Y-53847419D02*
X196642697Y-52847419D01*
X196642697Y-52847419D02*
X196976030Y-52847419D01*
X196976030Y-52847419D02*
X197071268Y-52895038D01*
X197071268Y-52895038D02*
X197118887Y-52942657D01*
X197118887Y-52942657D02*
X197166506Y-53037895D01*
X197166506Y-53037895D02*
X197166506Y-53133133D01*
X197166506Y-53133133D02*
X197118887Y-53228371D01*
X197118887Y-53228371D02*
X197071268Y-53275990D01*
X197071268Y-53275990D02*
X196976030Y-53323609D01*
X196976030Y-53323609D02*
X196642697Y-53323609D01*
X197833173Y-53371228D02*
X197833173Y-53847419D01*
X197499840Y-52847419D02*
X197833173Y-53371228D01*
X197833173Y-53371228D02*
X198166506Y-52847419D01*
X198499840Y-53466466D02*
X199261745Y-53466466D01*
X199690316Y-53799800D02*
X199833173Y-53847419D01*
X199833173Y-53847419D02*
X200071268Y-53847419D01*
X200071268Y-53847419D02*
X200166506Y-53799800D01*
X200166506Y-53799800D02*
X200214125Y-53752180D01*
X200214125Y-53752180D02*
X200261744Y-53656942D01*
X200261744Y-53656942D02*
X200261744Y-53561704D01*
X200261744Y-53561704D02*
X200214125Y-53466466D01*
X200214125Y-53466466D02*
X200166506Y-53418847D01*
X200166506Y-53418847D02*
X200071268Y-53371228D01*
X200071268Y-53371228D02*
X199880792Y-53323609D01*
X199880792Y-53323609D02*
X199785554Y-53275990D01*
X199785554Y-53275990D02*
X199737935Y-53228371D01*
X199737935Y-53228371D02*
X199690316Y-53133133D01*
X199690316Y-53133133D02*
X199690316Y-53037895D01*
X199690316Y-53037895D02*
X199737935Y-52942657D01*
X199737935Y-52942657D02*
X199785554Y-52895038D01*
X199785554Y-52895038D02*
X199880792Y-52847419D01*
X199880792Y-52847419D02*
X200118887Y-52847419D01*
X200118887Y-52847419D02*
X200261744Y-52895038D01*
X200642697Y-53561704D02*
X201118887Y-53561704D01*
X200547459Y-53847419D02*
X200880792Y-52847419D01*
X200880792Y-52847419D02*
X201214125Y-53847419D01*
D11*
X161324819Y-92178094D02*
X160324819Y-92178094D01*
X160324819Y-92178094D02*
X160324819Y-91939999D01*
X160324819Y-91939999D02*
X160372438Y-91797142D01*
X160372438Y-91797142D02*
X160467676Y-91701904D01*
X160467676Y-91701904D02*
X160562914Y-91654285D01*
X160562914Y-91654285D02*
X160753390Y-91606666D01*
X160753390Y-91606666D02*
X160896247Y-91606666D01*
X160896247Y-91606666D02*
X161086723Y-91654285D01*
X161086723Y-91654285D02*
X161181961Y-91701904D01*
X161181961Y-91701904D02*
X161277200Y-91797142D01*
X161277200Y-91797142D02*
X161324819Y-91939999D01*
X161324819Y-91939999D02*
X161324819Y-92178094D01*
X161324819Y-90654285D02*
X161324819Y-91225713D01*
X161324819Y-90939999D02*
X160324819Y-90939999D01*
X160324819Y-90939999D02*
X160467676Y-91035237D01*
X160467676Y-91035237D02*
X160562914Y-91130475D01*
X160562914Y-91130475D02*
X160610533Y-91225713D01*
X158008752Y-75697923D02*
X158151609Y-75745542D01*
X158151609Y-75745542D02*
X158199228Y-75793161D01*
X158199228Y-75793161D02*
X158246847Y-75888399D01*
X158246847Y-75888399D02*
X158246847Y-76031256D01*
X158246847Y-76031256D02*
X158199228Y-76126494D01*
X158199228Y-76126494D02*
X158151609Y-76174114D01*
X158151609Y-76174114D02*
X158056371Y-76221733D01*
X158056371Y-76221733D02*
X157675419Y-76221733D01*
X157675419Y-76221733D02*
X157675419Y-75221733D01*
X157675419Y-75221733D02*
X158008752Y-75221733D01*
X158008752Y-75221733D02*
X158103990Y-75269352D01*
X158103990Y-75269352D02*
X158151609Y-75316971D01*
X158151609Y-75316971D02*
X158199228Y-75412209D01*
X158199228Y-75412209D02*
X158199228Y-75507447D01*
X158199228Y-75507447D02*
X158151609Y-75602685D01*
X158151609Y-75602685D02*
X158103990Y-75650304D01*
X158103990Y-75650304D02*
X158008752Y-75697923D01*
X158008752Y-75697923D02*
X157675419Y-75697923D01*
X158580181Y-75221733D02*
X159246847Y-75221733D01*
X159246847Y-75221733D02*
X158580181Y-76221733D01*
X158580181Y-76221733D02*
X159246847Y-76221733D01*
X160151609Y-76221733D02*
X159580181Y-76221733D01*
X159865895Y-76221733D02*
X159865895Y-75221733D01*
X159865895Y-75221733D02*
X159770657Y-75364590D01*
X159770657Y-75364590D02*
X159675419Y-75459828D01*
X159675419Y-75459828D02*
X159580181Y-75507447D01*
X149479048Y-78813866D02*
X150240953Y-78813866D01*
X149860000Y-79194819D02*
X149860000Y-78432914D01*
X140464819Y-85727857D02*
X139988628Y-86061190D01*
X140464819Y-86299285D02*
X139464819Y-86299285D01*
X139464819Y-86299285D02*
X139464819Y-85918333D01*
X139464819Y-85918333D02*
X139512438Y-85823095D01*
X139512438Y-85823095D02*
X139560057Y-85775476D01*
X139560057Y-85775476D02*
X139655295Y-85727857D01*
X139655295Y-85727857D02*
X139798152Y-85727857D01*
X139798152Y-85727857D02*
X139893390Y-85775476D01*
X139893390Y-85775476D02*
X139941009Y-85823095D01*
X139941009Y-85823095D02*
X139988628Y-85918333D01*
X139988628Y-85918333D02*
X139988628Y-86299285D01*
X140464819Y-84775476D02*
X140464819Y-85346904D01*
X140464819Y-85061190D02*
X139464819Y-85061190D01*
X139464819Y-85061190D02*
X139607676Y-85156428D01*
X139607676Y-85156428D02*
X139702914Y-85251666D01*
X139702914Y-85251666D02*
X139750533Y-85346904D01*
X140464819Y-83823095D02*
X140464819Y-84394523D01*
X140464819Y-84108809D02*
X139464819Y-84108809D01*
X139464819Y-84108809D02*
X139607676Y-84204047D01*
X139607676Y-84204047D02*
X139702914Y-84299285D01*
X139702914Y-84299285D02*
X139750533Y-84394523D01*
X141559580Y-95416666D02*
X141607200Y-95464285D01*
X141607200Y-95464285D02*
X141654819Y-95607142D01*
X141654819Y-95607142D02*
X141654819Y-95702380D01*
X141654819Y-95702380D02*
X141607200Y-95845237D01*
X141607200Y-95845237D02*
X141511961Y-95940475D01*
X141511961Y-95940475D02*
X141416723Y-95988094D01*
X141416723Y-95988094D02*
X141226247Y-96035713D01*
X141226247Y-96035713D02*
X141083390Y-96035713D01*
X141083390Y-96035713D02*
X140892914Y-95988094D01*
X140892914Y-95988094D02*
X140797676Y-95940475D01*
X140797676Y-95940475D02*
X140702438Y-95845237D01*
X140702438Y-95845237D02*
X140654819Y-95702380D01*
X140654819Y-95702380D02*
X140654819Y-95607142D01*
X140654819Y-95607142D02*
X140702438Y-95464285D01*
X140702438Y-95464285D02*
X140750057Y-95416666D01*
X141654819Y-94464285D02*
X141654819Y-95035713D01*
X141654819Y-94749999D02*
X140654819Y-94749999D01*
X140654819Y-94749999D02*
X140797676Y-94845237D01*
X140797676Y-94845237D02*
X140892914Y-94940475D01*
X140892914Y-94940475D02*
X140940533Y-95035713D01*
X167212200Y-62666904D02*
X167259819Y-62524047D01*
X167259819Y-62524047D02*
X167259819Y-62285952D01*
X167259819Y-62285952D02*
X167212200Y-62190714D01*
X167212200Y-62190714D02*
X167164580Y-62143095D01*
X167164580Y-62143095D02*
X167069342Y-62095476D01*
X167069342Y-62095476D02*
X166974104Y-62095476D01*
X166974104Y-62095476D02*
X166878866Y-62143095D01*
X166878866Y-62143095D02*
X166831247Y-62190714D01*
X166831247Y-62190714D02*
X166783628Y-62285952D01*
X166783628Y-62285952D02*
X166736009Y-62476428D01*
X166736009Y-62476428D02*
X166688390Y-62571666D01*
X166688390Y-62571666D02*
X166640771Y-62619285D01*
X166640771Y-62619285D02*
X166545533Y-62666904D01*
X166545533Y-62666904D02*
X166450295Y-62666904D01*
X166450295Y-62666904D02*
X166355057Y-62619285D01*
X166355057Y-62619285D02*
X166307438Y-62571666D01*
X166307438Y-62571666D02*
X166259819Y-62476428D01*
X166259819Y-62476428D02*
X166259819Y-62238333D01*
X166259819Y-62238333D02*
X166307438Y-62095476D01*
X167259819Y-61143095D02*
X167259819Y-61714523D01*
X167259819Y-61428809D02*
X166259819Y-61428809D01*
X166259819Y-61428809D02*
X166402676Y-61524047D01*
X166402676Y-61524047D02*
X166497914Y-61619285D01*
X166497914Y-61619285D02*
X166545533Y-61714523D01*
X105981667Y-154712200D02*
X106124524Y-154759819D01*
X106124524Y-154759819D02*
X106362619Y-154759819D01*
X106362619Y-154759819D02*
X106457857Y-154712200D01*
X106457857Y-154712200D02*
X106505476Y-154664580D01*
X106505476Y-154664580D02*
X106553095Y-154569342D01*
X106553095Y-154569342D02*
X106553095Y-154474104D01*
X106553095Y-154474104D02*
X106505476Y-154378866D01*
X106505476Y-154378866D02*
X106457857Y-154331247D01*
X106457857Y-154331247D02*
X106362619Y-154283628D01*
X106362619Y-154283628D02*
X106172143Y-154236009D01*
X106172143Y-154236009D02*
X106076905Y-154188390D01*
X106076905Y-154188390D02*
X106029286Y-154140771D01*
X106029286Y-154140771D02*
X105981667Y-154045533D01*
X105981667Y-154045533D02*
X105981667Y-153950295D01*
X105981667Y-153950295D02*
X106029286Y-153855057D01*
X106029286Y-153855057D02*
X106076905Y-153807438D01*
X106076905Y-153807438D02*
X106172143Y-153759819D01*
X106172143Y-153759819D02*
X106410238Y-153759819D01*
X106410238Y-153759819D02*
X106553095Y-153807438D01*
X106886429Y-153759819D02*
X107124524Y-154759819D01*
X107124524Y-154759819D02*
X107315000Y-154045533D01*
X107315000Y-154045533D02*
X107505476Y-154759819D01*
X107505476Y-154759819D02*
X107743572Y-153759819D01*
X108648333Y-154759819D02*
X108076905Y-154759819D01*
X108362619Y-154759819D02*
X108362619Y-153759819D01*
X108362619Y-153759819D02*
X108267381Y-153902676D01*
X108267381Y-153902676D02*
X108172143Y-153997914D01*
X108172143Y-153997914D02*
X108076905Y-154045533D01*
X196151667Y-154712200D02*
X196294524Y-154759819D01*
X196294524Y-154759819D02*
X196532619Y-154759819D01*
X196532619Y-154759819D02*
X196627857Y-154712200D01*
X196627857Y-154712200D02*
X196675476Y-154664580D01*
X196675476Y-154664580D02*
X196723095Y-154569342D01*
X196723095Y-154569342D02*
X196723095Y-154474104D01*
X196723095Y-154474104D02*
X196675476Y-154378866D01*
X196675476Y-154378866D02*
X196627857Y-154331247D01*
X196627857Y-154331247D02*
X196532619Y-154283628D01*
X196532619Y-154283628D02*
X196342143Y-154236009D01*
X196342143Y-154236009D02*
X196246905Y-154188390D01*
X196246905Y-154188390D02*
X196199286Y-154140771D01*
X196199286Y-154140771D02*
X196151667Y-154045533D01*
X196151667Y-154045533D02*
X196151667Y-153950295D01*
X196151667Y-153950295D02*
X196199286Y-153855057D01*
X196199286Y-153855057D02*
X196246905Y-153807438D01*
X196246905Y-153807438D02*
X196342143Y-153759819D01*
X196342143Y-153759819D02*
X196580238Y-153759819D01*
X196580238Y-153759819D02*
X196723095Y-153807438D01*
X197056429Y-153759819D02*
X197294524Y-154759819D01*
X197294524Y-154759819D02*
X197485000Y-154045533D01*
X197485000Y-154045533D02*
X197675476Y-154759819D01*
X197675476Y-154759819D02*
X197913572Y-153759819D01*
X198437381Y-154188390D02*
X198342143Y-154140771D01*
X198342143Y-154140771D02*
X198294524Y-154093152D01*
X198294524Y-154093152D02*
X198246905Y-153997914D01*
X198246905Y-153997914D02*
X198246905Y-153950295D01*
X198246905Y-153950295D02*
X198294524Y-153855057D01*
X198294524Y-153855057D02*
X198342143Y-153807438D01*
X198342143Y-153807438D02*
X198437381Y-153759819D01*
X198437381Y-153759819D02*
X198627857Y-153759819D01*
X198627857Y-153759819D02*
X198723095Y-153807438D01*
X198723095Y-153807438D02*
X198770714Y-153855057D01*
X198770714Y-153855057D02*
X198818333Y-153950295D01*
X198818333Y-153950295D02*
X198818333Y-153997914D01*
X198818333Y-153997914D02*
X198770714Y-154093152D01*
X198770714Y-154093152D02*
X198723095Y-154140771D01*
X198723095Y-154140771D02*
X198627857Y-154188390D01*
X198627857Y-154188390D02*
X198437381Y-154188390D01*
X198437381Y-154188390D02*
X198342143Y-154236009D01*
X198342143Y-154236009D02*
X198294524Y-154283628D01*
X198294524Y-154283628D02*
X198246905Y-154378866D01*
X198246905Y-154378866D02*
X198246905Y-154569342D01*
X198246905Y-154569342D02*
X198294524Y-154664580D01*
X198294524Y-154664580D02*
X198342143Y-154712200D01*
X198342143Y-154712200D02*
X198437381Y-154759819D01*
X198437381Y-154759819D02*
X198627857Y-154759819D01*
X198627857Y-154759819D02*
X198723095Y-154712200D01*
X198723095Y-154712200D02*
X198770714Y-154664580D01*
X198770714Y-154664580D02*
X198818333Y-154569342D01*
X198818333Y-154569342D02*
X198818333Y-154378866D01*
X198818333Y-154378866D02*
X198770714Y-154283628D01*
X198770714Y-154283628D02*
X198723095Y-154236009D01*
X198723095Y-154236009D02*
X198627857Y-154188390D01*
X169234709Y-83855725D02*
X169282328Y-83712868D01*
X169282328Y-83712868D02*
X169329947Y-83665249D01*
X169329947Y-83665249D02*
X169425185Y-83617630D01*
X169425185Y-83617630D02*
X169568042Y-83617630D01*
X169568042Y-83617630D02*
X169663280Y-83665249D01*
X169663280Y-83665249D02*
X169710900Y-83712868D01*
X169710900Y-83712868D02*
X169758519Y-83808106D01*
X169758519Y-83808106D02*
X169758519Y-84189058D01*
X169758519Y-84189058D02*
X168758519Y-84189058D01*
X168758519Y-84189058D02*
X168758519Y-83855725D01*
X168758519Y-83855725D02*
X168806138Y-83760487D01*
X168806138Y-83760487D02*
X168853757Y-83712868D01*
X168853757Y-83712868D02*
X168948995Y-83665249D01*
X168948995Y-83665249D02*
X169044233Y-83665249D01*
X169044233Y-83665249D02*
X169139471Y-83712868D01*
X169139471Y-83712868D02*
X169187090Y-83760487D01*
X169187090Y-83760487D02*
X169234709Y-83855725D01*
X169234709Y-83855725D02*
X169234709Y-84189058D01*
X169472804Y-83236677D02*
X169472804Y-82760487D01*
X169758519Y-83331915D02*
X168758519Y-82998582D01*
X168758519Y-82998582D02*
X169758519Y-82665249D01*
X168758519Y-82474772D02*
X168758519Y-81903344D01*
X169758519Y-82189058D02*
X168758519Y-82189058D01*
X168853757Y-81617629D02*
X168806138Y-81570010D01*
X168806138Y-81570010D02*
X168758519Y-81474772D01*
X168758519Y-81474772D02*
X168758519Y-81236677D01*
X168758519Y-81236677D02*
X168806138Y-81141439D01*
X168806138Y-81141439D02*
X168853757Y-81093820D01*
X168853757Y-81093820D02*
X168948995Y-81046201D01*
X168948995Y-81046201D02*
X169044233Y-81046201D01*
X169044233Y-81046201D02*
X169187090Y-81093820D01*
X169187090Y-81093820D02*
X169758519Y-81665248D01*
X169758519Y-81665248D02*
X169758519Y-81046201D01*
X142771905Y-84694819D02*
X142771905Y-83694819D01*
X142771905Y-83694819D02*
X143010000Y-83694819D01*
X143010000Y-83694819D02*
X143152857Y-83742438D01*
X143152857Y-83742438D02*
X143248095Y-83837676D01*
X143248095Y-83837676D02*
X143295714Y-83932914D01*
X143295714Y-83932914D02*
X143343333Y-84123390D01*
X143343333Y-84123390D02*
X143343333Y-84266247D01*
X143343333Y-84266247D02*
X143295714Y-84456723D01*
X143295714Y-84456723D02*
X143248095Y-84551961D01*
X143248095Y-84551961D02*
X143152857Y-84647200D01*
X143152857Y-84647200D02*
X143010000Y-84694819D01*
X143010000Y-84694819D02*
X142771905Y-84694819D01*
X143676667Y-83694819D02*
X144295714Y-83694819D01*
X144295714Y-83694819D02*
X143962381Y-84075771D01*
X143962381Y-84075771D02*
X144105238Y-84075771D01*
X144105238Y-84075771D02*
X144200476Y-84123390D01*
X144200476Y-84123390D02*
X144248095Y-84171009D01*
X144248095Y-84171009D02*
X144295714Y-84266247D01*
X144295714Y-84266247D02*
X144295714Y-84504342D01*
X144295714Y-84504342D02*
X144248095Y-84599580D01*
X144248095Y-84599580D02*
X144200476Y-84647200D01*
X144200476Y-84647200D02*
X144105238Y-84694819D01*
X144105238Y-84694819D02*
X143819524Y-84694819D01*
X143819524Y-84694819D02*
X143724286Y-84647200D01*
X143724286Y-84647200D02*
X143676667Y-84599580D01*
X178908333Y-102364819D02*
X178575000Y-101888628D01*
X178336905Y-102364819D02*
X178336905Y-101364819D01*
X178336905Y-101364819D02*
X178717857Y-101364819D01*
X178717857Y-101364819D02*
X178813095Y-101412438D01*
X178813095Y-101412438D02*
X178860714Y-101460057D01*
X178860714Y-101460057D02*
X178908333Y-101555295D01*
X178908333Y-101555295D02*
X178908333Y-101698152D01*
X178908333Y-101698152D02*
X178860714Y-101793390D01*
X178860714Y-101793390D02*
X178813095Y-101841009D01*
X178813095Y-101841009D02*
X178717857Y-101888628D01*
X178717857Y-101888628D02*
X178336905Y-101888628D01*
X179384524Y-102364819D02*
X179575000Y-102364819D01*
X179575000Y-102364819D02*
X179670238Y-102317200D01*
X179670238Y-102317200D02*
X179717857Y-102269580D01*
X179717857Y-102269580D02*
X179813095Y-102126723D01*
X179813095Y-102126723D02*
X179860714Y-101936247D01*
X179860714Y-101936247D02*
X179860714Y-101555295D01*
X179860714Y-101555295D02*
X179813095Y-101460057D01*
X179813095Y-101460057D02*
X179765476Y-101412438D01*
X179765476Y-101412438D02*
X179670238Y-101364819D01*
X179670238Y-101364819D02*
X179479762Y-101364819D01*
X179479762Y-101364819D02*
X179384524Y-101412438D01*
X179384524Y-101412438D02*
X179336905Y-101460057D01*
X179336905Y-101460057D02*
X179289286Y-101555295D01*
X179289286Y-101555295D02*
X179289286Y-101793390D01*
X179289286Y-101793390D02*
X179336905Y-101888628D01*
X179336905Y-101888628D02*
X179384524Y-101936247D01*
X179384524Y-101936247D02*
X179479762Y-101983866D01*
X179479762Y-101983866D02*
X179670238Y-101983866D01*
X179670238Y-101983866D02*
X179765476Y-101936247D01*
X179765476Y-101936247D02*
X179813095Y-101888628D01*
X179813095Y-101888628D02*
X179860714Y-101793390D01*
X119356667Y-154712200D02*
X119499524Y-154759819D01*
X119499524Y-154759819D02*
X119737619Y-154759819D01*
X119737619Y-154759819D02*
X119832857Y-154712200D01*
X119832857Y-154712200D02*
X119880476Y-154664580D01*
X119880476Y-154664580D02*
X119928095Y-154569342D01*
X119928095Y-154569342D02*
X119928095Y-154474104D01*
X119928095Y-154474104D02*
X119880476Y-154378866D01*
X119880476Y-154378866D02*
X119832857Y-154331247D01*
X119832857Y-154331247D02*
X119737619Y-154283628D01*
X119737619Y-154283628D02*
X119547143Y-154236009D01*
X119547143Y-154236009D02*
X119451905Y-154188390D01*
X119451905Y-154188390D02*
X119404286Y-154140771D01*
X119404286Y-154140771D02*
X119356667Y-154045533D01*
X119356667Y-154045533D02*
X119356667Y-153950295D01*
X119356667Y-153950295D02*
X119404286Y-153855057D01*
X119404286Y-153855057D02*
X119451905Y-153807438D01*
X119451905Y-153807438D02*
X119547143Y-153759819D01*
X119547143Y-153759819D02*
X119785238Y-153759819D01*
X119785238Y-153759819D02*
X119928095Y-153807438D01*
X120261429Y-153759819D02*
X120499524Y-154759819D01*
X120499524Y-154759819D02*
X120690000Y-154045533D01*
X120690000Y-154045533D02*
X120880476Y-154759819D01*
X120880476Y-154759819D02*
X121118572Y-153759819D01*
X121451905Y-153855057D02*
X121499524Y-153807438D01*
X121499524Y-153807438D02*
X121594762Y-153759819D01*
X121594762Y-153759819D02*
X121832857Y-153759819D01*
X121832857Y-153759819D02*
X121928095Y-153807438D01*
X121928095Y-153807438D02*
X121975714Y-153855057D01*
X121975714Y-153855057D02*
X122023333Y-153950295D01*
X122023333Y-153950295D02*
X122023333Y-154045533D01*
X122023333Y-154045533D02*
X121975714Y-154188390D01*
X121975714Y-154188390D02*
X121404286Y-154759819D01*
X121404286Y-154759819D02*
X122023333Y-154759819D01*
X183024819Y-119297666D02*
X182548628Y-119630999D01*
X183024819Y-119869094D02*
X182024819Y-119869094D01*
X182024819Y-119869094D02*
X182024819Y-119488142D01*
X182024819Y-119488142D02*
X182072438Y-119392904D01*
X182072438Y-119392904D02*
X182120057Y-119345285D01*
X182120057Y-119345285D02*
X182215295Y-119297666D01*
X182215295Y-119297666D02*
X182358152Y-119297666D01*
X182358152Y-119297666D02*
X182453390Y-119345285D01*
X182453390Y-119345285D02*
X182501009Y-119392904D01*
X182501009Y-119392904D02*
X182548628Y-119488142D01*
X182548628Y-119488142D02*
X182548628Y-119869094D01*
X182024819Y-118964332D02*
X182024819Y-118297666D01*
X182024819Y-118297666D02*
X183024819Y-118726237D01*
X143869580Y-90336666D02*
X143917200Y-90384285D01*
X143917200Y-90384285D02*
X143964819Y-90527142D01*
X143964819Y-90527142D02*
X143964819Y-90622380D01*
X143964819Y-90622380D02*
X143917200Y-90765237D01*
X143917200Y-90765237D02*
X143821961Y-90860475D01*
X143821961Y-90860475D02*
X143726723Y-90908094D01*
X143726723Y-90908094D02*
X143536247Y-90955713D01*
X143536247Y-90955713D02*
X143393390Y-90955713D01*
X143393390Y-90955713D02*
X143202914Y-90908094D01*
X143202914Y-90908094D02*
X143107676Y-90860475D01*
X143107676Y-90860475D02*
X143012438Y-90765237D01*
X143012438Y-90765237D02*
X142964819Y-90622380D01*
X142964819Y-90622380D02*
X142964819Y-90527142D01*
X142964819Y-90527142D02*
X143012438Y-90384285D01*
X143012438Y-90384285D02*
X143060057Y-90336666D01*
X143060057Y-89955713D02*
X143012438Y-89908094D01*
X143012438Y-89908094D02*
X142964819Y-89812856D01*
X142964819Y-89812856D02*
X142964819Y-89574761D01*
X142964819Y-89574761D02*
X143012438Y-89479523D01*
X143012438Y-89479523D02*
X143060057Y-89431904D01*
X143060057Y-89431904D02*
X143155295Y-89384285D01*
X143155295Y-89384285D02*
X143250533Y-89384285D01*
X143250533Y-89384285D02*
X143393390Y-89431904D01*
X143393390Y-89431904D02*
X143964819Y-90003332D01*
X143964819Y-90003332D02*
X143964819Y-89384285D01*
X144716667Y-154712200D02*
X144859524Y-154759819D01*
X144859524Y-154759819D02*
X145097619Y-154759819D01*
X145097619Y-154759819D02*
X145192857Y-154712200D01*
X145192857Y-154712200D02*
X145240476Y-154664580D01*
X145240476Y-154664580D02*
X145288095Y-154569342D01*
X145288095Y-154569342D02*
X145288095Y-154474104D01*
X145288095Y-154474104D02*
X145240476Y-154378866D01*
X145240476Y-154378866D02*
X145192857Y-154331247D01*
X145192857Y-154331247D02*
X145097619Y-154283628D01*
X145097619Y-154283628D02*
X144907143Y-154236009D01*
X144907143Y-154236009D02*
X144811905Y-154188390D01*
X144811905Y-154188390D02*
X144764286Y-154140771D01*
X144764286Y-154140771D02*
X144716667Y-154045533D01*
X144716667Y-154045533D02*
X144716667Y-153950295D01*
X144716667Y-153950295D02*
X144764286Y-153855057D01*
X144764286Y-153855057D02*
X144811905Y-153807438D01*
X144811905Y-153807438D02*
X144907143Y-153759819D01*
X144907143Y-153759819D02*
X145145238Y-153759819D01*
X145145238Y-153759819D02*
X145288095Y-153807438D01*
X145621429Y-153759819D02*
X145859524Y-154759819D01*
X145859524Y-154759819D02*
X146050000Y-154045533D01*
X146050000Y-154045533D02*
X146240476Y-154759819D01*
X146240476Y-154759819D02*
X146478572Y-153759819D01*
X147288095Y-154093152D02*
X147288095Y-154759819D01*
X147050000Y-153712200D02*
X146811905Y-154426485D01*
X146811905Y-154426485D02*
X147430952Y-154426485D01*
X105734709Y-83855725D02*
X105782328Y-83712868D01*
X105782328Y-83712868D02*
X105829947Y-83665249D01*
X105829947Y-83665249D02*
X105925185Y-83617630D01*
X105925185Y-83617630D02*
X106068042Y-83617630D01*
X106068042Y-83617630D02*
X106163280Y-83665249D01*
X106163280Y-83665249D02*
X106210900Y-83712868D01*
X106210900Y-83712868D02*
X106258519Y-83808106D01*
X106258519Y-83808106D02*
X106258519Y-84189058D01*
X106258519Y-84189058D02*
X105258519Y-84189058D01*
X105258519Y-84189058D02*
X105258519Y-83855725D01*
X105258519Y-83855725D02*
X105306138Y-83760487D01*
X105306138Y-83760487D02*
X105353757Y-83712868D01*
X105353757Y-83712868D02*
X105448995Y-83665249D01*
X105448995Y-83665249D02*
X105544233Y-83665249D01*
X105544233Y-83665249D02*
X105639471Y-83712868D01*
X105639471Y-83712868D02*
X105687090Y-83760487D01*
X105687090Y-83760487D02*
X105734709Y-83855725D01*
X105734709Y-83855725D02*
X105734709Y-84189058D01*
X105972804Y-83236677D02*
X105972804Y-82760487D01*
X106258519Y-83331915D02*
X105258519Y-82998582D01*
X105258519Y-82998582D02*
X106258519Y-82665249D01*
X105258519Y-82474772D02*
X105258519Y-81903344D01*
X106258519Y-82189058D02*
X105258519Y-82189058D01*
X106258519Y-81046201D02*
X106258519Y-81617629D01*
X106258519Y-81331915D02*
X105258519Y-81331915D01*
X105258519Y-81331915D02*
X105401376Y-81427153D01*
X105401376Y-81427153D02*
X105496614Y-81522391D01*
X105496614Y-81522391D02*
X105544233Y-81617629D01*
X183326667Y-154712200D02*
X183469524Y-154759819D01*
X183469524Y-154759819D02*
X183707619Y-154759819D01*
X183707619Y-154759819D02*
X183802857Y-154712200D01*
X183802857Y-154712200D02*
X183850476Y-154664580D01*
X183850476Y-154664580D02*
X183898095Y-154569342D01*
X183898095Y-154569342D02*
X183898095Y-154474104D01*
X183898095Y-154474104D02*
X183850476Y-154378866D01*
X183850476Y-154378866D02*
X183802857Y-154331247D01*
X183802857Y-154331247D02*
X183707619Y-154283628D01*
X183707619Y-154283628D02*
X183517143Y-154236009D01*
X183517143Y-154236009D02*
X183421905Y-154188390D01*
X183421905Y-154188390D02*
X183374286Y-154140771D01*
X183374286Y-154140771D02*
X183326667Y-154045533D01*
X183326667Y-154045533D02*
X183326667Y-153950295D01*
X183326667Y-153950295D02*
X183374286Y-153855057D01*
X183374286Y-153855057D02*
X183421905Y-153807438D01*
X183421905Y-153807438D02*
X183517143Y-153759819D01*
X183517143Y-153759819D02*
X183755238Y-153759819D01*
X183755238Y-153759819D02*
X183898095Y-153807438D01*
X184231429Y-153759819D02*
X184469524Y-154759819D01*
X184469524Y-154759819D02*
X184660000Y-154045533D01*
X184660000Y-154045533D02*
X184850476Y-154759819D01*
X184850476Y-154759819D02*
X185088572Y-153759819D01*
X185374286Y-153759819D02*
X186040952Y-153759819D01*
X186040952Y-153759819D02*
X185612381Y-154759819D01*
X195724819Y-119773857D02*
X195248628Y-120107190D01*
X195724819Y-120345285D02*
X194724819Y-120345285D01*
X194724819Y-120345285D02*
X194724819Y-119964333D01*
X194724819Y-119964333D02*
X194772438Y-119869095D01*
X194772438Y-119869095D02*
X194820057Y-119821476D01*
X194820057Y-119821476D02*
X194915295Y-119773857D01*
X194915295Y-119773857D02*
X195058152Y-119773857D01*
X195058152Y-119773857D02*
X195153390Y-119821476D01*
X195153390Y-119821476D02*
X195201009Y-119869095D01*
X195201009Y-119869095D02*
X195248628Y-119964333D01*
X195248628Y-119964333D02*
X195248628Y-120345285D01*
X195724819Y-118821476D02*
X195724819Y-119392904D01*
X195724819Y-119107190D02*
X194724819Y-119107190D01*
X194724819Y-119107190D02*
X194867676Y-119202428D01*
X194867676Y-119202428D02*
X194962914Y-119297666D01*
X194962914Y-119297666D02*
X195010533Y-119392904D01*
X194724819Y-118202428D02*
X194724819Y-118107190D01*
X194724819Y-118107190D02*
X194772438Y-118011952D01*
X194772438Y-118011952D02*
X194820057Y-117964333D01*
X194820057Y-117964333D02*
X194915295Y-117916714D01*
X194915295Y-117916714D02*
X195105771Y-117869095D01*
X195105771Y-117869095D02*
X195343866Y-117869095D01*
X195343866Y-117869095D02*
X195534342Y-117916714D01*
X195534342Y-117916714D02*
X195629580Y-117964333D01*
X195629580Y-117964333D02*
X195677200Y-118011952D01*
X195677200Y-118011952D02*
X195724819Y-118107190D01*
X195724819Y-118107190D02*
X195724819Y-118202428D01*
X195724819Y-118202428D02*
X195677200Y-118297666D01*
X195677200Y-118297666D02*
X195629580Y-118345285D01*
X195629580Y-118345285D02*
X195534342Y-118392904D01*
X195534342Y-118392904D02*
X195343866Y-118440523D01*
X195343866Y-118440523D02*
X195105771Y-118440523D01*
X195105771Y-118440523D02*
X194915295Y-118392904D01*
X194915295Y-118392904D02*
X194820057Y-118345285D01*
X194820057Y-118345285D02*
X194772438Y-118297666D01*
X194772438Y-118297666D02*
X194724819Y-118202428D01*
X119524819Y-119297666D02*
X119048628Y-119630999D01*
X119524819Y-119869094D02*
X118524819Y-119869094D01*
X118524819Y-119869094D02*
X118524819Y-119488142D01*
X118524819Y-119488142D02*
X118572438Y-119392904D01*
X118572438Y-119392904D02*
X118620057Y-119345285D01*
X118620057Y-119345285D02*
X118715295Y-119297666D01*
X118715295Y-119297666D02*
X118858152Y-119297666D01*
X118858152Y-119297666D02*
X118953390Y-119345285D01*
X118953390Y-119345285D02*
X119001009Y-119392904D01*
X119001009Y-119392904D02*
X119048628Y-119488142D01*
X119048628Y-119488142D02*
X119048628Y-119869094D01*
X118620057Y-118916713D02*
X118572438Y-118869094D01*
X118572438Y-118869094D02*
X118524819Y-118773856D01*
X118524819Y-118773856D02*
X118524819Y-118535761D01*
X118524819Y-118535761D02*
X118572438Y-118440523D01*
X118572438Y-118440523D02*
X118620057Y-118392904D01*
X118620057Y-118392904D02*
X118715295Y-118345285D01*
X118715295Y-118345285D02*
X118810533Y-118345285D01*
X118810533Y-118345285D02*
X118953390Y-118392904D01*
X118953390Y-118392904D02*
X119524819Y-118964332D01*
X119524819Y-118964332D02*
X119524819Y-118345285D01*
X195724819Y-85261666D02*
X195248628Y-85594999D01*
X195724819Y-85833094D02*
X194724819Y-85833094D01*
X194724819Y-85833094D02*
X194724819Y-85452142D01*
X194724819Y-85452142D02*
X194772438Y-85356904D01*
X194772438Y-85356904D02*
X194820057Y-85309285D01*
X194820057Y-85309285D02*
X194915295Y-85261666D01*
X194915295Y-85261666D02*
X195058152Y-85261666D01*
X195058152Y-85261666D02*
X195153390Y-85309285D01*
X195153390Y-85309285D02*
X195201009Y-85356904D01*
X195201009Y-85356904D02*
X195248628Y-85452142D01*
X195248628Y-85452142D02*
X195248628Y-85833094D01*
X195153390Y-84690237D02*
X195105771Y-84785475D01*
X195105771Y-84785475D02*
X195058152Y-84833094D01*
X195058152Y-84833094D02*
X194962914Y-84880713D01*
X194962914Y-84880713D02*
X194915295Y-84880713D01*
X194915295Y-84880713D02*
X194820057Y-84833094D01*
X194820057Y-84833094D02*
X194772438Y-84785475D01*
X194772438Y-84785475D02*
X194724819Y-84690237D01*
X194724819Y-84690237D02*
X194724819Y-84499761D01*
X194724819Y-84499761D02*
X194772438Y-84404523D01*
X194772438Y-84404523D02*
X194820057Y-84356904D01*
X194820057Y-84356904D02*
X194915295Y-84309285D01*
X194915295Y-84309285D02*
X194962914Y-84309285D01*
X194962914Y-84309285D02*
X195058152Y-84356904D01*
X195058152Y-84356904D02*
X195105771Y-84404523D01*
X195105771Y-84404523D02*
X195153390Y-84499761D01*
X195153390Y-84499761D02*
X195153390Y-84690237D01*
X195153390Y-84690237D02*
X195201009Y-84785475D01*
X195201009Y-84785475D02*
X195248628Y-84833094D01*
X195248628Y-84833094D02*
X195343866Y-84880713D01*
X195343866Y-84880713D02*
X195534342Y-84880713D01*
X195534342Y-84880713D02*
X195629580Y-84833094D01*
X195629580Y-84833094D02*
X195677200Y-84785475D01*
X195677200Y-84785475D02*
X195724819Y-84690237D01*
X195724819Y-84690237D02*
X195724819Y-84499761D01*
X195724819Y-84499761D02*
X195677200Y-84404523D01*
X195677200Y-84404523D02*
X195629580Y-84356904D01*
X195629580Y-84356904D02*
X195534342Y-84309285D01*
X195534342Y-84309285D02*
X195343866Y-84309285D01*
X195343866Y-84309285D02*
X195248628Y-84356904D01*
X195248628Y-84356904D02*
X195201009Y-84404523D01*
X195201009Y-84404523D02*
X195153390Y-84499761D01*
X161814819Y-83288094D02*
X160814819Y-83288094D01*
X160814819Y-83288094D02*
X160814819Y-83049999D01*
X160814819Y-83049999D02*
X160862438Y-82907142D01*
X160862438Y-82907142D02*
X160957676Y-82811904D01*
X160957676Y-82811904D02*
X161052914Y-82764285D01*
X161052914Y-82764285D02*
X161243390Y-82716666D01*
X161243390Y-82716666D02*
X161386247Y-82716666D01*
X161386247Y-82716666D02*
X161576723Y-82764285D01*
X161576723Y-82764285D02*
X161671961Y-82811904D01*
X161671961Y-82811904D02*
X161767200Y-82907142D01*
X161767200Y-82907142D02*
X161814819Y-83049999D01*
X161814819Y-83049999D02*
X161814819Y-83288094D01*
X160910057Y-82335713D02*
X160862438Y-82288094D01*
X160862438Y-82288094D02*
X160814819Y-82192856D01*
X160814819Y-82192856D02*
X160814819Y-81954761D01*
X160814819Y-81954761D02*
X160862438Y-81859523D01*
X160862438Y-81859523D02*
X160910057Y-81811904D01*
X160910057Y-81811904D02*
X161005295Y-81764285D01*
X161005295Y-81764285D02*
X161100533Y-81764285D01*
X161100533Y-81764285D02*
X161243390Y-81811904D01*
X161243390Y-81811904D02*
X161814819Y-82383332D01*
X161814819Y-82383332D02*
X161814819Y-81764285D01*
X162184819Y-87891904D02*
X161184819Y-87891904D01*
X162184819Y-87320476D02*
X161613390Y-87749047D01*
X161184819Y-87320476D02*
X161756247Y-87891904D01*
X170324819Y-119297666D02*
X169848628Y-119630999D01*
X170324819Y-119869094D02*
X169324819Y-119869094D01*
X169324819Y-119869094D02*
X169324819Y-119488142D01*
X169324819Y-119488142D02*
X169372438Y-119392904D01*
X169372438Y-119392904D02*
X169420057Y-119345285D01*
X169420057Y-119345285D02*
X169515295Y-119297666D01*
X169515295Y-119297666D02*
X169658152Y-119297666D01*
X169658152Y-119297666D02*
X169753390Y-119345285D01*
X169753390Y-119345285D02*
X169801009Y-119392904D01*
X169801009Y-119392904D02*
X169848628Y-119488142D01*
X169848628Y-119488142D02*
X169848628Y-119869094D01*
X169324819Y-118440523D02*
X169324819Y-118630999D01*
X169324819Y-118630999D02*
X169372438Y-118726237D01*
X169372438Y-118726237D02*
X169420057Y-118773856D01*
X169420057Y-118773856D02*
X169562914Y-118869094D01*
X169562914Y-118869094D02*
X169753390Y-118916713D01*
X169753390Y-118916713D02*
X170134342Y-118916713D01*
X170134342Y-118916713D02*
X170229580Y-118869094D01*
X170229580Y-118869094D02*
X170277200Y-118821475D01*
X170277200Y-118821475D02*
X170324819Y-118726237D01*
X170324819Y-118726237D02*
X170324819Y-118535761D01*
X170324819Y-118535761D02*
X170277200Y-118440523D01*
X170277200Y-118440523D02*
X170229580Y-118392904D01*
X170229580Y-118392904D02*
X170134342Y-118345285D01*
X170134342Y-118345285D02*
X169896247Y-118345285D01*
X169896247Y-118345285D02*
X169801009Y-118392904D01*
X169801009Y-118392904D02*
X169753390Y-118440523D01*
X169753390Y-118440523D02*
X169705771Y-118535761D01*
X169705771Y-118535761D02*
X169705771Y-118726237D01*
X169705771Y-118726237D02*
X169753390Y-118821475D01*
X169753390Y-118821475D02*
X169801009Y-118869094D01*
X169801009Y-118869094D02*
X169896247Y-118916713D01*
X132136667Y-154712200D02*
X132279524Y-154759819D01*
X132279524Y-154759819D02*
X132517619Y-154759819D01*
X132517619Y-154759819D02*
X132612857Y-154712200D01*
X132612857Y-154712200D02*
X132660476Y-154664580D01*
X132660476Y-154664580D02*
X132708095Y-154569342D01*
X132708095Y-154569342D02*
X132708095Y-154474104D01*
X132708095Y-154474104D02*
X132660476Y-154378866D01*
X132660476Y-154378866D02*
X132612857Y-154331247D01*
X132612857Y-154331247D02*
X132517619Y-154283628D01*
X132517619Y-154283628D02*
X132327143Y-154236009D01*
X132327143Y-154236009D02*
X132231905Y-154188390D01*
X132231905Y-154188390D02*
X132184286Y-154140771D01*
X132184286Y-154140771D02*
X132136667Y-154045533D01*
X132136667Y-154045533D02*
X132136667Y-153950295D01*
X132136667Y-153950295D02*
X132184286Y-153855057D01*
X132184286Y-153855057D02*
X132231905Y-153807438D01*
X132231905Y-153807438D02*
X132327143Y-153759819D01*
X132327143Y-153759819D02*
X132565238Y-153759819D01*
X132565238Y-153759819D02*
X132708095Y-153807438D01*
X133041429Y-153759819D02*
X133279524Y-154759819D01*
X133279524Y-154759819D02*
X133470000Y-154045533D01*
X133470000Y-154045533D02*
X133660476Y-154759819D01*
X133660476Y-154759819D02*
X133898572Y-153759819D01*
X134184286Y-153759819D02*
X134803333Y-153759819D01*
X134803333Y-153759819D02*
X134470000Y-154140771D01*
X134470000Y-154140771D02*
X134612857Y-154140771D01*
X134612857Y-154140771D02*
X134708095Y-154188390D01*
X134708095Y-154188390D02*
X134755714Y-154236009D01*
X134755714Y-154236009D02*
X134803333Y-154331247D01*
X134803333Y-154331247D02*
X134803333Y-154569342D01*
X134803333Y-154569342D02*
X134755714Y-154664580D01*
X134755714Y-154664580D02*
X134708095Y-154712200D01*
X134708095Y-154712200D02*
X134612857Y-154759819D01*
X134612857Y-154759819D02*
X134327143Y-154759819D01*
X134327143Y-154759819D02*
X134231905Y-154712200D01*
X134231905Y-154712200D02*
X134184286Y-154664580D01*
X157624819Y-119297666D02*
X157148628Y-119630999D01*
X157624819Y-119869094D02*
X156624819Y-119869094D01*
X156624819Y-119869094D02*
X156624819Y-119488142D01*
X156624819Y-119488142D02*
X156672438Y-119392904D01*
X156672438Y-119392904D02*
X156720057Y-119345285D01*
X156720057Y-119345285D02*
X156815295Y-119297666D01*
X156815295Y-119297666D02*
X156958152Y-119297666D01*
X156958152Y-119297666D02*
X157053390Y-119345285D01*
X157053390Y-119345285D02*
X157101009Y-119392904D01*
X157101009Y-119392904D02*
X157148628Y-119488142D01*
X157148628Y-119488142D02*
X157148628Y-119869094D01*
X156624819Y-118392904D02*
X156624819Y-118869094D01*
X156624819Y-118869094D02*
X157101009Y-118916713D01*
X157101009Y-118916713D02*
X157053390Y-118869094D01*
X157053390Y-118869094D02*
X157005771Y-118773856D01*
X157005771Y-118773856D02*
X157005771Y-118535761D01*
X157005771Y-118535761D02*
X157053390Y-118440523D01*
X157053390Y-118440523D02*
X157101009Y-118392904D01*
X157101009Y-118392904D02*
X157196247Y-118345285D01*
X157196247Y-118345285D02*
X157434342Y-118345285D01*
X157434342Y-118345285D02*
X157529580Y-118392904D01*
X157529580Y-118392904D02*
X157577200Y-118440523D01*
X157577200Y-118440523D02*
X157624819Y-118535761D01*
X157624819Y-118535761D02*
X157624819Y-118773856D01*
X157624819Y-118773856D02*
X157577200Y-118869094D01*
X157577200Y-118869094D02*
X157529580Y-118916713D01*
X106824819Y-119297666D02*
X106348628Y-119630999D01*
X106824819Y-119869094D02*
X105824819Y-119869094D01*
X105824819Y-119869094D02*
X105824819Y-119488142D01*
X105824819Y-119488142D02*
X105872438Y-119392904D01*
X105872438Y-119392904D02*
X105920057Y-119345285D01*
X105920057Y-119345285D02*
X106015295Y-119297666D01*
X106015295Y-119297666D02*
X106158152Y-119297666D01*
X106158152Y-119297666D02*
X106253390Y-119345285D01*
X106253390Y-119345285D02*
X106301009Y-119392904D01*
X106301009Y-119392904D02*
X106348628Y-119488142D01*
X106348628Y-119488142D02*
X106348628Y-119869094D01*
X106824819Y-118345285D02*
X106824819Y-118916713D01*
X106824819Y-118630999D02*
X105824819Y-118630999D01*
X105824819Y-118630999D02*
X105967676Y-118726237D01*
X105967676Y-118726237D02*
X106062914Y-118821475D01*
X106062914Y-118821475D02*
X106110533Y-118916713D01*
X157416667Y-154712200D02*
X157559524Y-154759819D01*
X157559524Y-154759819D02*
X157797619Y-154759819D01*
X157797619Y-154759819D02*
X157892857Y-154712200D01*
X157892857Y-154712200D02*
X157940476Y-154664580D01*
X157940476Y-154664580D02*
X157988095Y-154569342D01*
X157988095Y-154569342D02*
X157988095Y-154474104D01*
X157988095Y-154474104D02*
X157940476Y-154378866D01*
X157940476Y-154378866D02*
X157892857Y-154331247D01*
X157892857Y-154331247D02*
X157797619Y-154283628D01*
X157797619Y-154283628D02*
X157607143Y-154236009D01*
X157607143Y-154236009D02*
X157511905Y-154188390D01*
X157511905Y-154188390D02*
X157464286Y-154140771D01*
X157464286Y-154140771D02*
X157416667Y-154045533D01*
X157416667Y-154045533D02*
X157416667Y-153950295D01*
X157416667Y-153950295D02*
X157464286Y-153855057D01*
X157464286Y-153855057D02*
X157511905Y-153807438D01*
X157511905Y-153807438D02*
X157607143Y-153759819D01*
X157607143Y-153759819D02*
X157845238Y-153759819D01*
X157845238Y-153759819D02*
X157988095Y-153807438D01*
X158321429Y-153759819D02*
X158559524Y-154759819D01*
X158559524Y-154759819D02*
X158750000Y-154045533D01*
X158750000Y-154045533D02*
X158940476Y-154759819D01*
X158940476Y-154759819D02*
X159178572Y-153759819D01*
X160035714Y-153759819D02*
X159559524Y-153759819D01*
X159559524Y-153759819D02*
X159511905Y-154236009D01*
X159511905Y-154236009D02*
X159559524Y-154188390D01*
X159559524Y-154188390D02*
X159654762Y-154140771D01*
X159654762Y-154140771D02*
X159892857Y-154140771D01*
X159892857Y-154140771D02*
X159988095Y-154188390D01*
X159988095Y-154188390D02*
X160035714Y-154236009D01*
X160035714Y-154236009D02*
X160083333Y-154331247D01*
X160083333Y-154331247D02*
X160083333Y-154569342D01*
X160083333Y-154569342D02*
X160035714Y-154664580D01*
X160035714Y-154664580D02*
X159988095Y-154712200D01*
X159988095Y-154712200D02*
X159892857Y-154759819D01*
X159892857Y-154759819D02*
X159654762Y-154759819D01*
X159654762Y-154759819D02*
X159559524Y-154712200D01*
X159559524Y-154712200D02*
X159511905Y-154664580D01*
X132224819Y-119297666D02*
X131748628Y-119630999D01*
X132224819Y-119869094D02*
X131224819Y-119869094D01*
X131224819Y-119869094D02*
X131224819Y-119488142D01*
X131224819Y-119488142D02*
X131272438Y-119392904D01*
X131272438Y-119392904D02*
X131320057Y-119345285D01*
X131320057Y-119345285D02*
X131415295Y-119297666D01*
X131415295Y-119297666D02*
X131558152Y-119297666D01*
X131558152Y-119297666D02*
X131653390Y-119345285D01*
X131653390Y-119345285D02*
X131701009Y-119392904D01*
X131701009Y-119392904D02*
X131748628Y-119488142D01*
X131748628Y-119488142D02*
X131748628Y-119869094D01*
X131224819Y-118964332D02*
X131224819Y-118345285D01*
X131224819Y-118345285D02*
X131605771Y-118678618D01*
X131605771Y-118678618D02*
X131605771Y-118535761D01*
X131605771Y-118535761D02*
X131653390Y-118440523D01*
X131653390Y-118440523D02*
X131701009Y-118392904D01*
X131701009Y-118392904D02*
X131796247Y-118345285D01*
X131796247Y-118345285D02*
X132034342Y-118345285D01*
X132034342Y-118345285D02*
X132129580Y-118392904D01*
X132129580Y-118392904D02*
X132177200Y-118440523D01*
X132177200Y-118440523D02*
X132224819Y-118535761D01*
X132224819Y-118535761D02*
X132224819Y-118821475D01*
X132224819Y-118821475D02*
X132177200Y-118916713D01*
X132177200Y-118916713D02*
X132129580Y-118964332D01*
X144924819Y-119297666D02*
X144448628Y-119630999D01*
X144924819Y-119869094D02*
X143924819Y-119869094D01*
X143924819Y-119869094D02*
X143924819Y-119488142D01*
X143924819Y-119488142D02*
X143972438Y-119392904D01*
X143972438Y-119392904D02*
X144020057Y-119345285D01*
X144020057Y-119345285D02*
X144115295Y-119297666D01*
X144115295Y-119297666D02*
X144258152Y-119297666D01*
X144258152Y-119297666D02*
X144353390Y-119345285D01*
X144353390Y-119345285D02*
X144401009Y-119392904D01*
X144401009Y-119392904D02*
X144448628Y-119488142D01*
X144448628Y-119488142D02*
X144448628Y-119869094D01*
X144258152Y-118440523D02*
X144924819Y-118440523D01*
X143877200Y-118678618D02*
X144591485Y-118916713D01*
X144591485Y-118916713D02*
X144591485Y-118297666D01*
X152908095Y-101054819D02*
X152908095Y-101864342D01*
X152908095Y-101864342D02*
X152955714Y-101959580D01*
X152955714Y-101959580D02*
X153003333Y-102007200D01*
X153003333Y-102007200D02*
X153098571Y-102054819D01*
X153098571Y-102054819D02*
X153289047Y-102054819D01*
X153289047Y-102054819D02*
X153384285Y-102007200D01*
X153384285Y-102007200D02*
X153431904Y-101959580D01*
X153431904Y-101959580D02*
X153479523Y-101864342D01*
X153479523Y-101864342D02*
X153479523Y-101054819D01*
X154479523Y-102054819D02*
X153908095Y-102054819D01*
X154193809Y-102054819D02*
X154193809Y-101054819D01*
X154193809Y-101054819D02*
X154098571Y-101197676D01*
X154098571Y-101197676D02*
X154003333Y-101292914D01*
X154003333Y-101292914D02*
X153908095Y-101340533D01*
X170886667Y-154712200D02*
X171029524Y-154759819D01*
X171029524Y-154759819D02*
X171267619Y-154759819D01*
X171267619Y-154759819D02*
X171362857Y-154712200D01*
X171362857Y-154712200D02*
X171410476Y-154664580D01*
X171410476Y-154664580D02*
X171458095Y-154569342D01*
X171458095Y-154569342D02*
X171458095Y-154474104D01*
X171458095Y-154474104D02*
X171410476Y-154378866D01*
X171410476Y-154378866D02*
X171362857Y-154331247D01*
X171362857Y-154331247D02*
X171267619Y-154283628D01*
X171267619Y-154283628D02*
X171077143Y-154236009D01*
X171077143Y-154236009D02*
X170981905Y-154188390D01*
X170981905Y-154188390D02*
X170934286Y-154140771D01*
X170934286Y-154140771D02*
X170886667Y-154045533D01*
X170886667Y-154045533D02*
X170886667Y-153950295D01*
X170886667Y-153950295D02*
X170934286Y-153855057D01*
X170934286Y-153855057D02*
X170981905Y-153807438D01*
X170981905Y-153807438D02*
X171077143Y-153759819D01*
X171077143Y-153759819D02*
X171315238Y-153759819D01*
X171315238Y-153759819D02*
X171458095Y-153807438D01*
X171791429Y-153759819D02*
X172029524Y-154759819D01*
X172029524Y-154759819D02*
X172220000Y-154045533D01*
X172220000Y-154045533D02*
X172410476Y-154759819D01*
X172410476Y-154759819D02*
X172648572Y-153759819D01*
X173458095Y-153759819D02*
X173267619Y-153759819D01*
X173267619Y-153759819D02*
X173172381Y-153807438D01*
X173172381Y-153807438D02*
X173124762Y-153855057D01*
X173124762Y-153855057D02*
X173029524Y-153997914D01*
X173029524Y-153997914D02*
X172981905Y-154188390D01*
X172981905Y-154188390D02*
X172981905Y-154569342D01*
X172981905Y-154569342D02*
X173029524Y-154664580D01*
X173029524Y-154664580D02*
X173077143Y-154712200D01*
X173077143Y-154712200D02*
X173172381Y-154759819D01*
X173172381Y-154759819D02*
X173362857Y-154759819D01*
X173362857Y-154759819D02*
X173458095Y-154712200D01*
X173458095Y-154712200D02*
X173505714Y-154664580D01*
X173505714Y-154664580D02*
X173553333Y-154569342D01*
X173553333Y-154569342D02*
X173553333Y-154331247D01*
X173553333Y-154331247D02*
X173505714Y-154236009D01*
X173505714Y-154236009D02*
X173458095Y-154188390D01*
X173458095Y-154188390D02*
X173362857Y-154140771D01*
X173362857Y-154140771D02*
X173172381Y-154140771D01*
X173172381Y-154140771D02*
X173077143Y-154188390D01*
X173077143Y-154188390D02*
X173029524Y-154236009D01*
X173029524Y-154236009D02*
X172981905Y-154331247D01*
D12*
%TO.C,D1*%
X162594000Y-93000000D02*
X162750000Y-93000000D01*
X164910000Y-93000000D02*
X165066000Y-93000000D01*
X162594484Y-93000000D02*
G75*
G02*
X162750000Y-89768563I1235516J1560000D01*
G01*
X162750000Y-92480961D02*
G75*
G02*
X162750000Y-90399039I1080000J1040961D01*
G01*
X164910000Y-89768563D02*
G75*
G02*
X165065516Y-93000000I-1080000J-1671437D01*
G01*
X164910000Y-90399039D02*
G75*
G02*
X164910000Y-92480961I-1080000J-1040961D01*
G01*
%TO.C,BZ1*%
X159770000Y-81280000D02*
G75*
G02*
X147570000Y-81280000I-6100000J0D01*
G01*
X147570000Y-81280000D02*
G75*
G02*
X159770000Y-81280000I6100000J0D01*
G01*
%TO.C,R11*%
X135890000Y-71285000D02*
X135890000Y-76465000D01*
X135890000Y-98885000D02*
X135890000Y-93705000D01*
X139010000Y-76465000D02*
X132770000Y-76465000D01*
X132770000Y-93705000D01*
X139010000Y-93705000D01*
X139010000Y-76465000D01*
%TO.C,C1*%
X142180000Y-95620000D02*
X142180000Y-94880000D01*
X142220000Y-95787000D02*
X142220000Y-94713000D01*
X142260000Y-95913000D02*
X142260000Y-94587000D01*
X142300000Y-96018000D02*
X142300000Y-94482000D01*
X142340000Y-96109000D02*
X142340000Y-94391000D01*
X142380000Y-96190000D02*
X142380000Y-94310000D01*
X142420000Y-96263000D02*
X142420000Y-94237000D01*
X142460000Y-96330000D02*
X142460000Y-94170000D01*
X142500000Y-96392000D02*
X142500000Y-94108000D01*
X142540000Y-96449000D02*
X142540000Y-94051000D01*
X142580000Y-96503000D02*
X142580000Y-93997000D01*
X142620000Y-96553000D02*
X142620000Y-93947000D01*
X142660000Y-96601000D02*
X142660000Y-93899000D01*
X142700000Y-94410000D02*
X142700000Y-93854000D01*
X142700000Y-96646000D02*
X142700000Y-96090000D01*
X142740000Y-94410000D02*
X142740000Y-93812000D01*
X142740000Y-96688000D02*
X142740000Y-96090000D01*
X142780000Y-94410000D02*
X142780000Y-93772000D01*
X142780000Y-96728000D02*
X142780000Y-96090000D01*
X142820000Y-94410000D02*
X142820000Y-93734000D01*
X142820000Y-96766000D02*
X142820000Y-96090000D01*
X142860000Y-94410000D02*
X142860000Y-93698000D01*
X142860000Y-96802000D02*
X142860000Y-96090000D01*
X142900000Y-94410000D02*
X142900000Y-93664000D01*
X142900000Y-96836000D02*
X142900000Y-96090000D01*
X142940000Y-94410000D02*
X142940000Y-93631000D01*
X142940000Y-96869000D02*
X142940000Y-96090000D01*
X142980000Y-94410000D02*
X142980000Y-93600000D01*
X142980000Y-96900000D02*
X142980000Y-96090000D01*
X143020000Y-94410000D02*
X143020000Y-93570000D01*
X143020000Y-96930000D02*
X143020000Y-96090000D01*
X143060000Y-94410000D02*
X143060000Y-93542000D01*
X143060000Y-96958000D02*
X143060000Y-96090000D01*
X143100000Y-94410000D02*
X143100000Y-93516000D01*
X143100000Y-96984000D02*
X143100000Y-96090000D01*
X143140000Y-94410000D02*
X143140000Y-93490000D01*
X143140000Y-97010000D02*
X143140000Y-96090000D01*
X143180000Y-94410000D02*
X143180000Y-93466000D01*
X143180000Y-97034000D02*
X143180000Y-96090000D01*
X143220000Y-94410000D02*
X143220000Y-93443000D01*
X143220000Y-97057000D02*
X143220000Y-96090000D01*
X143260000Y-94410000D02*
X143260000Y-93421000D01*
X143260000Y-97079000D02*
X143260000Y-96090000D01*
X143300000Y-94410000D02*
X143300000Y-93400000D01*
X143300000Y-97100000D02*
X143300000Y-96090000D01*
X143340000Y-94410000D02*
X143340000Y-93380000D01*
X143340000Y-97120000D02*
X143340000Y-96090000D01*
X143380000Y-94410000D02*
X143380000Y-93361000D01*
X143380000Y-97139000D02*
X143380000Y-96090000D01*
X143420000Y-94410000D02*
X143420000Y-93344000D01*
X143420000Y-97156000D02*
X143420000Y-96090000D01*
X143460000Y-94410000D02*
X143460000Y-93327000D01*
X143460000Y-97173000D02*
X143460000Y-96090000D01*
X143500000Y-94410000D02*
X143500000Y-93311000D01*
X143500000Y-97189000D02*
X143500000Y-96090000D01*
X143540000Y-94410000D02*
X143540000Y-93296000D01*
X143540000Y-97204000D02*
X143540000Y-96090000D01*
X143580000Y-94410000D02*
X143580000Y-93282000D01*
X143580000Y-97218000D02*
X143580000Y-96090000D01*
X143620000Y-94410000D02*
X143620000Y-93269000D01*
X143620000Y-97231000D02*
X143620000Y-96090000D01*
X143660000Y-94410000D02*
X143660000Y-93257000D01*
X143660000Y-97243000D02*
X143660000Y-96090000D01*
X143700000Y-94410000D02*
X143700000Y-93245000D01*
X143700000Y-97255000D02*
X143700000Y-96090000D01*
X143740000Y-94410000D02*
X143740000Y-93235000D01*
X143740000Y-97265000D02*
X143740000Y-96090000D01*
X143780000Y-94410000D02*
X143780000Y-93225000D01*
X143780000Y-97275000D02*
X143780000Y-96090000D01*
X143820000Y-94410000D02*
X143820000Y-93216000D01*
X143820000Y-97284000D02*
X143820000Y-96090000D01*
X143860000Y-94410000D02*
X143860000Y-93208000D01*
X143860000Y-97292000D02*
X143860000Y-96090000D01*
X143900000Y-94410000D02*
X143900000Y-93201000D01*
X143900000Y-97299000D02*
X143900000Y-96090000D01*
X143940000Y-94410000D02*
X143940000Y-93194000D01*
X143940000Y-97306000D02*
X143940000Y-96090000D01*
X143980000Y-94410000D02*
X143980000Y-93189000D01*
X143980000Y-97311000D02*
X143980000Y-96090000D01*
X144020000Y-94410000D02*
X144020000Y-93184000D01*
X144020000Y-97316000D02*
X144020000Y-96090000D01*
X144060000Y-94410000D02*
X144060000Y-93179000D01*
X144060000Y-97321000D02*
X144060000Y-96090000D01*
X144100000Y-94410000D02*
X144100000Y-93176000D01*
X144100000Y-97324000D02*
X144100000Y-96090000D01*
X144140000Y-94410000D02*
X144140000Y-93173000D01*
X144140000Y-97327000D02*
X144140000Y-96090000D01*
X144180000Y-94410000D02*
X144180000Y-93172000D01*
X144180000Y-97328000D02*
X144180000Y-96090000D01*
X144220000Y-94410000D02*
X144220000Y-93170000D01*
X144220000Y-97330000D02*
X144220000Y-96090000D01*
X144260000Y-94410000D02*
X144260000Y-93170000D01*
X144260000Y-97330000D02*
X144260000Y-96090000D01*
X146329801Y-96645000D02*
X146329801Y-96245000D01*
X146529801Y-96445000D02*
X146129801Y-96445000D01*
X146380000Y-95250000D02*
G75*
G02*
X142140000Y-95250000I-2120000J0D01*
G01*
X142140000Y-95250000D02*
G75*
G02*
X146380000Y-95250000I2120000J0D01*
G01*
D13*
%TO.C,S1*%
X153770000Y-49930000D02*
G75*
G02*
X153570000Y-49930000I-100000J0D01*
G01*
X153570000Y-49930000D02*
G75*
G02*
X153770000Y-49930000I100000J0D01*
G01*
D14*
X165170000Y-62230000D02*
G75*
G02*
X142170000Y-62230000I-11500000J0D01*
G01*
X142170000Y-62230000D02*
G75*
G02*
X165170000Y-62230000I11500000J0D01*
G01*
D12*
%TO.C,SW1*%
X101750000Y-140180000D02*
X103350000Y-138580000D01*
X101750000Y-149380000D02*
X101750000Y-140180000D01*
X103350000Y-150980000D02*
X101750000Y-149380000D01*
X104500000Y-138580000D02*
X103350000Y-138580000D01*
X104500000Y-150980000D02*
X103350000Y-150980000D01*
X106400000Y-138580000D02*
X109500000Y-138580000D01*
X106400000Y-150980000D02*
X109500000Y-150980000D01*
X111400000Y-138580000D02*
X112550000Y-138580000D01*
X111400000Y-150980000D02*
X112550000Y-150980000D01*
X112550000Y-150980000D02*
X114150000Y-149380000D01*
X114150000Y-140180000D02*
X112550000Y-138580000D01*
X114150000Y-149380000D02*
X114150000Y-140180000D01*
%TO.C,SW8*%
X190650000Y-140180000D02*
X192250000Y-138580000D01*
X190650000Y-149380000D02*
X190650000Y-140180000D01*
X192250000Y-150980000D02*
X190650000Y-149380000D01*
X193400000Y-138580000D02*
X192250000Y-138580000D01*
X193400000Y-150980000D02*
X192250000Y-150980000D01*
X195300000Y-138580000D02*
X198400000Y-138580000D01*
X195300000Y-150980000D02*
X198400000Y-150980000D01*
X200300000Y-138580000D02*
X201450000Y-138580000D01*
X200300000Y-150980000D02*
X201450000Y-150980000D01*
X201450000Y-150980000D02*
X203050000Y-149380000D01*
X203050000Y-140180000D02*
X201450000Y-138580000D01*
X203050000Y-149380000D02*
X203050000Y-140180000D01*
D10*
%TO.C,BAT2*%
X177698400Y-69392800D02*
X180543200Y-69392800D01*
X177698400Y-72136000D02*
X177698400Y-69392800D01*
X185521600Y-69392800D02*
X182676800Y-69392800D01*
X185521600Y-72136000D02*
X185521600Y-69392800D01*
X192836800Y-82702400D02*
G75*
G02*
X170383200Y-82702400I-11226800J0D01*
G01*
X170383200Y-82702400D02*
G75*
G02*
X192836800Y-82702400I11226800J0D01*
G01*
D12*
%TO.C,D3*%
X145070000Y-80200000D02*
X145070000Y-80044000D01*
X145070000Y-82516000D02*
X145070000Y-82360000D01*
X141838563Y-80200000D02*
G75*
G02*
X145070000Y-80044484I1671437J-1080000D01*
G01*
X142469039Y-80200000D02*
G75*
G02*
X144550961Y-80200000I1040961J-1080000D01*
G01*
X144550961Y-82360000D02*
G75*
G02*
X142469039Y-82360000I-1040961J1080000D01*
G01*
X145070000Y-82515516D02*
G75*
G02*
X141838563Y-82360000I-1560000J1235516D01*
G01*
%TO.C,R9*%
X165275000Y-97790000D02*
X170455000Y-97790000D01*
X192875000Y-97790000D02*
X187695000Y-97790000D01*
X187695000Y-100910000D02*
X170455000Y-100910000D01*
X170455000Y-94670000D01*
X187695000Y-94670000D01*
X187695000Y-100910000D01*
%TO.C,SW2*%
X114530000Y-140180000D02*
X116130000Y-138580000D01*
X114530000Y-149380000D02*
X114530000Y-140180000D01*
X116130000Y-150980000D02*
X114530000Y-149380000D01*
X117280000Y-138580000D02*
X116130000Y-138580000D01*
X117280000Y-150980000D02*
X116130000Y-150980000D01*
X119180000Y-138580000D02*
X122280000Y-138580000D01*
X119180000Y-150980000D02*
X122280000Y-150980000D01*
X124180000Y-138580000D02*
X125330000Y-138580000D01*
X124180000Y-150980000D02*
X125330000Y-150980000D01*
X125330000Y-150980000D02*
X126930000Y-149380000D01*
X126930000Y-140180000D02*
X125330000Y-138580000D01*
X126930000Y-149380000D02*
X126930000Y-140180000D01*
%TO.C,R7*%
X186690000Y-105331000D02*
X186690000Y-110511000D01*
X186690000Y-132931000D02*
X186690000Y-127751000D01*
X183570000Y-127751000D02*
X189810000Y-127751000D01*
X189810000Y-110511000D01*
X183570000Y-110511000D01*
X183570000Y-127751000D01*
%TO.C,C2*%
X145130000Y-90955000D02*
X145130000Y-89425000D01*
X146970000Y-89425000D02*
X146970000Y-90955000D01*
%TO.C,SW4*%
X139850000Y-140180000D02*
X141450000Y-138580000D01*
X139850000Y-149380000D02*
X139850000Y-140180000D01*
X141450000Y-150980000D02*
X139850000Y-149380000D01*
X142600000Y-138580000D02*
X141450000Y-138580000D01*
X142600000Y-150980000D02*
X141450000Y-150980000D01*
X144500000Y-138580000D02*
X147600000Y-138580000D01*
X144500000Y-150980000D02*
X147600000Y-150980000D01*
X149500000Y-138580000D02*
X150650000Y-138580000D01*
X149500000Y-150980000D02*
X150650000Y-150980000D01*
X150650000Y-150980000D02*
X152250000Y-149380000D01*
X152250000Y-140180000D02*
X150650000Y-138580000D01*
X152250000Y-149380000D02*
X152250000Y-140180000D01*
D10*
%TO.C,BAT1*%
X114198400Y-69392800D02*
X117043200Y-69392800D01*
X114198400Y-72136000D02*
X114198400Y-69392800D01*
X122021600Y-69392800D02*
X119176800Y-69392800D01*
X122021600Y-72136000D02*
X122021600Y-69392800D01*
X129336800Y-82702400D02*
G75*
G02*
X106883200Y-82702400I-11226800J0D01*
G01*
X106883200Y-82702400D02*
G75*
G02*
X129336800Y-82702400I11226800J0D01*
G01*
D12*
%TO.C,SW7*%
X177990000Y-140180000D02*
X179590000Y-138580000D01*
X177990000Y-149380000D02*
X177990000Y-140180000D01*
X179590000Y-150980000D02*
X177990000Y-149380000D01*
X180740000Y-138580000D02*
X179590000Y-138580000D01*
X180740000Y-150980000D02*
X179590000Y-150980000D01*
X182640000Y-138580000D02*
X185740000Y-138580000D01*
X182640000Y-150980000D02*
X185740000Y-150980000D01*
X187640000Y-138580000D02*
X188790000Y-138580000D01*
X187640000Y-150980000D02*
X188790000Y-150980000D01*
X188790000Y-150980000D02*
X190390000Y-149380000D01*
X190390000Y-140180000D02*
X188790000Y-138580000D01*
X190390000Y-149380000D02*
X190390000Y-140180000D01*
%TO.C,R10*%
X199390000Y-105331000D02*
X199390000Y-110511000D01*
X199390000Y-132931000D02*
X199390000Y-127751000D01*
X196270000Y-127751000D02*
X202510000Y-127751000D01*
X202510000Y-110511000D01*
X196270000Y-110511000D01*
X196270000Y-127751000D01*
%TO.C,R2*%
X123190000Y-105331000D02*
X123190000Y-110511000D01*
X123190000Y-132931000D02*
X123190000Y-127751000D01*
X120070000Y-127751000D02*
X126310000Y-127751000D01*
X126310000Y-110511000D01*
X120070000Y-110511000D01*
X120070000Y-127751000D01*
%TO.C,R8*%
X199390000Y-71295000D02*
X199390000Y-76475000D01*
X199390000Y-98895000D02*
X199390000Y-93715000D01*
X196270000Y-93715000D02*
X202510000Y-93715000D01*
X202510000Y-76475000D01*
X196270000Y-76475000D01*
X196270000Y-93715000D01*
%TO.C,D2*%
X162360000Y-84250000D02*
X165300000Y-84250000D01*
X162360000Y-84370000D02*
X165300000Y-84370000D01*
X162360000Y-84490000D02*
X165300000Y-84490000D01*
X163830000Y-78810000D02*
X163830000Y-79830000D01*
X163830000Y-86290000D02*
X163830000Y-85270000D01*
X162360000Y-85270000D02*
X165300000Y-85270000D01*
X165300000Y-79830000D01*
X162360000Y-79830000D01*
X162360000Y-85270000D01*
%TO.C,R6*%
X173990000Y-105331000D02*
X173990000Y-110511000D01*
X173990000Y-132931000D02*
X173990000Y-127751000D01*
X170870000Y-127751000D02*
X177110000Y-127751000D01*
X177110000Y-110511000D01*
X170870000Y-110511000D01*
X170870000Y-127751000D01*
%TO.C,SW3*%
X127230000Y-140180000D02*
X128830000Y-138580000D01*
X127230000Y-149380000D02*
X127230000Y-140180000D01*
X128830000Y-150980000D02*
X127230000Y-149380000D01*
X129980000Y-138580000D02*
X128830000Y-138580000D01*
X129980000Y-150980000D02*
X128830000Y-150980000D01*
X131880000Y-138580000D02*
X134980000Y-138580000D01*
X131880000Y-150980000D02*
X134980000Y-150980000D01*
X136880000Y-138580000D02*
X138030000Y-138580000D01*
X136880000Y-150980000D02*
X138030000Y-150980000D01*
X138030000Y-150980000D02*
X139630000Y-149380000D01*
X139630000Y-140180000D02*
X138030000Y-138580000D01*
X139630000Y-149380000D02*
X139630000Y-140180000D01*
%TO.C,R5*%
X161290000Y-105331000D02*
X161290000Y-110511000D01*
X161290000Y-132931000D02*
X161290000Y-127751000D01*
X158170000Y-127751000D02*
X164410000Y-127751000D01*
X164410000Y-110511000D01*
X158170000Y-110511000D01*
X158170000Y-127751000D01*
%TO.C,R1*%
X110490000Y-105331000D02*
X110490000Y-110511000D01*
X110490000Y-132931000D02*
X110490000Y-127751000D01*
X107370000Y-127751000D02*
X113610000Y-127751000D01*
X113610000Y-110511000D01*
X107370000Y-110511000D01*
X107370000Y-127751000D01*
%TO.C,SW5*%
X152550000Y-140180000D02*
X154150000Y-138580000D01*
X152550000Y-149380000D02*
X152550000Y-140180000D01*
X154150000Y-150980000D02*
X152550000Y-149380000D01*
X155300000Y-138580000D02*
X154150000Y-138580000D01*
X155300000Y-150980000D02*
X154150000Y-150980000D01*
X157200000Y-138580000D02*
X160300000Y-138580000D01*
X157200000Y-150980000D02*
X160300000Y-150980000D01*
X162200000Y-138580000D02*
X163350000Y-138580000D01*
X162200000Y-150980000D02*
X163350000Y-150980000D01*
X163350000Y-150980000D02*
X164950000Y-149380000D01*
X164950000Y-140180000D02*
X163350000Y-138580000D01*
X164950000Y-149380000D02*
X164950000Y-140180000D01*
%TO.C,R3*%
X135890000Y-105331000D02*
X135890000Y-110511000D01*
X135890000Y-132931000D02*
X135890000Y-127751000D01*
X132770000Y-127751000D02*
X139010000Y-127751000D01*
X139010000Y-110511000D01*
X132770000Y-110511000D01*
X132770000Y-127751000D01*
%TO.C,R4*%
X148590000Y-105331000D02*
X148590000Y-110511000D01*
X148590000Y-132931000D02*
X148590000Y-127751000D01*
X145470000Y-127751000D02*
X151710000Y-127751000D01*
X151710000Y-110511000D01*
X145470000Y-110511000D01*
X145470000Y-127751000D01*
%TO.C,U1*%
X151020000Y-88840000D02*
X151020000Y-99120000D01*
X151020000Y-99120000D02*
X156320000Y-99120000D01*
X152670000Y-88840000D02*
X151020000Y-88840000D01*
X156320000Y-88840000D02*
X154670000Y-88840000D01*
X156320000Y-99120000D02*
X156320000Y-88840000D01*
X154670000Y-88840000D02*
G75*
G02*
X152670000Y-88840000I-1000000J0D01*
G01*
%TO.C,SW6*%
X165330000Y-140180000D02*
X166930000Y-138580000D01*
X165330000Y-149380000D02*
X165330000Y-140180000D01*
X166930000Y-150980000D02*
X165330000Y-149380000D01*
X168080000Y-138580000D02*
X166930000Y-138580000D01*
X168080000Y-150980000D02*
X166930000Y-150980000D01*
X169980000Y-138580000D02*
X173080000Y-138580000D01*
X169980000Y-150980000D02*
X173080000Y-150980000D01*
X174980000Y-138580000D02*
X176130000Y-138580000D01*
X174980000Y-150980000D02*
X176130000Y-150980000D01*
X176130000Y-150980000D02*
X177730000Y-149380000D01*
X177730000Y-140180000D02*
X176130000Y-138580000D01*
X177730000Y-149380000D02*
X177730000Y-140180000D01*
%TD*%
M02*
